<?xml version="1.0" standalone="no"?>
<!DOCTYPE svg PUBLIC "-//W3C//DTD SVG 1.1//EN" "http://www.w3.org/Graphics/SVG/1.1/DTD/svg11.dtd" >
<svg>
<metadata>
Created by FontForge 20090622 at Thu May 24 11:32:21 2018
 By deploy user
&#194;&#169; 2015-2017 Apple Inc. All rights reserved.
</metadata>
<defs>
<font id="SFProDisplay-Heavy" horiz-adv-x="1714" >
  <font-face 
    font-family="SF Pro Display"
    font-weight="800"
    font-stretch="normal"
    units-per-em="2048"
    panose-1="0 0 9 0 0 0 0 0 0 0"
    ascent="1638"
    descent="-410"
    x-height="1089"
    cap-height="1443"
    bbox="-625 -573 2666 2206"
    underline-thickness="227"
    underline-position="-151"
    unicode-range="U+0020-U+1F189"
  />
<missing-glyph horiz-adv-x="2048" 
d="M100 -494v165h1848v-165h-1848zM100 -38v165h1848v-165h-1848zM100 418v165h1848v-165h-1848zM100 873v165h1848v-165h-1848zM100 1329v165h1848v-165h-1848zM100 1785v165h1848v-165h-1848z" />
    <glyph glyph-name="uni2460" unicode="&#x31;&#x20dd;" 
d="M1011 380h-239v489h-7l-157 -106v201l164 108h239v-692zM857 144q156 0 286.5 77t205.5 209.5t75 289.5t-75 289.5t-205.5 209.5t-286.5 77t-286.5 -77t-205.5 -209.5t-75 -289.5t75 -289.5t205.5 -209.5t286.5 -77zM857 -57q-214 0 -392.5 103t-281.5 281.5t-103 392.5
t103 392.5t281.5 281.5t392.5 103t392.5 -103t281 -281.5t102.5 -392.5q0 -160 -60.5 -304t-164 -247.5t-247.5 -164.5t-304 -61z" />
    <glyph glyph-name="uni2461" unicode="&#x32;&#x20dd;" 
d="M790 832h-219v2q0 110 78 179t210 69q122 0 198.5 -59.5t76.5 -152.5q0 -53 -32.5 -102.5t-101.5 -109.5l-94 -88v-8h238v-183h-557v146l240 218q41 38 57 60.5t16 46.5q0 23 -14.5 36.5t-38.5 13.5q-27 0 -42.5 -18.5t-14.5 -47.5v-2zM857 144q156 0 286.5 77
t205.5 209.5t75 289.5t-75 289.5t-205.5 209.5t-286.5 77t-286.5 -77t-205.5 -209.5t-75 -289.5t75 -289.5t205.5 -209.5t286.5 -77zM857 -57q-214 0 -392.5 103t-281.5 281.5t-103 392.5t103 392.5t281.5 281.5t392.5 103t392.5 -103t281 -281.5t102.5 -392.5
q0 -160 -60.5 -304t-164 -247.5t-247.5 -164.5t-304 -61z" />
    <glyph glyph-name="uni2462" unicode="&#x33;&#x20dd;" 
d="M784 644v169h66q30 0 48.5 15.5t18.5 40.5q0 22 -18.5 35t-48.5 13q-34 0 -54.5 -19.5t-20.5 -50.5h-216q5 113 80 174t215 61q130 -1 207.5 -52t78.5 -136q0 -53 -39.5 -95t-90.5 -49v-11q60 -5 103 -50t43 -112q1 -96 -82 -152t-221 -56q-136 0 -216.5 64.5
t-81.5 170.5h216q1 -29 22 -47t57 -18t56.5 14t20.5 38q0 25 -20 39t-56 14h-67zM857 144q156 0 286.5 77t205.5 209.5t75 289.5t-75 289.5t-205.5 209.5t-286.5 77t-286.5 -77t-205.5 -209.5t-75 -289.5t75 -289.5t205.5 -209.5t286.5 -77zM857 -57q-214 0 -392.5 103
t-281.5 281.5t-103 392.5t103 392.5t281.5 281.5t392.5 103t392.5 -103t281 -281.5t102.5 -392.5q0 -160 -60.5 -304t-164 -247.5t-247.5 -164.5t-304 -61z" />
    <glyph glyph-name="uni2463" unicode="&#x34;&#x20dd;" 
d="M753 1072h314v-417h98v-172h-98v-103h-191v103h-342v175q70 149 219 414zM733 655h143v279h-7q-82 -145 -136 -278v-1zM857 144q156 0 286.5 77t205.5 209.5t75 289.5t-75 289.5t-205.5 209.5t-286.5 77t-286.5 -77t-205.5 -209.5t-75 -289.5t75 -289.5t205.5 -209.5
t286.5 -77zM857 -57q-214 0 -392.5 103t-281.5 281.5t-103 392.5t103 392.5t281.5 281.5t392.5 103t392.5 -103t281 -281.5t102.5 -392.5q0 -160 -60.5 -304t-164 -247.5t-247.5 -164.5t-304 -61z" />
    <glyph glyph-name="uni2464" unicode="&#x35;&#x20dd;" 
d="M577 602h218q4 -25 25 -39.5t49 -14.5q31 0 53.5 22t22.5 56q0 31 -22.5 52.5t-54.5 21.5q-48 0 -68 -39h-211l26 418h505v-163h-331l-9 -129h11q16 29 57.5 48t94.5 19q102 0 164.5 -59.5t62.5 -161.5q0 -118 -81 -187.5t-220 -69.5q-129 0 -210 63.5t-82 162.5z
M857 144q156 0 286.5 77t205.5 209.5t75 289.5t-75 289.5t-205.5 209.5t-286.5 77t-286.5 -77t-205.5 -209.5t-75 -289.5t75 -289.5t205.5 -209.5t286.5 -77zM857 -57q-214 0 -392.5 103t-281.5 281.5t-103 392.5t103 392.5t281.5 281.5t392.5 103t392.5 -103t281 -281.5
t102.5 -392.5q0 -160 -60.5 -304t-164 -247.5t-247.5 -164.5t-304 -61z" />
    <glyph glyph-name="uni2465" unicode="&#x36;&#x20dd;" 
d="M1146 879h-212q-19 38 -66 38q-49 0 -75 -48t-18 -122h8q40 86 155 86q100 0 161 -57t61 -156q0 -115 -81 -183.5t-214 -68.5q-179 0 -264 134q-55 89 -55 227q0 168 85 260.5t235 92.5q114 0 192 -58t88 -145zM786 615q0 -34 22 -55t55 -21t54 20.5t21 55.5
q0 34 -21.5 54t-53.5 20q-34 0 -55.5 -21t-21.5 -53zM857 144q156 0 286.5 77t205.5 209.5t75 289.5t-75 289.5t-205.5 209.5t-286.5 77t-286.5 -77t-205.5 -209.5t-75 -289.5t75 -289.5t205.5 -209.5t286.5 -77zM857 -57q-214 0 -392.5 103t-281.5 281.5t-103 392.5
t103 392.5t281.5 281.5t392.5 103t392.5 -103t281 -281.5t102.5 -392.5q0 -160 -60.5 -304t-164 -247.5t-247.5 -164.5t-304 -61z" />
    <glyph glyph-name="uni2466" unicode="&#x37;&#x20dd;" 
d="M577 1069h570v-184l-262 -508h-254l276 501v8h-330v183zM857 144q156 0 286.5 77t205.5 209.5t75 289.5t-75 289.5t-205.5 209.5t-286.5 77t-286.5 -77t-205.5 -209.5t-75 -289.5t75 -289.5t205.5 -209.5t286.5 -77zM857 -57q-214 0 -392.5 103t-281.5 281.5t-103 392.5
t103 392.5t281.5 281.5t392.5 103t392.5 -103t281 -281.5t102.5 -392.5q0 -160 -60.5 -304t-164 -247.5t-247.5 -164.5t-304 -61z" />
    <glyph glyph-name="uni2467" unicode="&#x38;&#x20dd;" 
d="M857 520q34 0 56 21t22 53q0 33 -22 54.5t-56 21.5t-56.5 -22t-22.5 -54t22.5 -53t56.5 -21zM857 807q28 0 46 17.5t18 43.5t-18.5 44t-45.5 18t-46 -18t-19 -44t18.5 -43.5t46.5 -17.5zM856 368q-148 0 -234 56t-86 152q0 67 43 111t116 53v10q-130 35 -130 145
q0 86 79 136.5t213 50.5t213 -50.5t79 -136.5q0 -111 -130 -145v-10q73 -9 116 -53t43 -110q0 -97 -86.5 -153t-235.5 -56zM857 144q156 0 286.5 77t205.5 209.5t75 289.5t-75 289.5t-205.5 209.5t-286.5 77t-286.5 -77t-205.5 -209.5t-75 -289.5t75 -289.5t205.5 -209.5
t286.5 -77zM857 -57q-214 0 -392.5 103t-281.5 281.5t-103 392.5t103 392.5t281.5 281.5t392.5 103t392.5 -103t281 -281.5t102.5 -392.5q0 -160 -60.5 -304t-164 -247.5t-247.5 -164.5t-304 -61z" />
    <glyph glyph-name="uni2468" unicode="&#x39;&#x20dd;" 
d="M553 832q0 111 84.5 181t214.5 70q146 0 230.5 -91t84.5 -264q0 -171 -83.5 -265.5t-236.5 -94.5q-113 0 -191 58.5t-88 145.5h215q19 -37 65 -37q51 0 76.5 48.5t16.5 119.5h-7q-39 -86 -154 -86q-102 0 -164.5 58t-62.5 157zM929 836q0 34 -21 55t-54 21t-54.5 -21
t-21.5 -55t21.5 -54.5t54.5 -20.5t54 20.5t21 54.5zM857 144q156 0 286.5 77t205.5 209.5t75 289.5t-75 289.5t-205.5 209.5t-286.5 77t-286.5 -77t-205.5 -209.5t-75 -289.5t75 -289.5t205.5 -209.5t286.5 -77zM857 -57q-214 0 -392.5 103t-281.5 281.5t-103 392.5
t103 392.5t281.5 281.5t392.5 103t392.5 -103t281 -281.5t102.5 -392.5q0 -160 -60.5 -304t-164 -247.5t-247.5 -164.5t-304 -61z" />
    <glyph glyph-name="uni24B6" unicode="A&#x20dd;" 
d="M797 687h119l-55 225h-8zM733 407h-235l214 692h290l213 -692h-235l-27 114h-192zM857 144q156 0 286.5 77t205.5 209.5t75 289.5t-75 289.5t-205.5 209.5t-286.5 77t-286.5 -77t-205.5 -209.5t-75 -289.5t75 -289.5t205.5 -209.5t286.5 -77zM857 -57q-214 0 -392.5 103
t-281.5 281.5t-103 392.5t103 392.5t281.5 281.5t392.5 103t392.5 -103t281 -281.5t102.5 -392.5q0 -160 -60.5 -304t-164 -247.5t-247.5 -164.5t-304 -61z" />
    <glyph glyph-name="uni24B7" unicode="B&#x20dd;" 
d="M571 380v692h369q101 0 159.5 -45.5t58.5 -124.5q0 -59 -38 -100t-99 -51v-7q77 -9 120.5 -55t43.5 -120q0 -84 -65.5 -136.5t-168.5 -52.5h-380zM787 929v-131h69q87 0 87 67q0 29 -21.5 46.5t-56.5 17.5h-78zM786 676v-144h75q96 0 96 73q0 33 -23 52t-64 19h-84z
M857 144q156 0 286.5 77t205.5 209.5t75 289.5t-75 289.5t-205.5 209.5t-286.5 77t-286.5 -77t-205.5 -209.5t-75 -289.5t75 -289.5t205.5 -209.5t286.5 -77zM857 -57q-214 0 -392.5 103t-281.5 281.5t-103 392.5t103 392.5t281.5 281.5t392.5 103t392.5 -103t281 -281.5
t102.5 -392.5q0 -160 -60.5 -304t-164 -247.5t-247.5 -164.5t-304 -61z" />
    <glyph glyph-name="uni24B8" unicode="C&#x20dd;" 
d="M967 647h213q-5 -123 -93.5 -201t-228.5 -78q-151 0 -248.5 96t-97.5 261t97.5 261t248.5 96q140 0 229 -78.5t94 -202.5h-213q-2 40 -33 66.5t-74 26.5q-53 0 -84.5 -44.5t-31.5 -124.5q0 -81 31 -125t85 -44q43 0 73.5 26t32.5 65zM857 144q156 0 286.5 77t205.5 209.5
t75 289.5t-75 289.5t-205.5 209.5t-286.5 77t-286.5 -77t-205.5 -209.5t-75 -289.5t75 -289.5t205.5 -209.5t286.5 -77zM857 -57q-214 0 -392.5 103t-281.5 281.5t-103 392.5t103 392.5t281.5 281.5t392.5 103t392.5 -103t281 -281.5t102.5 -392.5q0 -160 -60.5 -304
t-164 -247.5t-247.5 -164.5t-304 -61z" />
    <glyph glyph-name="uni24B9" unicode="D&#x20dd;" 
d="M575 1072h320q158 0 241 -89.5t83 -257.5q0 -167 -83 -256t-241 -89h-320v692zM799 894v-337h56q68 0 98 39.5t30 128.5t-30.5 129t-97.5 40h-56zM857 144q156 0 286.5 77t205.5 209.5t75 289.5t-75 289.5t-205.5 209.5t-286.5 77t-286.5 -77t-205.5 -209.5t-75 -289.5
t75 -289.5t205.5 -209.5t286.5 -77zM857 -57q-214 0 -392.5 103t-281.5 281.5t-103 392.5t103 392.5t281.5 281.5t392.5 103t392.5 -103t281 -281.5t102.5 -392.5q0 -160 -60.5 -304t-164 -247.5t-247.5 -164.5t-304 -61z" />
    <glyph glyph-name="uni24BA" unicode="E&#x20dd;" 
d="M1127 554v-174h-515v692h515v-174h-293v-98h274v-147h-274v-99h293zM857 144q156 0 286.5 77t205.5 209.5t75 289.5t-75 289.5t-205.5 209.5t-286.5 77t-286.5 -77t-205.5 -209.5t-75 -289.5t75 -289.5t205.5 -209.5t286.5 -77zM857 -57q-214 0 -392.5 103t-281.5 281.5
t-103 392.5t103 392.5t281.5 281.5t392.5 103t392.5 -103t281 -281.5t102.5 -392.5q0 -160 -60.5 -304t-164 -247.5t-247.5 -164.5t-304 -61z" />
    <glyph glyph-name="uni24BB" unicode="F&#x20dd;" 
d="M855 380h-233v692h514v-178h-281v-104h255v-177h-255v-233zM857 144q156 0 286.5 77t205.5 209.5t75 289.5t-75 289.5t-205.5 209.5t-286.5 77t-286.5 -77t-205.5 -209.5t-75 -289.5t75 -289.5t205.5 -209.5t286.5 -77zM857 -57q-214 0 -392.5 103t-281.5 281.5
t-103 392.5t103 392.5t281.5 281.5t392.5 103t392.5 -103t281 -281.5t102.5 -392.5q0 -160 -60.5 -304t-164 -247.5t-247.5 -164.5t-304 -61z" />
    <glyph glyph-name="uni24BC" unicode="G&#x20dd;" 
d="M969 616v17h-109v137h322v-121q0 -121 -88.5 -201t-235.5 -80q-155 0 -250.5 98.5t-95.5 258.5t95.5 258.5t250.5 98.5q132 0 221 -69t103 -183h-221q-5 36 -31 57.5t-68 21.5q-53 0 -85 -50.5t-32 -133.5q0 -85 32.5 -138.5t84.5 -53.5q50 0 78.5 23t28.5 60zM857 144
q156 0 286.5 77t205.5 209.5t75 289.5t-75 289.5t-205.5 209.5t-286.5 77t-286.5 -77t-205.5 -209.5t-75 -289.5t75 -289.5t205.5 -209.5t286.5 -77zM857 -57q-214 0 -392.5 103t-281.5 281.5t-103 392.5t103 392.5t281.5 281.5t392.5 103t392.5 -103t281 -281.5
t102.5 -392.5q0 -160 -60.5 -304t-164 -247.5t-247.5 -164.5t-304 -61z" />
    <glyph glyph-name="uni24BD" unicode="H&#x20dd;" 
d="M1176 380h-217v249h-204v-249h-217v692h217v-255h204v255h217v-692zM857 144q156 0 286.5 77t205.5 209.5t75 289.5t-75 289.5t-205.5 209.5t-286.5 77t-286.5 -77t-205.5 -209.5t-75 -289.5t75 -289.5t205.5 -209.5t286.5 -77zM857 -57q-214 0 -392.5 103t-281.5 281.5
t-103 392.5t103 392.5t281.5 281.5t392.5 103t392.5 -103t281 -281.5t102.5 -392.5q0 -160 -60.5 -304t-164 -247.5t-247.5 -164.5t-304 -61z" />
    <glyph glyph-name="uni24BE" unicode="I&#x20dd;" 
d="M985 380h-257v692h257v-692zM857 144q156 0 286.5 77t205.5 209.5t75 289.5t-75 289.5t-205.5 209.5t-286.5 77t-286.5 -77t-205.5 -209.5t-75 -289.5t75 -289.5t205.5 -209.5t286.5 -77zM857 -57q-214 0 -392.5 103t-281.5 281.5t-103 392.5t103 392.5t281.5 281.5
t392.5 103t392.5 -103t281 -281.5t102.5 -392.5q0 -160 -60.5 -304t-164 -247.5t-247.5 -164.5t-304 -61z" />
    <glyph glyph-name="uni24BF" unicode="J&#x20dd;" 
d="M540 639h230q0 -77 60 -77q56 0 56 79v416h239v-422q0 -130 -78 -206t-210 -76q-137 0 -217 77.5t-80 208.5zM857 144q156 0 286.5 77t205.5 209.5t75 289.5t-75 289.5t-205.5 209.5t-286.5 77t-286.5 -77t-205.5 -209.5t-75 -289.5t75 -289.5t205.5 -209.5t286.5 -77z
M857 -57q-214 0 -392.5 103t-281.5 281.5t-103 392.5t103 392.5t281.5 281.5t392.5 103t392.5 -103t281 -281.5t102.5 -392.5q0 -160 -60.5 -304t-164 -247.5t-247.5 -164.5t-304 -61z" />
    <glyph glyph-name="uni24C0" unicode="K&#x20dd;" 
d="M1200 1072l-211 -322l215 -370h-260l-130 231l-57 -70v-161h-209v692h209v-280h7l186 280h250zM857 144q156 0 286.5 77t205.5 209.5t75 289.5t-75 289.5t-205.5 209.5t-286.5 77t-286.5 -77t-205.5 -209.5t-75 -289.5t75 -289.5t205.5 -209.5t286.5 -77zM857 -57
q-214 0 -392.5 103t-281.5 281.5t-103 392.5t103 392.5t281.5 281.5t392.5 103t392.5 -103t281 -281.5t102.5 -392.5q0 -160 -60.5 -304t-164 -247.5t-247.5 -164.5t-304 -61z" />
    <glyph glyph-name="uni24C1" unicode="L&#x20dd;" 
d="M1145 590v-195h-509v692h242v-497h267zM857 144q156 0 286.5 77t205.5 209.5t75 289.5t-75 289.5t-205.5 209.5t-286.5 77t-286.5 -77t-205.5 -209.5t-75 -289.5t75 -289.5t205.5 -209.5t286.5 -77zM857 -57q-214 0 -392.5 103t-281.5 281.5t-103 392.5t103 392.5
t281.5 281.5t392.5 103t392.5 -103t281 -281.5t102.5 -392.5q0 -160 -60.5 -304t-164 -247.5t-247.5 -164.5t-304 -61z" />
    <glyph glyph-name="uni24C2" unicode="M&#x20dd;" 
d="M671 380h-170v692h221l133 -416h6l133 416h220v-692h-170v398h-7l-119 -352h-124l-116 352h-7v-398zM857 144q156 0 286.5 77t205.5 209.5t75 289.5t-75 289.5t-205.5 209.5t-286.5 77t-286.5 -77t-205.5 -209.5t-75 -289.5t75 -289.5t205.5 -209.5t286.5 -77zM857 -57
q-214 0 -392.5 103t-281.5 281.5t-103 392.5t103 392.5t281.5 281.5t392.5 103t392.5 -103t281 -281.5t102.5 -392.5q0 -160 -60.5 -304t-164 -247.5t-247.5 -164.5t-304 -61z" />
    <glyph glyph-name="uni24C3" unicode="N&#x20dd;" 
d="M747 380h-201v692h162l251 -344h8v344h200v-692h-159l-254 350h-7v-350zM857 144q156 0 286.5 77t205.5 209.5t75 289.5t-75 289.5t-205.5 209.5t-286.5 77t-286.5 -77t-205.5 -209.5t-75 -289.5t75 -289.5t205.5 -209.5t286.5 -77zM857 -57q-214 0 -392.5 103
t-281.5 281.5t-103 392.5t103 392.5t281.5 281.5t392.5 103t392.5 -103t281 -281.5t102.5 -392.5q0 -160 -60.5 -304t-164 -247.5t-247.5 -164.5t-304 -61z" />
    <glyph glyph-name="uni24C4" unicode="O&#x20dd;" 
d="M857 556q49 0 81 43.5t32 125.5t-32 125.5t-81 43.5t-81 -43.5t-32 -125.5t32 -125.5t81 -43.5zM857 368q-151 0 -248.5 95.5t-97.5 261.5t97.5 261.5t248.5 95.5t248.5 -95.5t97.5 -261.5t-97.5 -261.5t-248.5 -95.5zM857 144q156 0 286.5 77t205.5 209.5t75 289.5
t-75 289.5t-205.5 209.5t-286.5 77t-286.5 -77t-205.5 -209.5t-75 -289.5t75 -289.5t205.5 -209.5t286.5 -77zM857 -57q-214 0 -392.5 103t-281.5 281.5t-103 392.5t103 392.5t281.5 281.5t392.5 103t392.5 -103t281 -281.5t102.5 -392.5q0 -160 -60.5 -304t-164 -247.5
t-247.5 -164.5t-304 -61z" />
    <glyph glyph-name="uni24C5" unicode="P&#x20dd;" 
d="M934 1072q121 0 193.5 -72.5t72.5 -191.5q0 -117 -73 -187.5t-196 -70.5h-89v-170h-241v692h333zM973 808q0 89 -82 89h-66v-177h66q82 0 82 88zM857 144q156 0 286.5 77t205.5 209.5t75 289.5t-75 289.5t-205.5 209.5t-286.5 77t-286.5 -77t-205.5 -209.5t-75 -289.5
t75 -289.5t205.5 -209.5t286.5 -77zM857 -57q-214 0 -392.5 103t-281.5 281.5t-103 392.5t103 392.5t281.5 281.5t392.5 103t392.5 -103t281 -281.5t102.5 -392.5q0 -160 -60.5 -304t-164 -247.5t-247.5 -164.5t-304 -61z" />
    <glyph glyph-name="uni24C6" unicode="Q&#x20dd;" 
d="M1186 324h-223l-24 53q-39 -9 -82 -9q-151 0 -248.5 95.5t-97.5 261.5t97.5 261.5t248.5 95.5t248.5 -95.5t97.5 -261.5q0 -174 -107 -271zM857 556q11 0 21 3l-39 89h102l10 -14q19 36 19 91q0 82 -32 125.5t-81 43.5t-81 -43.5t-32 -125.5t32 -125.5t81 -43.5zM857 144
q156 0 286.5 77t205.5 209.5t75 289.5t-75 289.5t-205.5 209.5t-286.5 77t-286.5 -77t-205.5 -209.5t-75 -289.5t75 -289.5t205.5 -209.5t286.5 -77zM857 -57q-214 0 -392.5 103t-281.5 281.5t-103 392.5t103 392.5t281.5 281.5t392.5 103t392.5 -103t281 -281.5
t102.5 -392.5q0 -160 -60.5 -304t-164 -247.5t-247.5 -164.5t-304 -61z" />
    <glyph glyph-name="uni24C7" unicode="R&#x20dd;" 
d="M893 1072q138 0 213.5 -60t75.5 -169q0 -72 -36 -122.5t-100 -70.5l151 -270h-241l-111 228h-68v-228h-211v692h327zM777 756h92q37 0 58.5 19t21.5 54q0 36 -20.5 55t-58.5 19h-93v-147zM857 144q156 0 286.5 77t205.5 209.5t75 289.5t-75 289.5t-205.5 209.5t-286.5 77
t-286.5 -77t-205.5 -209.5t-75 -289.5t75 -289.5t205.5 -209.5t286.5 -77zM857 -57q-214 0 -392.5 103t-281.5 281.5t-103 392.5t103 392.5t281.5 281.5t392.5 103t392.5 -103t281 -281.5t102.5 -392.5q0 -160 -60.5 -304t-164 -247.5t-247.5 -164.5t-304 -61z" />
    <glyph glyph-name="uni24C8" unicode="S&#x20dd;" 
d="M548 587h222q4 -25 28.5 -40t62.5 -15q40 0 63 14.5t23 39.5q0 21 -21 31.5t-84 20.5l-76 12q-101 15 -155 67t-54 135q0 104 81.5 166.5t217.5 62.5q126 0 206 -57t88 -154h-215q-11 51 -80 51q-34 0 -54 -13.5t-20 -35.5q0 -21 21.5 -33t77.5 -19l87 -14
q200 -30 200 -201q0 -108 -84.5 -172t-227.5 -64q-139 0 -220.5 57.5t-86.5 160.5zM857 144q156 0 286.5 77t205.5 209.5t75 289.5t-75 289.5t-205.5 209.5t-286.5 77t-286.5 -77t-205.5 -209.5t-75 -289.5t75 -289.5t205.5 -209.5t286.5 -77zM857 -57q-214 0 -392.5 103
t-281.5 281.5t-103 392.5t103 392.5t281.5 281.5t392.5 103t392.5 -103t281 -281.5t102.5 -392.5q0 -160 -60.5 -304t-164 -247.5t-247.5 -164.5t-304 -61z" />
    <glyph glyph-name="uni24C9" unicode="T&#x20dd;" 
d="M978 356h-242v501h-187v191h616v-191h-187v-501zM857 144q156 0 286.5 77t205.5 209.5t75 289.5t-75 289.5t-205.5 209.5t-286.5 77t-286.5 -77t-205.5 -209.5t-75 -289.5t75 -289.5t205.5 -209.5t286.5 -77zM857 -57q-214 0 -392.5 103t-281.5 281.5t-103 392.5
t103 392.5t281.5 281.5t392.5 103t392.5 -103t281 -281.5t102.5 -392.5q0 -160 -60.5 -304t-164 -247.5t-247.5 -164.5t-304 -61z" />
    <glyph glyph-name="uni24CA" unicode="U&#x20dd;" 
d="M857 532q39 0 62.5 22.5t23.5 61.5v432h230v-454q0 -108 -87.5 -179t-228.5 -71t-228.5 71t-87.5 179v454h230v-432q0 -39 23.5 -61.5t62.5 -22.5zM857 144q156 0 286.5 77t205.5 209.5t75 289.5t-75 289.5t-205.5 209.5t-286.5 77t-286.5 -77t-205.5 -209.5t-75 -289.5
t75 -289.5t205.5 -209.5t286.5 -77zM857 -57q-214 0 -392.5 103t-281.5 281.5t-103 392.5t103 392.5t281.5 281.5t392.5 103t392.5 -103t281 -281.5t102.5 -392.5q0 -160 -60.5 -304t-164 -247.5t-247.5 -164.5t-304 -61z" />
    <glyph glyph-name="uni24CB" unicode="V&#x20dd;" 
d="M695 348l-194 692h256l96 -493h8l96 493h255l-193 -692h-324zM857 144q156 0 286.5 77t205.5 209.5t75 289.5t-75 289.5t-205.5 209.5t-286.5 77t-286.5 -77t-205.5 -209.5t-75 -289.5t75 -289.5t205.5 -209.5t286.5 -77zM857 -57q-214 0 -392.5 103t-281.5 281.5
t-103 392.5t103 392.5t281.5 281.5t392.5 103t392.5 -103t281 -281.5t102.5 -392.5q0 -160 -60.5 -304t-164 -247.5t-247.5 -164.5t-304 -61z" />
    <glyph glyph-name="uni24CC" unicode="W&#x20dd;" 
d="M853 754l-85 -398h-195l-145 692h198l62 -440h7l85 440h154l85 -440h7l62 440h197l-144 -692h-195l-86 398h-7zM857 144q156 0 286.5 77t205.5 209.5t75 289.5t-75 289.5t-205.5 209.5t-286.5 77t-286.5 -77t-205.5 -209.5t-75 -289.5t75 -289.5t205.5 -209.5t286.5 -77z
M857 -57q-214 0 -392.5 103t-281.5 281.5t-103 392.5t103 392.5t281.5 281.5t392.5 103t392.5 -103t281 -281.5t102.5 -392.5q0 -160 -60.5 -304t-164 -247.5t-247.5 -164.5t-304 -61z" />
    <glyph glyph-name="uni24CD" unicode="X&#x20dd;" 
d="M1201 1072l-207 -347l207 -345h-244l-100 215h-7l-98 -215h-255l213 346l-213 346h258l97 -216h7l100 216h242zM857 144q156 0 286.5 77t205.5 209.5t75 289.5t-75 289.5t-205.5 209.5t-286.5 77t-286.5 -77t-205.5 -209.5t-75 -289.5t75 -289.5t205.5 -209.5t286.5 -77z
M857 -57q-214 0 -392.5 103t-281.5 281.5t-103 392.5t103 392.5t281.5 281.5t392.5 103t392.5 -103t281 -281.5t102.5 -392.5q0 -160 -60.5 -304t-164 -247.5t-247.5 -164.5t-304 -61z" />
    <glyph glyph-name="uni24CE" unicode="Y&#x20dd;" 
d="M982 359h-251v205l-234 488h259l98 -265h7l97 265h259l-235 -487v-206zM857 144q156 0 286.5 77t205.5 209.5t75 289.5t-75 289.5t-205.5 209.5t-286.5 77t-286.5 -77t-205.5 -209.5t-75 -289.5t75 -289.5t205.5 -209.5t286.5 -77zM857 -57q-214 0 -392.5 103
t-281.5 281.5t-103 392.5t103 392.5t281.5 281.5t392.5 103t392.5 -103t281 -281.5t102.5 -392.5q0 -160 -60.5 -304t-164 -247.5t-247.5 -164.5t-304 -61z" />
    <glyph glyph-name="uni24CF" unicode="Z&#x20dd;" 
d="M580 380v148l267 352v8h-272v184h557v-149l-269 -351v-9h279v-183h-562zM857 144q156 0 286.5 77t205.5 209.5t75 289.5t-75 289.5t-205.5 209.5t-286.5 77t-286.5 -77t-205.5 -209.5t-75 -289.5t75 -289.5t205.5 -209.5t286.5 -77zM857 -57q-214 0 -392.5 103
t-281.5 281.5t-103 392.5t103 392.5t281.5 281.5t392.5 103t392.5 -103t281 -281.5t102.5 -392.5q0 -160 -60.5 -304t-164 -247.5t-247.5 -164.5t-304 -61z" />
    <glyph glyph-name="uni24EA" unicode="&#x23;&#x20dd;" 
d="M857 546q80 0 80 178q0 177 -80 177q-81 0 -81 -177q0 -178 81 -178zM854 368q-139 0 -220.5 95t-81.5 261q0 165 81.5 260t220.5 95t223 -95t84 -260t-84 -260.5t-223 -95.5zM857 144q156 0 286.5 77t205.5 209.5t75 289.5t-75 289.5t-205.5 209.5t-286.5 77t-286.5 -77
t-205.5 -209.5t-75 -289.5t75 -289.5t205.5 -209.5t286.5 -77zM857 -57q-214 0 -392.5 103t-281.5 281.5t-103 392.5t103 392.5t281.5 281.5t392.5 103t392.5 -103t281 -281.5t102.5 -392.5q0 -160 -60.5 -304t-164 -247.5t-247.5 -164.5t-304 -61z" />
    <glyph glyph-name="uni24FF" unicode="&#x30;&#x20dd;&#x25cf;" 
d="M856 524q-82 0 -82 200q0 199 82 199t82 -199q0 -200 -82 -200zM853 338q151 0 241.5 103t90.5 283q0 179 -90.5 282t-241.5 103t-238.5 -102.5t-87.5 -282.5q0 -181 87.5 -283.5t238.5 -102.5zM857 -55q-157 0 -301 62t-248 166t-166 248t-62 301t62 301t166 248
t248 165.5t301 61.5q105 0 205.5 -28t185.5 -78t157 -122t122 -157t78 -185.5t28 -205.5q0 -157 -61.5 -301t-165.5 -248t-248 -166t-301 -62z" />
    <glyph glyph-name="uni278A" unicode="&#x31;&#x20dd;&#x25cf;" 
d="M1025 351v746h-260l-179 -116v-224l170 113h7v-519h262zM857 -55q-157 0 -301 62t-248 166t-166 248t-62 301t62 301t166 248t248 165.5t301 61.5q105 0 205.5 -28t185.5 -78t157 -122t122 -157t78 -185.5t28 -205.5q0 -157 -61.5 -301t-165.5 -248t-248 -166t-301 -62z
" />
    <glyph glyph-name="uni278B" unicode="&#x32;&#x20dd;&#x25cf;" 
d="M774 834v3q0 40 18.5 63t51.5 23q29 0 46.5 -15.5t17.5 -41.5q0 -31 -21.5 -60.5t-78.5 -80.5l-247 -216v-160h602v203h-268v4l105 94q78 66 112.5 119.5t34.5 116.5q0 94 -81.5 158t-203.5 64q-146 0 -231.5 -75t-85.5 -196v-3h229zM857 -55q-157 0 -301 62t-248 166
t-166 248t-62 301t62 301t166 248t248 165.5t301 61.5q105 0 205.5 -28t185.5 -78t157 -122t122 -157t78 -185.5t28 -205.5q0 -157 -61.5 -301t-165.5 -248t-248 -166t-301 -62z" />
    <glyph glyph-name="uni278C" unicode="&#x33;&#x20dd;&#x25cf;" 
d="M773 644h76q39 0 62 -16.5t23 -44.5t-22.5 -44.5t-61.5 -16.5q-40 0 -64.5 19.5t-25.5 52.5h-233q1 -112 90 -183.5t233 -71.5q148 0 238 61.5t90 165.5q-1 70 -47 119t-110 55v8q55 8 96.5 52.5t41.5 103.5q-1 92 -85.5 148.5t-222.5 56.5q-153 -1 -234 -66t-87 -188
h235q0 34 21.5 54t60.5 20q31 0 51 -16.5t21 -40.5q0 -27 -20.5 -43t-54.5 -16h-71v-169zM857 -55q-157 0 -301 62t-248 166t-166 248t-62 301t62 301t166 248t248 165.5t301 61.5q105 0 205.5 -28t185.5 -78t157 -122t122 -157t78 -185.5t28 -205.5q0 -157 -61.5 -301
t-165.5 -248t-248 -166t-301 -62z" />
    <glyph glyph-name="uni278D" unicode="&#x34;&#x20dd;&#x25cf;" 
d="M740 1097q-151 -264 -235 -445v-191h366v-110h212v110h103v191h-103v445h-343zM725 652v1q60 140 140 282h6v-283h-146zM857 -55q-157 0 -301 62t-248 166t-166 248t-62 301t62 301t166 248t248 165.5t301 61.5q105 0 205.5 -28t185.5 -78t157 -122t122 -157t78 -185.5
t28 -205.5q0 -157 -61.5 -301t-165.5 -248t-248 -166t-301 -62z" />
    <glyph glyph-name="uni278E" unicode="&#x35;&#x20dd;&#x25cf;" 
d="M549 593q1 -110 88 -178.5t228 -68.5q150 0 237.5 74.5t87.5 204.5q0 110 -67.5 175t-178.5 65q-58 0 -102 -20t-61 -52h-8l9 139h355v174h-547l-27 -452h220q10 22 32.5 36.5t50.5 14.5q39 0 63.5 -24.5t24.5 -64.5t-25.5 -65t-62.5 -25q-34 0 -59 18.5t-30 48.5h-228z
M857 -55q-157 0 -301 62t-248 166t-166 248t-62 301t62 301t166 248t248 165.5t301 61.5q105 0 205.5 -28t185.5 -78t157 -122t122 -157t78 -185.5t28 -205.5q0 -157 -61.5 -301t-165.5 -248t-248 -166t-301 -62z" />
    <glyph glyph-name="uni278F" unicode="&#x36;&#x20dd;&#x25cf;" 
d="M1181 611q0 108 -63 166.5t-172 58.5q-61 0 -109 -24.5t-73 -66.5l-6 -1q-5 15 -5 33q-1 69 29.5 112.5t78.5 43.5q52 0 79 -44h225q-11 94 -95.5 157.5t-206.5 63.5q-160 0 -253 -101.5t-93 -280.5q0 -147 60 -247q95 -143 285 -143q142 0 230.5 75t88.5 198zM770 606
q0 40 24.5 64.5t64.5 24.5q39 0 65 -24.5t26 -65.5q0 -42 -25 -66t-66 -24q-40 0 -64.5 24.5t-24.5 66.5zM857 -55q-157 0 -301 62t-248 166t-166 248t-62 301t62 301t166 248t248 165.5t301 61.5q105 0 205.5 -28t185.5 -78t157 -122t122 -157t78 -185.5t28 -205.5
q0 -157 -61.5 -301t-165.5 -248t-248 -166t-301 -62z" />
    <glyph glyph-name="uni2790" unicode="&#x37;&#x20dd;&#x25cf;" 
d="M550 1095v-202h353v-4l-298 -541h279l281 545v202h-615zM857 -55q-157 0 -301 62t-248 166t-166 248t-62 301t62 301t166 248t248 165.5t301 61.5q105 0 205.5 -28t185.5 -78t157 -122t122 -157t78 -185.5t28 -205.5q0 -157 -61.5 -301t-165.5 -248t-248 -166t-301 -62z
" />
    <glyph glyph-name="uni2791" unicode="&#x38;&#x20dd;&#x25cf;" 
d="M856 800q-35 0 -57 21t-22 55q0 35 22 56.5t57 21.5t57 -21.5t22 -56.5q0 -34 -22 -55t-57 -21zM856 495q-42 0 -67.5 24.5t-25.5 64.5q0 39 25.5 64t67.5 25q41 0 67.5 -25t26.5 -64q0 -40 -26.5 -64.5t-67.5 -24.5zM856 338q161 0 254 60.5t93 166.5q0 71 -45.5 118.5
t-124.5 58.5v4q138 40 138 158q0 94 -85 149.5t-230 55.5t-229.5 -55t-84.5 -150q0 -61 33 -99.5t105 -58.5v-4q-79 -11 -124.5 -58.5t-45.5 -118.5q0 -106 93 -166.5t253 -60.5zM857 -55q-157 0 -301 62t-248 166t-166 248t-62 301t62 301t166 248t248 165.5t301 61.5
q105 0 205.5 -28t185.5 -78t157 -122t122 -157t78 -185.5t28 -205.5q0 -157 -61.5 -301t-165.5 -248t-248 -166t-301 -62z" />
    <glyph glyph-name="uni2792" unicode="&#x39;&#x20dd;&#x25cf;" 
d="M935 841q0 -41 -24.5 -65t-63.5 -24q-40 0 -65.5 24.5t-25.5 65.5t25 66t65 25q41 0 65 -24.5t24 -67.5zM541 557q11 -95 95 -157t207 -62q161 0 253 100.5t92 278.5q0 188 -94 290.5t-250 102.5q-141 0 -230 -75t-89 -197q0 -109 63 -168.5t173 -59.5q61 0 109 25t72 66
h6q10 -78 -18.5 -132t-85.5 -54q-53 0 -77 42h-226zM857 -55q-157 0 -301 62t-248 166t-166 248t-62 301t62 301t166 248t248 165.5t301 61.5q105 0 205.5 -28t185.5 -78t157 -122t122 -157t78 -185.5t28 -205.5q0 -157 -61.5 -301t-165.5 -248t-248 -166t-301 -62z" />
    <glyph glyph-name="uni1F130" unicode="A&#x20de;" 
d="M797 683h119l-55 225h-8zM733 403h-235l214 692h290l213 -692h-235l-27 114h-192zM367 1475h979q109 0 185.5 -75.5t76.5 -182.5v-990q0 -107 -76.5 -182.5t-185.5 -75.5h-979q-108 0 -184.5 75.5t-76.5 182.5v990q0 107 76.5 182.5t184.5 75.5zM1401 1161q0 52 -37 87.5
t-91 35.5h-833q-53 0 -90 -35.5t-37 -87.5v-878q0 -51 37.5 -87t89.5 -36h833q53 0 90.5 36t37.5 87v878z" />
    <glyph glyph-name="uni1F131" unicode="B&#x20de;" 
d="M571 380v692h369q101 0 159.5 -45.5t58.5 -124.5q0 -59 -38 -100t-99 -51v-7q77 -9 120.5 -55t43.5 -120q0 -84 -65.5 -136.5t-168.5 -52.5h-380zM787 929v-131h69q87 0 87 67q0 29 -21.5 46.5t-56.5 17.5h-78zM786 676v-144h75q96 0 96 73q0 33 -23 52t-64 19h-84z
M367 1475h979q109 0 185.5 -75.5t76.5 -182.5v-990q0 -107 -76.5 -182.5t-185.5 -75.5h-979q-108 0 -184.5 75.5t-76.5 182.5v990q0 107 76.5 182.5t184.5 75.5zM1401 1161q0 52 -37 87.5t-91 35.5h-833q-53 0 -90 -35.5t-37 -87.5v-878q0 -51 37.5 -87t89.5 -36h833
q53 0 90.5 36t37.5 87v878z" />
    <glyph glyph-name="uni1F132" unicode="C&#x20de;" 
d="M967 647h213q-5 -123 -93.5 -201t-228.5 -78q-151 0 -248.5 96t-97.5 261t97.5 261t248.5 96q140 0 229 -78.5t94 -202.5h-213q-2 40 -33 66.5t-74 26.5q-53 0 -84.5 -44.5t-31.5 -124.5q0 -81 31 -125t85 -44q43 0 73.5 26t32.5 65zM367 1475h979q109 0 185.5 -75.5
t76.5 -182.5v-990q0 -107 -76.5 -182.5t-185.5 -75.5h-979q-108 0 -184.5 75.5t-76.5 182.5v990q0 107 76.5 182.5t184.5 75.5zM1401 1161q0 52 -37 87.5t-91 35.5h-833q-53 0 -90 -35.5t-37 -87.5v-878q0 -51 37.5 -87t89.5 -36h833q53 0 90.5 36t37.5 87v878z" />
    <glyph glyph-name="uni1F133" unicode="D&#x20de;" 
d="M567 1072h320q158 0 241.5 -89.5t83.5 -257.5q0 -167 -83.5 -256t-241.5 -89h-320v692zM792 894v-337h55q68 0 98 39.5t30 128.5t-30 129t-98 40h-55zM367 1475h979q109 0 185.5 -75.5t76.5 -182.5v-990q0 -107 -76.5 -182.5t-185.5 -75.5h-979q-108 0 -184.5 75.5
t-76.5 182.5v990q0 107 76.5 182.5t184.5 75.5zM1401 1161q0 52 -37 87.5t-91 35.5h-833q-53 0 -90 -35.5t-37 -87.5v-878q0 -51 37.5 -87t89.5 -36h833q53 0 90.5 36t37.5 87v878z" />
    <glyph glyph-name="uni1F134" unicode="E&#x20de;" 
d="M1127 554v-174h-515v692h515v-174h-293v-98h274v-147h-274v-99h293zM367 1475h979q109 0 185.5 -75.5t76.5 -182.5v-990q0 -107 -76.5 -182.5t-185.5 -75.5h-979q-108 0 -184.5 75.5t-76.5 182.5v990q0 107 76.5 182.5t184.5 75.5zM1401 1161q0 52 -37 87.5t-91 35.5
h-833q-53 0 -90 -35.5t-37 -87.5v-878q0 -51 37.5 -87t89.5 -36h833q53 0 90.5 36t37.5 87v878z" />
    <glyph glyph-name="uni1F135" unicode="F&#x20de;" 
d="M855 380h-233v692h514v-178h-281v-104h255v-177h-255v-233zM367 1475h979q109 0 185.5 -75.5t76.5 -182.5v-990q0 -107 -76.5 -182.5t-185.5 -75.5h-979q-108 0 -184.5 75.5t-76.5 182.5v990q0 107 76.5 182.5t184.5 75.5zM1401 1161q0 52 -37 87.5t-91 35.5h-833
q-53 0 -90 -35.5t-37 -87.5v-878q0 -51 37.5 -87t89.5 -36h833q53 0 90.5 36t37.5 87v878z" />
    <glyph glyph-name="uni1F136" unicode="G&#x20de;" 
d="M969 616v17h-109v137h322v-121q0 -121 -88.5 -201t-235.5 -80q-155 0 -250.5 98.5t-95.5 258.5t95.5 258.5t250.5 98.5q132 0 221 -69t103 -183h-221q-5 36 -31 57.5t-68 21.5q-53 0 -85 -50.5t-32 -133.5q0 -85 32.5 -138.5t84.5 -53.5q50 0 78.5 23t28.5 60zM367 1475
h979q109 0 185.5 -75.5t76.5 -182.5v-990q0 -107 -76.5 -182.5t-185.5 -75.5h-979q-108 0 -184.5 75.5t-76.5 182.5v990q0 107 76.5 182.5t184.5 75.5zM1401 1161q0 52 -37 87.5t-91 35.5h-833q-53 0 -90 -35.5t-37 -87.5v-878q0 -51 37.5 -87t89.5 -36h833q53 0 90.5 36
t37.5 87v878z" />
    <glyph glyph-name="uni1F137" unicode="H&#x20de;" 
d="M1176 380h-217v249h-204v-249h-217v692h217v-255h204v255h217v-692zM367 1475h979q109 0 185.5 -75.5t76.5 -182.5v-990q0 -107 -76.5 -182.5t-185.5 -75.5h-979q-108 0 -184.5 75.5t-76.5 182.5v990q0 107 76.5 182.5t184.5 75.5zM1401 1161q0 52 -37 87.5t-91 35.5
h-833q-53 0 -90 -35.5t-37 -87.5v-878q0 -51 37.5 -87t89.5 -36h833q53 0 90.5 36t37.5 87v878z" />
    <glyph glyph-name="uni1F138" unicode="I&#x20de;" 
d="M985 380h-257v692h257v-692zM367 1475h979q109 0 185.5 -75.5t76.5 -182.5v-990q0 -107 -76.5 -182.5t-185.5 -75.5h-979q-108 0 -184.5 75.5t-76.5 182.5v990q0 107 76.5 182.5t184.5 75.5zM1401 1161q0 52 -37 87.5t-91 35.5h-833q-53 0 -90 -35.5t-37 -87.5v-878
q0 -51 37.5 -87t89.5 -36h833q53 0 90.5 36t37.5 87v878z" />
    <glyph glyph-name="uni1F139" unicode="J&#x20de;" 
d="M540 639h230q0 -77 60 -77q56 0 56 79v416h239v-422q0 -130 -78 -206t-210 -76q-137 0 -217 77.5t-80 208.5zM367 1475h979q109 0 185.5 -75.5t76.5 -182.5v-990q0 -107 -76.5 -182.5t-185.5 -75.5h-979q-108 0 -184.5 75.5t-76.5 182.5v990q0 107 76.5 182.5t184.5 75.5
zM1401 1161q0 52 -37 87.5t-91 35.5h-833q-53 0 -90 -35.5t-37 -87.5v-878q0 -51 37.5 -87t89.5 -36h833q53 0 90.5 36t37.5 87v878z" />
    <glyph glyph-name="uni1F13A" unicode="K&#x20de;" 
d="M1200 1072l-211 -322l215 -370h-260l-130 231l-57 -70v-161h-209v692h209v-280h7l186 280h250zM367 1475h979q109 0 185.5 -75.5t76.5 -182.5v-990q0 -107 -76.5 -182.5t-185.5 -75.5h-979q-108 0 -184.5 75.5t-76.5 182.5v990q0 107 76.5 182.5t184.5 75.5zM1401 1161
q0 52 -37 87.5t-91 35.5h-833q-53 0 -90 -35.5t-37 -87.5v-878q0 -51 37.5 -87t89.5 -36h833q53 0 90.5 36t37.5 87v878z" />
    <glyph glyph-name="uni1F13B" unicode="L&#x20de;" 
d="M1148 590v-195h-510v692h242v-497h268zM367 1475h979q109 0 185.5 -75.5t76.5 -182.5v-990q0 -107 -76.5 -182.5t-185.5 -75.5h-979q-108 0 -184.5 75.5t-76.5 182.5v990q0 107 76.5 182.5t184.5 75.5zM1401 1161q0 52 -37 87.5t-91 35.5h-833q-53 0 -90 -35.5t-37 -87.5
v-878q0 -51 37.5 -87t89.5 -36h833q53 0 90.5 36t37.5 87v878z" />
    <glyph glyph-name="uni1F13C" unicode="M&#x20de;" 
d="M671 380h-170v692h221l133 -416h6l133 416h220v-692h-170v421h-7l-119 -375h-124l-116 375h-7v-421zM367 1475h979q109 0 185.5 -75.5t76.5 -182.5v-990q0 -107 -76.5 -182.5t-185.5 -75.5h-979q-108 0 -184.5 75.5t-76.5 182.5v990q0 107 76.5 182.5t184.5 75.5z
M1401 1161q0 52 -37 87.5t-91 35.5h-833q-53 0 -90 -35.5t-37 -87.5v-878q0 -51 37.5 -87t89.5 -36h833q53 0 90.5 36t37.5 87v878z" />
    <glyph glyph-name="uni1F13D" unicode="N&#x20de;" 
d="M747 380h-201v692h161l253 -344h7v344h200v-692h-159l-254 350h-7v-350zM367 1475h979q109 0 185.5 -75.5t76.5 -182.5v-990q0 -107 -76.5 -182.5t-185.5 -75.5h-979q-108 0 -184.5 75.5t-76.5 182.5v990q0 107 76.5 182.5t184.5 75.5zM1401 1161q0 52 -37 87.5t-91 35.5
h-833q-53 0 -90 -35.5t-37 -87.5v-878q0 -51 37.5 -87t89.5 -36h833q53 0 90.5 36t37.5 87v878z" />
    <glyph glyph-name="uni1F13E" unicode="O&#x20de;" 
d="M857 556q49 0 81 43.5t32 125.5t-32 125.5t-81 43.5t-81 -43.5t-32 -125.5t32 -125.5t81 -43.5zM857 368q-151 0 -248.5 95.5t-97.5 261.5t97.5 261.5t248.5 95.5t248.5 -95.5t97.5 -261.5t-97.5 -261.5t-248.5 -95.5zM367 1475h979q109 0 185.5 -75.5t76.5 -182.5v-990
q0 -107 -76.5 -182.5t-185.5 -75.5h-979q-108 0 -184.5 75.5t-76.5 182.5v990q0 107 76.5 182.5t184.5 75.5zM1401 1161q0 52 -37 87.5t-91 35.5h-833q-53 0 -90 -35.5t-37 -87.5v-878q0 -51 37.5 -87t89.5 -36h833q53 0 90.5 36t37.5 87v878z" />
    <glyph glyph-name="uni1F13F" unicode="P&#x20de;" 
d="M934 1072q121 0 193.5 -72.5t72.5 -191.5q0 -117 -73 -187.5t-196 -70.5h-89v-170h-241v692h333zM973 808q0 89 -82 89h-66v-177h66q82 0 82 88zM367 1475h979q109 0 185.5 -75.5t76.5 -182.5v-990q0 -107 -76.5 -182.5t-185.5 -75.5h-979q-108 0 -184.5 75.5
t-76.5 182.5v990q0 107 76.5 182.5t184.5 75.5zM1401 1161q0 52 -37 87.5t-91 35.5h-833q-53 0 -90 -35.5t-37 -87.5v-878q0 -51 37.5 -87t89.5 -36h833q53 0 90.5 36t37.5 87v878z" />
    <glyph glyph-name="uni1F140" unicode="Q&#x20de;" 
d="M1186 324h-223l-24 53q-39 -9 -82 -9q-151 0 -248.5 95.5t-97.5 261.5t97.5 261.5t248.5 95.5t248.5 -95.5t97.5 -261.5q0 -174 -107 -271zM857 556q11 0 21 3l-39 89h102l10 -14q19 36 19 91q0 82 -32 125.5t-81 43.5t-81 -43.5t-32 -125.5t32 -125.5t81 -43.5z
M367 1475h979q109 0 185.5 -75.5t76.5 -182.5v-990q0 -107 -76.5 -182.5t-185.5 -75.5h-979q-108 0 -184.5 75.5t-76.5 182.5v990q0 107 76.5 182.5t184.5 75.5zM1401 1161q0 52 -37 87.5t-91 35.5h-833q-53 0 -90 -35.5t-37 -87.5v-878q0 -51 37.5 -87t89.5 -36h833
q53 0 90.5 36t37.5 87v878z" />
    <glyph glyph-name="uni1F141" unicode="R&#x20de;" 
d="M893 1072q138 0 213.5 -60t75.5 -169q0 -72 -36 -122.5t-100 -70.5l151 -270h-241l-111 228h-68v-228h-211v692h327zM777 756h92q37 0 58.5 19t21.5 54q0 36 -20.5 55t-58.5 19h-93v-147zM367 1475h979q109 0 185.5 -75.5t76.5 -182.5v-990q0 -107 -76.5 -182.5
t-185.5 -75.5h-979q-108 0 -184.5 75.5t-76.5 182.5v990q0 107 76.5 182.5t184.5 75.5zM1401 1161q0 52 -37 87.5t-91 35.5h-833q-53 0 -90 -35.5t-37 -87.5v-878q0 -51 37.5 -87t89.5 -36h833q53 0 90.5 36t37.5 87v878z" />
    <glyph glyph-name="uni1F142" unicode="S&#x20de;" 
d="M548 587h222q4 -25 28.5 -40t62.5 -15q40 0 63 14.5t23 39.5q0 21 -21 31.5t-84 20.5l-76 12q-101 15 -155 67t-54 135q0 104 81.5 166.5t217.5 62.5q126 0 206 -57t88 -154h-215q-11 51 -80 51q-34 0 -54 -13.5t-20 -35.5q0 -21 21.5 -33t77.5 -19l87 -14
q200 -30 200 -201q0 -108 -84.5 -172t-227.5 -64q-139 0 -220.5 57.5t-86.5 160.5zM367 1475h979q109 0 185.5 -75.5t76.5 -182.5v-990q0 -107 -76.5 -182.5t-185.5 -75.5h-979q-108 0 -184.5 75.5t-76.5 182.5v990q0 107 76.5 182.5t184.5 75.5zM1401 1161q0 52 -37 87.5
t-91 35.5h-833q-53 0 -90 -35.5t-37 -87.5v-878q0 -51 37.5 -87t89.5 -36h833q53 0 90.5 36t37.5 87v878z" />
    <glyph glyph-name="uni1F143" unicode="T&#x20de;" 
d="M978 360h-242v502h-187v191h616v-191h-187v-502zM367 1475h979q109 0 185.5 -75.5t76.5 -182.5v-990q0 -107 -76.5 -182.5t-185.5 -75.5h-979q-108 0 -184.5 75.5t-76.5 182.5v990q0 107 76.5 182.5t184.5 75.5zM1401 1161q0 52 -37 87.5t-91 35.5h-833q-53 0 -90 -35.5
t-37 -87.5v-878q0 -51 37.5 -87t89.5 -36h833q53 0 90.5 36t37.5 87v878z" />
    <glyph glyph-name="uni1F144" unicode="U&#x20de;" 
d="M857 536q38 0 62 23t24 61v433h230v-454q0 -108 -87.5 -179t-228.5 -71t-228.5 71t-87.5 179v454h230v-433q0 -38 23.5 -61t62.5 -23zM367 1475h979q109 0 185.5 -75.5t76.5 -182.5v-990q0 -107 -76.5 -182.5t-185.5 -75.5h-979q-108 0 -184.5 75.5t-76.5 182.5v990
q0 107 76.5 182.5t184.5 75.5zM1401 1161q0 52 -37 87.5t-91 35.5h-833q-53 0 -90 -35.5t-37 -87.5v-878q0 -51 37.5 -87t89.5 -36h833q53 0 90.5 36t37.5 87v878z" />
    <glyph glyph-name="uni1F145" unicode="V&#x20de;" 
d="M695 353l-194 692h256l96 -493h8l96 493h255l-193 -692h-324zM367 1475h979q109 0 185.5 -75.5t76.5 -182.5v-990q0 -107 -76.5 -182.5t-185.5 -75.5h-979q-108 0 -184.5 75.5t-76.5 182.5v990q0 107 76.5 182.5t184.5 75.5zM1401 1161q0 52 -37 87.5t-91 35.5h-833
q-53 0 -90 -35.5t-37 -87.5v-878q0 -51 37.5 -87t89.5 -36h833q53 0 90.5 36t37.5 87v878z" />
    <glyph glyph-name="uni1F146" unicode="W&#x20de;" 
d="M853 758l-85 -398h-195l-145 693h198l62 -440h7l85 440h154l85 -440h7l62 440h197l-144 -693h-195l-86 398h-7zM367 1475h979q109 0 185.5 -75.5t76.5 -182.5v-990q0 -107 -76.5 -182.5t-185.5 -75.5h-979q-108 0 -184.5 75.5t-76.5 182.5v990q0 107 76.5 182.5
t184.5 75.5zM1401 1161q0 52 -37 87.5t-91 35.5h-833q-53 0 -90 -35.5t-37 -87.5v-878q0 -51 37.5 -87t89.5 -36h833q53 0 90.5 36t37.5 87v878z" />
    <glyph glyph-name="uni1F147" unicode="X&#x20de;" 
d="M1201 1072l-207 -347l207 -345h-244l-100 215h-7l-98 -215h-255l213 346l-213 346h258l97 -216h7l100 216h242zM367 1475h979q109 0 185.5 -75.5t76.5 -182.5v-990q0 -107 -76.5 -182.5t-185.5 -75.5h-979q-108 0 -184.5 75.5t-76.5 182.5v990q0 107 76.5 182.5
t184.5 75.5zM1401 1161q0 52 -37 87.5t-91 35.5h-833q-53 0 -90 -35.5t-37 -87.5v-878q0 -51 37.5 -87t89.5 -36h833q53 0 90.5 36t37.5 87v878z" />
    <glyph glyph-name="uni1F148" unicode="Y&#x20de;" 
d="M982 360h-251v206l-234 487h259l98 -265h7l97 265h259l-235 -487v-206zM367 1475h979q109 0 185.5 -75.5t76.5 -182.5v-990q0 -107 -76.5 -182.5t-185.5 -75.5h-979q-108 0 -184.5 75.5t-76.5 182.5v990q0 107 76.5 182.5t184.5 75.5zM1401 1161q0 52 -37 87.5t-91 35.5
h-833q-53 0 -90 -35.5t-37 -87.5v-878q0 -51 37.5 -87t89.5 -36h833q53 0 90.5 36t37.5 87v878z" />
    <glyph glyph-name="uni1F149" unicode="Z&#x20de;" 
d="M580 380v148l267 352v8h-272v184h557v-149l-269 -351v-9h279v-183h-562zM367 1475h979q109 0 185.5 -75.5t76.5 -182.5v-990q0 -107 -76.5 -182.5t-185.5 -75.5h-979q-108 0 -184.5 75.5t-76.5 182.5v990q0 107 76.5 182.5t184.5 75.5zM1401 1161q0 52 -37 87.5t-91 35.5
h-833q-53 0 -90 -35.5t-37 -87.5v-878q0 -51 37.5 -87t89.5 -36h833q53 0 90.5 36t37.5 87v878z" />
    <glyph glyph-name="uni1F150" unicode="A&#x20dd;&#x25cf;" 
d="M933 661h-152l72 288h7zM723 379l30 121h208l31 -121h253l-230 746h-316l-230 -746h254zM857 -55q-157 0 -301 62t-248 166t-166 248t-62 301t62 301t166 248t248 165.5t301 61.5q105 0 205.5 -28t185.5 -78t157 -122t122 -157t78 -185.5t28 -205.5q0 -157 -61.5 -301
t-165.5 -248t-248 -166t-301 -62z" />
    <glyph glyph-name="uni1F151" unicode="B&#x20dd;&#x25cf;" 
d="M542 351h410q111 0 183 58t72 149q0 78 -45.5 126.5t-129.5 60.5v5q67 13 105.5 56.5t38.5 106.5q0 86 -62.5 135.5t-173.5 49.5h-398v-747zM774 942h86q40 0 62.5 -18.5t22.5 -50.5q0 -71 -95 -71h-76v140zM773 672h91q46 0 71.5 -20.5t25.5 -56.5q0 -79 -106 -79h-82
v156zM857 -55q-157 0 -301 62t-248 166t-166 248t-62 301t62 301t166 248t248 165.5t301 61.5q105 0 205.5 -28t185.5 -78t157 -122t122 -157t78 -185.5t28 -205.5q0 -157 -61.5 -301t-165.5 -248t-248 -166t-301 -62z" />
    <glyph glyph-name="uni1F152" unicode="C&#x20dd;&#x25cf;" 
d="M974 639q-2 -40 -34.5 -67.5t-77.5 -27.5q-57 0 -90 46.5t-33 132.5q0 85 33 131.5t90 46.5q45 0 78 -28t35 -69h232q-5 134 -101 218.5t-247 84.5q-162 0 -267 -103t-105 -281t105 -281.5t267 -103.5q150 0 246 84t101 217h-232zM857 -55q-157 0 -301 62t-248 166
t-166 248t-62 301t62 301t166 248t248 165.5t301 61.5q105 0 205.5 -28t185.5 -78t157 -122t122 -157t78 -185.5t28 -205.5q0 -157 -61.5 -301t-165.5 -248t-248 -166t-301 -62z" />
    <glyph glyph-name="uni1F153" unicode="D&#x20dd;&#x25cf;" 
d="M543 1098v-747h345q173 0 262.5 94.5t89.5 278.5t-89.5 279t-262.5 95h-345zM783 915h60q76 0 109 -44.5t33 -146.5t-33 -146t-109 -44h-60v381zM857 -55q-157 0 -301 62t-248 166t-166 248t-62 301t62 301t166 248t248 165.5t301 61.5q105 0 205.5 -28t185.5 -78
t157 -122t122 -157t78 -185.5t28 -205.5q0 -157 -61.5 -301t-165.5 -248t-248 -166t-301 -62z" />
    <glyph glyph-name="uni1F154" unicode="E&#x20dd;&#x25cf;" 
d="M1146 527h-323v119h301v158h-301v117h323v177h-560v-747h560v176zM857 -55q-157 0 -301 62t-248 166t-166 248t-62 301t62 301t166 248t248 165.5t301 61.5q105 0 205.5 -28t185.5 -78t157 -122t122 -157t78 -185.5t28 -205.5q0 -157 -61.5 -301t-165.5 -248t-248 -166
t-301 -62z" />
    <glyph glyph-name="uni1F155" unicode="F&#x20dd;&#x25cf;" 
d="M853 351v250h272v191h-272v118h301v188h-558v-747h257zM857 -55q-157 0 -301 62t-248 166t-166 248t-62 301t62 301t166 248t248 165.5t301 61.5q105 0 205.5 -28t185.5 -78t157 -122t122 -157t78 -185.5t28 -205.5q0 -157 -61.5 -301t-165.5 -248t-248 -166t-301 -62z
" />
    <glyph glyph-name="uni1F156" unicode="G&#x20dd;&#x25cf;" 
d="M976 612q0 -39 -30 -64.5t-83 -25.5q-55 0 -89.5 55.5t-34.5 145.5q0 88 34 140t90 52q45 0 72.5 -20.5t31.5 -55.5h241q-16 121 -112 194.5t-236 73.5q-168 0 -271 -106t-103 -278q0 -173 103 -279t270 -106q156 0 252.5 88t96.5 219v130h-346v-153h114v-10zM857 -55
q-157 0 -301 62t-248 166t-166 248t-62 301t62 301t166 248t248 165.5t301 61.5q105 0 205.5 -28t185.5 -78t157 -122t122 -157t78 -185.5t28 -205.5q0 -157 -61.5 -301t-165.5 -248t-248 -166t-301 -62z" />
    <glyph glyph-name="uni1F157" unicode="H&#x20dd;&#x25cf;" 
d="M1201 351v747h-237v-272h-213v272h-238v-747h238v267h213v-267h237zM857 -55q-157 0 -301 62t-248 166t-166 248t-62 301t62 301t166 248t248 165.5t301 61.5q105 0 205.5 -28t185.5 -78t157 -122t122 -157t78 -185.5t28 -205.5q0 -157 -61.5 -301t-165.5 -248t-248 -166
t-301 -62z" />
    <glyph glyph-name="uni1F158" unicode="I&#x20dd;&#x25cf;" 
d="M998 351v747h-281v-747h281zM857 -55q-157 0 -301 62t-248 166t-166 248t-62 301t62 301t166 248t248 165.5t301 61.5q105 0 205.5 -28t185.5 -78t157 -122t122 -157t78 -185.5t28 -205.5q0 -157 -61.5 -301t-165.5 -248t-248 -166t-301 -62z" />
    <glyph glyph-name="uni1F159" unicode="J&#x20dd;&#x25cf;" 
d="M512 636q0 -144 87 -228t234 -84q145 0 228.5 81.5t83.5 222.5v455h-262v-448q0 -80 -56 -80q-61 0 -61 81h-254zM857 -55q-157 0 -301 62t-248 166t-166 248t-62 301t62 301t166 248t248 165.5t301 61.5q105 0 205.5 -28t185.5 -78t157 -122t122 -157t78 -185.5
t28 -205.5q0 -157 -61.5 -301t-165.5 -248t-248 -166t-301 -62z" />
    <glyph glyph-name="uni1F15A" unicode="K&#x20dd;&#x25cf;" 
d="M1226 1098h-275l-196 -287h-6v287h-230v-747h230v176l56 69l138 -245h287l-233 399zM857 -55q-157 0 -301 62t-248 166t-166 248t-62 301t62 301t166 248t248 165.5t301 61.5q105 0 205.5 -28t185.5 -78t157 -122t122 -157t78 -185.5t28 -205.5q0 -157 -61.5 -301
t-165.5 -248t-248 -166t-301 -62z" />
    <glyph glyph-name="uni1F15B" unicode="L&#x20dd;&#x25cf;" 
d="M1163 580h-287v533h-265v-747h552v214zM857 -55q-157 0 -301 62t-248 166t-166 248t-62 301t62 301t166 248t248 165.5t301 61.5q105 0 205.5 -28t185.5 -78t157 -122t122 -157t78 -185.5t28 -205.5q0 -157 -61.5 -301t-165.5 -248t-248 -166t-301 -62z" />
    <glyph glyph-name="uni1F15C" unicode="M&#x20dd;&#x25cf;" 
d="M656 351v454h9l127 -403h127l131 402h9v-453h185v747h-239l-145 -450h-5l-145 450h-239v-747h185zM857 -55q-157 0 -301 62t-248 166t-166 248t-62 301t62 301t166 248t248 165.5t301 61.5q105 0 205.5 -28t185.5 -78t157 -122t122 -157t78 -185.5t28 -205.5
q0 -157 -61.5 -301t-165.5 -248t-248 -166t-301 -62z" />
    <glyph glyph-name="uni1F15D" unicode="N&#x20dd;&#x25cf;" 
d="M741 351v375h6l267 -375h179v747h-220v-370h-6l-266 370h-180v-747h220zM857 -55q-157 0 -301 62t-248 166t-166 248t-62 301t62 301t166 248t248 165.5t301 61.5q105 0 205.5 -28t185.5 -78t157 -122t122 -157t78 -185.5t28 -205.5q0 -157 -61.5 -301t-165.5 -248
t-248 -166t-301 -62z" />
    <glyph glyph-name="uni1F15E" unicode="O&#x20dd;&#x25cf;" 
d="M857 543q-53 0 -87 46t-34 134t34 133.5t87 45.5t86.5 -45.5t33.5 -133.5t-33.5 -134t-86.5 -46zM857 338q163 0 268 102.5t105 282.5q0 179 -105 281.5t-268 102.5t-268 -102.5t-105 -281.5q0 -180 105 -282.5t268 -102.5zM857 -55q-157 0 -301 62t-248 166t-166 248
t-62 301t62 301t166 248t248 165.5t301 61.5q105 0 205.5 -28t185.5 -78t157 -122t122 -157t78 -185.5t28 -205.5q0 -157 -61.5 -301t-165.5 -248t-248 -166t-301 -62z" />
    <glyph glyph-name="uni1F15F" unicode="P&#x20dd;&#x25cf;" 
d="M933 1098h-359v-747h263v183h93q133 0 212 75.5t79 202.5q0 130 -78.5 208t-209.5 78zM978 812q0 -99 -93 -99h-72v200h72q44 0 68.5 -26t24.5 -75zM857 -55q-157 0 -301 62t-248 166t-166 248t-62 301t62 301t166 248t248 165.5t301 61.5q105 0 205.5 -28t185.5 -78
t157 -122t122 -157t78 -185.5t28 -205.5q0 -157 -61.5 -301t-165.5 -248t-248 -166t-301 -62z" />
    <glyph glyph-name="uni1F160" unicode="Q&#x20dd;&#x25cf;" 
d="M1214 291l-97 142q113 105 113 290q0 179 -105 281.5t-268 102.5t-268 -102.5t-105 -281.5q0 -180 105 -282.5t268 -102.5q49 0 89 10l24 -57h244zM857 543q-53 0 -87 46t-34 134t34 133.5t87 45.5t86.5 -45.5t33.5 -133.5q0 -59 -18 -96l-11 15h-113l41 -97
q-6 -2 -19 -2zM857 -55q-157 0 -301 62t-248 166t-166 248t-62 301t62 301t166 248t248 165.5t301 61.5q105 0 205.5 -28t185.5 -78t157 -122t122 -157t78 -185.5t28 -205.5q0 -157 -61.5 -301t-165.5 -248t-248 -166t-301 -62z" />
    <glyph glyph-name="uni1F161" unicode="R&#x20dd;&#x25cf;" 
d="M761 754v163h105q89 0 89 -82q0 -38 -24 -59.5t-66 -21.5h-104zM890 1098h-353v-747h233v244h67l118 -244h266l-162 289q69 25 106.5 79.5t37.5 129.5q0 121 -81 185t-232 64zM857 -55q-157 0 -301 62t-248 166t-166 248t-62 301t62 301t166 248t248 165.5t301 61.5
q105 0 205.5 -28t185.5 -78t157 -122t122 -157t78 -185.5t28 -205.5q0 -157 -61.5 -301t-165.5 -248t-248 -166t-301 -62z" />
    <glyph glyph-name="uni1F162" unicode="S&#x20dd;&#x25cf;" 
d="M523 578q6 -112 93.5 -174.5t238.5 -62.5q153 0 245 69.5t92 185.5q0 188 -218 218l-93 14q-59 9 -82 21.5t-23 34.5q0 24 21 38t58 14q72 0 85 -55h234q-10 105 -96 167t-222 62q-147 0 -235.5 -67.5t-88.5 -179.5q0 -90 58.5 -146t167.5 -73l83 -13q67 -10 89 -21.5
t22 -34.5q0 -25 -24.5 -40.5t-66.5 -15.5q-40 0 -66 16t-30 43h-242zM857 -55q-157 0 -301 62t-248 166t-166 248t-62 301t62 301t166 248t248 165.5t301 61.5q105 0 205.5 -28t185.5 -78t157 -122t122 -157t78 -185.5t28 -205.5q0 -157 -61.5 -301t-165.5 -248t-248 -166
t-301 -62z" />
    <glyph glyph-name="uni1F163" unicode="T&#x20dd;&#x25cf;" 
d="M989 327v538h201v209h-666v-209h201v-538h264zM857 -55q-157 0 -301 62t-248 166t-166 248t-62 301t62 301t166 248t248 165.5t301 61.5q105 0 205.5 -28t185.5 -78t157 -122t122 -157t78 -185.5t28 -205.5q0 -157 -61.5 -301t-165.5 -248t-248 -166t-301 -62z" />
    <glyph glyph-name="uni1F164" unicode="U&#x20dd;&#x25cf;" 
d="M857 522q-40 0 -64 23.5t-24 61.5v468h-254v-506q0 -114 94 -184t248 -70t248 70t94 184v506h-253v-468q0 -38 -24.5 -61.5t-64.5 -23.5zM857 -55q-157 0 -301 62t-248 166t-166 248t-62 301t62 301t166 248t248 165.5t301 61.5q105 0 205.5 -28t185.5 -78t157 -122
t122 -157t78 -185.5t28 -205.5q0 -157 -61.5 -301t-165.5 -248t-248 -166t-301 -62z" />
    <glyph glyph-name="uni1F165" unicode="V&#x20dd;&#x25cf;" 
d="M1031 320l209 746h-276l-104 -524h-7l-103 524h-276l209 -746h348zM857 -55q-157 0 -301 62t-248 166t-166 248t-62 301t62 301t166 248t248 165.5t301 61.5q105 0 205.5 -28t185.5 -78t157 -122t122 -157t78 -185.5t28 -205.5q0 -157 -61.5 -301t-165.5 -248t-248 -166
t-301 -62z" />
    <glyph glyph-name="uni1F166" unicode="W&#x20dd;&#x25cf;" 
d="M856 747h2l91 -420h216l156 747h-219l-65 -470h-7l-90 470h-166l-91 -470h-5l-66 470h-219l157 -747h215zM857 -55q-157 0 -301 62t-248 166t-166 248t-62 301t62 301t166 248t248 165.5t301 61.5q105 0 205.5 -28t185.5 -78t157 -122t122 -157t78 -185.5t28 -205.5
q0 -157 -61.5 -301t-165.5 -248t-248 -166t-301 -62z" />
    <glyph glyph-name="uni1F167" unicode="X&#x20dd;&#x25cf;" 
d="M1229 1098h-263l-105 -229h-8l-104 229h-279l228 -373l-229 -374h276l105 230h7l107 -230h264l-221 373zM857 -55q-157 0 -301 62t-248 166t-166 248t-62 301t62 301t166 248t248 165.5t301 61.5q105 0 205.5 -28t185.5 -78t157 -122t122 -157t78 -185.5t28 -205.5
q0 -157 -61.5 -301t-165.5 -248t-248 -166t-301 -62z" />
    <glyph glyph-name="uni1F168" unicode="Y&#x20dd;&#x25cf;" 
d="M720 331h275v222l254 525h-285l-105 -283h-4l-104 283h-286l255 -525v-222zM857 -55q-157 0 -301 62t-248 166t-166 248t-62 301t62 301t166 248t248 165.5t301 61.5q105 0 205.5 -28t185.5 -78t157 -122t122 -157t78 -185.5t28 -205.5q0 -157 -61.5 -301t-165.5 -248
t-248 -166t-301 -62z" />
    <glyph glyph-name="uni1F169" unicode="Z&#x20dd;&#x25cf;" 
d="M557 351h609v203h-289v7l278 374v163h-603v-204h280v-5l-275 -375v-163zM857 -55q-157 0 -301 62t-248 166t-166 248t-62 301t62 301t166 248t248 165.5t301 61.5q105 0 205.5 -28t185.5 -78t157 -122t122 -157t78 -185.5t28 -205.5q0 -157 -61.5 -301t-165.5 -248
t-248 -166t-301 -62z" />
    <glyph glyph-name="uni1F170" unicode="A&#x20de;&#x25a0;" 
d="M933 656h-152l72 288h7zM723 374l30 122h208l31 -122h253l-230 747h-316l-230 -747h254zM367 1475h979q109 0 185.5 -75.5t76.5 -182.5v-990q0 -107 -76.5 -182.5t-185.5 -75.5h-979q-108 0 -184.5 75.5t-76.5 182.5v990q0 107 76.5 182.5t184.5 75.5z" />
    <glyph glyph-name="uni1F171" unicode="B&#x20de;&#x25a0;" 
d="M542 351h410q111 0 183 58t72 149q0 78 -46 126.5t-129 60.5v5q66 12 105 55.5t39 107.5q0 87 -62.5 136t-173.5 49h-398v-747zM774 942h86q40 0 62.5 -18.5t22.5 -50.5q0 -71 -95 -71h-76v140zM773 672h91q46 0 71.5 -20.5t25.5 -56.5q0 -79 -106 -79h-82v156zM367 1475
h979q109 0 185.5 -75.5t76.5 -182.5v-990q0 -107 -76.5 -182.5t-185.5 -75.5h-979q-108 0 -184.5 75.5t-76.5 182.5v990q0 107 76.5 182.5t184.5 75.5z" />
    <glyph glyph-name="uni1F172" unicode="C&#x20de;&#x25a0;" 
d="M974 639q-2 -40 -34.5 -67.5t-77.5 -27.5q-57 0 -90 46.5t-33 132.5q0 85 33 131.5t90 46.5q45 0 78 -28t35 -69h232q-5 134 -101 218.5t-247 84.5q-162 0 -267 -103t-105 -281t105 -281.5t267 -103.5q150 0 246 84t101 217h-232zM367 1475h979q109 0 185.5 -75.5
t76.5 -182.5v-990q0 -107 -76.5 -182.5t-185.5 -75.5h-979q-108 0 -184.5 75.5t-76.5 182.5v990q0 107 76.5 182.5t184.5 75.5z" />
    <glyph glyph-name="uni1F173" unicode="D&#x20de;&#x25a0;" 
d="M537 1098v-747h346q173 0 262 95t89 278t-89 278.5t-262 95.5h-346zM777 915h61q76 0 109 -44.5t33 -146.5t-33 -146t-109 -44h-61v381zM367 1475h979q109 0 185.5 -75.5t76.5 -182.5v-990q0 -107 -76.5 -182.5t-185.5 -75.5h-979q-108 0 -184.5 75.5t-76.5 182.5v990
q0 107 76.5 182.5t184.5 75.5z" />
    <glyph glyph-name="uni1F174" unicode="E&#x20de;&#x25a0;" 
d="M1146 527h-323v119h301v158h-301v117h323v177h-560v-747h560v176zM367 1475h979q109 0 185.5 -75.5t76.5 -182.5v-990q0 -107 -76.5 -182.5t-185.5 -75.5h-979q-108 0 -184.5 75.5t-76.5 182.5v990q0 107 76.5 182.5t184.5 75.5z" />
    <glyph glyph-name="uni1F175" unicode="F&#x20de;&#x25a0;" 
d="M853 351v250h272v191h-272v118h301v188h-558v-747h257zM367 1475h979q109 0 185.5 -75.5t76.5 -182.5v-990q0 -107 -76.5 -182.5t-185.5 -75.5h-979q-108 0 -184.5 75.5t-76.5 182.5v990q0 107 76.5 182.5t184.5 75.5z" />
    <glyph glyph-name="uni1F176" unicode="G&#x20de;&#x25a0;" 
d="M976 612q0 -39 -30 -64.5t-83 -25.5q-55 0 -89.5 55.5t-34.5 145.5q0 88 34 140t90 52q45 0 72.5 -20.5t31.5 -55.5h241q-16 121 -112 194.5t-236 73.5q-168 0 -271 -106t-103 -278q0 -173 103 -279t270 -106q156 0 252.5 88t96.5 219v130h-346v-153h114v-10zM367 1475
h979q109 0 185.5 -75.5t76.5 -182.5v-990q0 -107 -76.5 -182.5t-185.5 -75.5h-979q-108 0 -184.5 75.5t-76.5 182.5v990q0 107 76.5 182.5t184.5 75.5z" />
    <glyph glyph-name="uni1F177" unicode="H&#x20de;&#x25a0;" 
d="M1201 351v747h-237v-272h-213v272h-238v-747h238v267h213v-267h237zM367 1475h979q109 0 185.5 -75.5t76.5 -182.5v-990q0 -107 -76.5 -182.5t-185.5 -75.5h-979q-108 0 -184.5 75.5t-76.5 182.5v990q0 107 76.5 182.5t184.5 75.5z" />
    <glyph glyph-name="uni1F178" unicode="I&#x20de;&#x25a0;" 
d="M998 351v747h-281v-747h281zM367 1475h979q109 0 185.5 -75.5t76.5 -182.5v-990q0 -107 -76.5 -182.5t-185.5 -75.5h-979q-108 0 -184.5 75.5t-76.5 182.5v990q0 107 76.5 182.5t184.5 75.5z" />
    <glyph glyph-name="uni1F179" unicode="J&#x20de;&#x25a0;" 
d="M512 636q0 -143 86.5 -227.5t234.5 -84.5q145 0 228.5 81t83.5 223v455h-262v-448q0 -80 -56 -80q-61 0 -61 81h-254zM367 1475h979q109 0 185.5 -75.5t76.5 -182.5v-990q0 -107 -76.5 -182.5t-185.5 -75.5h-979q-108 0 -184.5 75.5t-76.5 182.5v990q0 107 76.5 182.5
t184.5 75.5z" />
    <glyph glyph-name="uni1F17A" unicode="K&#x20de;&#x25a0;" 
d="M1226 1098h-275l-196 -287h-6v287h-230v-747h230v176l56 69l138 -245h287q-12 17 -116.5 199.5t-116.5 199.5zM367 1475h979q109 0 185.5 -75.5t76.5 -182.5v-990q0 -107 -76.5 -182.5t-185.5 -75.5h-979q-108 0 -184.5 75.5t-76.5 182.5v990q0 107 76.5 182.5
t184.5 75.5z" />
    <glyph glyph-name="uni1F17B" unicode="L&#x20de;&#x25a0;" 
d="M1165 580h-286v533h-266v-747h552v214zM367 1475h979q109 0 185.5 -75.5t76.5 -182.5v-990q0 -107 -76.5 -182.5t-185.5 -75.5h-979q-108 0 -184.5 75.5t-76.5 182.5v990q0 107 76.5 182.5t184.5 75.5z" />
    <glyph glyph-name="uni1F17C" unicode="M&#x20de;&#x25a0;" 
d="M656 351v454h9l127 -403h127l131 402h9v-453h185v747h-239l-145 -450h-5l-145 450h-239v-747h185zM367 1475h979q109 0 185.5 -75.5t76.5 -182.5v-990q0 -107 -76.5 -182.5t-185.5 -75.5h-979q-108 0 -184.5 75.5t-76.5 182.5v990q0 107 76.5 182.5t184.5 75.5z" />
    <glyph glyph-name="uni1F17D" unicode="N&#x20de;&#x25a0;" 
d="M741 351v375h6l267 -375h179v747h-220v-370h-6l-266 370h-180v-747h220zM367 1475h979q109 0 185.5 -75.5t76.5 -182.5v-990q0 -107 -76.5 -182.5t-185.5 -75.5h-979q-108 0 -184.5 75.5t-76.5 182.5v990q0 107 76.5 182.5t184.5 75.5z" />
    <glyph glyph-name="uni1F17E" unicode="O&#x20de;&#x25a0;" 
d="M857 543q-53 0 -87 46t-34 134t34 133.5t87 45.5t86.5 -45.5t33.5 -133.5t-33.5 -134t-86.5 -46zM857 338q163 0 268 102.5t105 282.5q0 179 -105 281.5t-268 102.5t-268 -102.5t-105 -281.5q0 -180 105 -282.5t268 -102.5zM367 1475h979q109 0 185.5 -75.5t76.5 -182.5
v-990q0 -107 -76.5 -182.5t-185.5 -75.5h-979q-108 0 -184.5 75.5t-76.5 182.5v990q0 107 76.5 182.5t184.5 75.5z" />
    <glyph glyph-name="uni1F17F" unicode="P&#x20de;&#x25a0;" 
d="M933 1098h-359v-747h263v183h93q134 0 212.5 75.5t78.5 202.5q0 130 -78 208t-210 78zM978 812q0 -99 -93 -99h-72v200h72q44 0 68.5 -26t24.5 -75zM367 1475h979q109 0 185.5 -75.5t76.5 -182.5v-990q0 -107 -76.5 -182.5t-185.5 -75.5h-979q-108 0 -184.5 75.5
t-76.5 182.5v990q0 107 76.5 182.5t184.5 75.5z" />
    <glyph glyph-name="uni1F180" unicode="Q&#x20de;&#x25a0;" 
d="M1214 291l-97 142q113 105 113 290q0 179 -105 281.5t-268 102.5t-268 -102.5t-105 -281.5q0 -180 105 -282.5t268 -102.5q49 0 89 10l24 -57h244zM857 543q-53 0 -87 46t-34 134t34 133.5t87 45.5t86.5 -45.5t33.5 -133.5q0 -59 -18 -96l-11 15h-113l41 -97
q-6 -2 -19 -2zM367 1475h979q109 0 185.5 -75.5t76.5 -182.5v-990q0 -107 -76.5 -182.5t-185.5 -75.5h-979q-108 0 -184.5 75.5t-76.5 182.5v990q0 107 76.5 182.5t184.5 75.5z" />
    <glyph glyph-name="uni1F181" unicode="R&#x20de;&#x25a0;" 
d="M761 754v163h105q89 0 89 -82q0 -38 -24 -59.5t-66 -21.5h-104zM890 1098h-353v-747h233v244h67l118 -244h266l-162 289q68 24 106 78.5t38 130.5q0 120 -81 184.5t-232 64.5zM367 1475h979q109 0 185.5 -75.5t76.5 -182.5v-990q0 -107 -76.5 -182.5t-185.5 -75.5h-979
q-108 0 -184.5 75.5t-76.5 182.5v990q0 107 76.5 182.5t184.5 75.5z" />
    <glyph glyph-name="uni1F182" unicode="S&#x20de;&#x25a0;" 
d="M523 578q6 -112 93.5 -174.5t238.5 -62.5q153 0 245 69.5t92 185.5q0 188 -218 218l-93 14q-59 9 -82 21.5t-23 34.5q0 24 21 38t58 14q72 0 85 -55h234q-10 105 -96 167t-222 62q-147 0 -235.5 -67.5t-88.5 -179.5q0 -90 58.5 -146t167.5 -73l83 -13q67 -10 89 -21.5
t22 -34.5q0 -25 -24.5 -40.5t-66.5 -15.5q-40 0 -66 16t-30 43h-242zM367 1475h979q109 0 185.5 -75.5t76.5 -182.5v-990q0 -107 -76.5 -182.5t-185.5 -75.5h-979q-108 0 -184.5 75.5t-76.5 182.5v990q0 107 76.5 182.5t184.5 75.5z" />
    <glyph glyph-name="uni1F183" unicode="T&#x20de;&#x25a0;" 
d="M989 332v538h201v209h-666v-209h201v-538h264zM367 1475h979q109 0 185.5 -75.5t76.5 -182.5v-990q0 -107 -76.5 -182.5t-185.5 -75.5h-979q-108 0 -184.5 75.5t-76.5 182.5v990q0 107 76.5 182.5t184.5 75.5z" />
    <glyph glyph-name="uni1F184" unicode="U&#x20de;&#x25a0;" 
d="M857 527q-40 0 -64 23.5t-24 61.5v468h-254v-506q0 -114 94 -184t248 -70t248 70t94 184v506h-253v-468q0 -39 -24.5 -62t-64.5 -23zM367 1475h979q109 0 185.5 -75.5t76.5 -182.5v-990q0 -107 -76.5 -182.5t-185.5 -75.5h-979q-108 0 -184.5 75.5t-76.5 182.5v990
q0 107 76.5 182.5t184.5 75.5z" />
    <glyph glyph-name="uni1F185" unicode="V&#x20de;&#x25a0;" 
d="M1031 325l209 746h-276l-104 -525h-7l-103 525h-276l209 -746h348zM367 1475h979q109 0 185.5 -75.5t76.5 -182.5v-990q0 -107 -76.5 -182.5t-185.5 -75.5h-979q-108 0 -184.5 75.5t-76.5 182.5v990q0 107 76.5 182.5t184.5 75.5z" />
    <glyph glyph-name="uni1F186" unicode="W&#x20de;&#x25a0;" 
d="M856 752h2l91 -420h216l156 747h-219l-65 -471h-7l-90 471h-166l-91 -471h-5l-66 471h-219l157 -747h215zM367 1475h979q109 0 185.5 -75.5t76.5 -182.5v-990q0 -107 -76.5 -182.5t-185.5 -75.5h-979q-108 0 -184.5 75.5t-76.5 182.5v990q0 107 76.5 182.5t184.5 75.5z
" />
    <glyph glyph-name="uni1F187" unicode="X&#x20de;&#x25a0;" 
d="M1229 1098h-263l-105 -229h-8l-104 229h-279l228 -373l-229 -374h276l105 230h7l107 -230h264l-221 373zM367 1475h979q109 0 185.5 -75.5t76.5 -182.5v-990q0 -107 -76.5 -182.5t-185.5 -75.5h-979q-108 0 -184.5 75.5t-76.5 182.5v990q0 107 76.5 182.5t184.5 75.5z
" />
    <glyph glyph-name="uni1F188" unicode="Y&#x20de;&#x25a0;" 
d="M720 332h275v222l254 525h-285l-105 -283h-4l-104 283h-286l255 -525v-222zM367 1475h979q109 0 185.5 -75.5t76.5 -182.5v-990q0 -107 -76.5 -182.5t-185.5 -75.5h-979q-108 0 -184.5 75.5t-76.5 182.5v990q0 107 76.5 182.5t184.5 75.5z" />
    <glyph glyph-name="uni1F189" unicode="Z&#x20de;&#x25a0;" 
d="M557 351h609v203h-289v7l278 374v163h-603v-204h280v-5l-275 -375v-163zM367 1475h979q109 0 185.5 -75.5t76.5 -182.5v-990q0 -107 -76.5 -182.5t-185.5 -75.5h-979q-108 0 -184.5 75.5t-76.5 182.5v990q0 107 76.5 182.5t184.5 75.5z" />
    <glyph glyph-name="plus.uc.whitecircle" unicode="&#x2b;&#x20dd;" 
d="M960 625v-207h-207v207h-202v198h202v206h207v-206h203v-198h-203zM857 144q156 0 286.5 77t205.5 209.5t75 289.5t-75 289.5t-205.5 209.5t-286.5 77t-286.5 -77t-205.5 -209.5t-75 -289.5t75 -289.5t205.5 -209.5t286.5 -77zM857 -57q-214 0 -392.5 103t-281.5 281.5
t-103 392.5t103 392.5t281.5 281.5t392.5 103t392.5 -103t281 -281.5t102.5 -392.5q0 -160 -60.5 -304t-164 -247.5t-247.5 -164.5t-304 -61z" />
    <glyph glyph-name="minus.uc.whitecircle" unicode="&#x2212;&#x20dd;" 
d="M1127 620h-540v207h540v-207zM857 144q156 0 286.5 77t205.5 209.5t75 289.5t-75 289.5t-205.5 209.5t-286.5 77t-286.5 -77t-205.5 -209.5t-75 -289.5t75 -289.5t205.5 -209.5t286.5 -77zM857 -57q-214 0 -392.5 103t-281.5 281.5t-103 392.5t103 392.5t281.5 281.5
t392.5 103t392.5 -103t281 -281.5t102.5 -392.5q0 -160 -60.5 -304t-164 -247.5t-247.5 -164.5t-304 -61z" />
    <glyph glyph-name="multiply.uc.whitecircle" unicode="&#xd7;&#x20dd;" 
d="M856 870l157 155l148 -147l-157 -155l157 -155l-148 -144l-157 154l-158 -154l-145 144l157 155l-157 157l145 145zM857 144q156 0 286.5 77t205.5 209.5t75 289.5t-75 289.5t-205.5 209.5t-286.5 77t-286.5 -77t-205.5 -209.5t-75 -289.5t75 -289.5t205.5 -209.5
t286.5 -77zM857 -57q-214 0 -392.5 103t-281.5 281.5t-103 392.5t103 392.5t281.5 281.5t392.5 103t392.5 -103t281 -281.5t102.5 -392.5q0 -160 -60.5 -304t-164 -247.5t-247.5 -164.5t-304 -61z" />
    <glyph glyph-name="divide.uc.whitecircle" unicode="&#xf7;&#x20dd;" 
d="M1127 646h-540v156h540v-156zM750 955q0 41 30.5 68t76.5 27t77 -27t31 -68q0 -40 -31 -66.5t-77 -26.5t-76.5 26.5t-30.5 66.5zM750 493q0 41 30.5 67.5t76.5 26.5t77 -26.5t31 -67.5t-31 -67.5t-77 -26.5t-76.5 26.5t-30.5 67.5zM857 144q156 0 286.5 77t205.5 209.5
t75 289.5t-75 289.5t-205.5 209.5t-286.5 77t-286.5 -77t-205.5 -209.5t-75 -289.5t75 -289.5t205.5 -209.5t286.5 -77zM857 -57q-214 0 -392.5 103t-281.5 281.5t-103 392.5t103 392.5t281.5 281.5t392.5 103t392.5 -103t281 -281.5t102.5 -392.5q0 -160 -60.5 -304
t-164 -247.5t-247.5 -164.5t-304 -61z" />
    <glyph glyph-name="equal.uc.whitecircle" unicode="&#x3d;&#x20dd;" 
d="M1146 494h-578v179h578v-179zM1146 772h-578v179h578v-179zM857 144q156 0 286.5 77t205.5 209.5t75 289.5t-75 289.5t-205.5 209.5t-286.5 77t-286.5 -77t-205.5 -209.5t-75 -289.5t75 -289.5t205.5 -209.5t286.5 -77zM857 -57q-214 0 -392.5 103t-281.5 281.5
t-103 392.5t103 392.5t281.5 281.5t392.5 103t392.5 -103t281 -281.5t102.5 -392.5q0 -160 -60.5 -304t-164 -247.5t-247.5 -164.5t-304 -61z" />
    <glyph glyph-name="greater.uc.whitecircle" unicode="&#x3e;&#x20dd;" 
d="M1155 784v-123l-542 -255v215l256 100v9l-256 90v222zM857 144q156 0 286.5 77t205.5 209.5t75 289.5t-75 289.5t-205.5 209.5t-286.5 77t-286.5 -77t-205.5 -209.5t-75 -289.5t75 -289.5t205.5 -209.5t286.5 -77zM857 -57q-214 0 -392.5 103t-281.5 281.5t-103 392.5
t103 392.5t281.5 281.5t392.5 103t392.5 -103t281 -281.5t102.5 -392.5q0 -160 -60.5 -304t-164 -247.5t-247.5 -164.5t-304 -61z" />
    <glyph glyph-name="less.uc.whitecircle" unicode="&#x3c;&#x20dd;" 
d="M559 661v123l542 258v-222l-257 -90v-9l257 -100v-215zM857 144q156 0 286.5 77t205.5 209.5t75 289.5t-75 289.5t-205.5 209.5t-286.5 77t-286.5 -77t-205.5 -209.5t-75 -289.5t75 -289.5t205.5 -209.5t286.5 -77zM857 -57q-214 0 -392.5 103t-281.5 281.5t-103 392.5
t103 392.5t281.5 281.5t392.5 103t392.5 -103t281 -281.5t102.5 -392.5q0 -160 -60.5 -304t-164 -247.5t-247.5 -164.5t-304 -61z" />
    <glyph glyph-name="numbersign.whitecircle" unicode="&#x30;&#x20dd;" 
d="M1155 767h-93l-14 -76h94l-29 -150h-97l-33 -163h-160l31 163h-72l-32 -163h-161l33 163h-92l30 150h92l16 76h-95l28 151h94l30 153h161l-31 -153h74l28 153h162l-29 -153h93zM816 781l-23 -113h105l21 113h-103zM857 144q156 0 286.5 77t205.5 209.5t75 289.5
t-75 289.5t-205.5 209.5t-286.5 77t-286.5 -77t-205.5 -209.5t-75 -289.5t75 -289.5t205.5 -209.5t286.5 -77zM857 -57q-214 0 -392.5 103t-281.5 281.5t-103 392.5t103 392.5t281.5 281.5t392.5 103t392.5 -103t281 -281.5t102.5 -392.5q0 -160 -60.5 -304t-164 -247.5
t-247.5 -164.5t-304 -61z" />
    <glyph glyph-name="uni25BC.whitecircle" unicode="&#x25bc;&#x20dd;" 
d="M1192 947l-335 -581l-335 581h670zM857 144q156 0 286.5 77t205.5 209.5t75 289.5t-75 289.5t-205.5 209.5t-286.5 77t-286.5 -77t-205.5 -209.5t-75 -289.5t75 -289.5t205.5 -209.5t286.5 -77zM857 -57q-214 0 -392.5 103t-281.5 281.5t-103 392.5t103 392.5
t281.5 281.5t392.5 103t392.5 -103t281 -281.5t102.5 -392.5q0 -160 -60.5 -304t-164 -247.5t-247.5 -164.5t-304 -61z" />
    <glyph glyph-name="uni25B2.whitecircle" unicode="&#x25b2;&#x20dd;" 
d="M1192 500h-670l335 581zM857 144q156 0 286.5 77t205.5 209.5t75 289.5t-75 289.5t-205.5 209.5t-286.5 77t-286.5 -77t-205.5 -209.5t-75 -289.5t75 -289.5t205.5 -209.5t286.5 -77zM857 -57q-214 0 -392.5 103t-281.5 281.5t-103 392.5t103 392.5t281.5 281.5
t392.5 103t392.5 -103t281 -281.5t102.5 -392.5q0 -160 -60.5 -304t-164 -247.5t-247.5 -164.5t-304 -61z" />
    <glyph glyph-name="uni25C0.whitecircle" unicode="&#x25c0;&#x20dd;" 
d="M1077 392l-582 335l582 335v-670zM857 144q156 0 286.5 77t205.5 209.5t75 289.5t-75 289.5t-205.5 209.5t-286.5 77t-286.5 -77t-205.5 -209.5t-75 -289.5t75 -289.5t205.5 -209.5t286.5 -77zM857 -57q-214 0 -392.5 103t-281.5 281.5t-103 392.5t103 392.5t281.5 281.5
t392.5 103t392.5 -103t281 -281.5t102.5 -392.5q0 -160 -60.5 -304t-164 -247.5t-247.5 -164.5t-304 -61z" />
    <glyph glyph-name="uni25B6.whitecircle" unicode="&#x25b6;&#x20dd;" 
d="M637 392v670l581 -335zM857 144q156 0 286.5 77t205.5 209.5t75 289.5t-75 289.5t-205.5 209.5t-286.5 77t-286.5 -77t-205.5 -209.5t-75 -289.5t75 -289.5t205.5 -209.5t286.5 -77zM857 -57q-214 0 -392.5 103t-281.5 281.5t-103 392.5t103 392.5t281.5 281.5t392.5 103
t392.5 -103t281 -281.5t102.5 -392.5q0 -160 -60.5 -304t-164 -247.5t-247.5 -164.5t-304 -61z" />
    <glyph glyph-name="question.whitecircle" unicode="&#x3f;&#x20dd;" 
d="M723 464q0 46 33.5 71.5t94.5 25.5q59 0 93.5 -26t34.5 -71q0 -46 -33.5 -71t-94.5 -25t-94.5 25t-33.5 71zM743 604q-3 12 -3 31q-1 91 83 144q46 29 64 47.5t18 38.5q0 22 -14 34.5t-36 12.5q-21 0 -35.5 -15.5t-16.5 -38.5h-205q-1 110 72.5 166t206.5 56
q116 0 187.5 -55.5t71.5 -150.5q0 -56 -24.5 -94.5t-75.5 -70.5q-63 -40 -79 -56t-16 -42v-7h-198zM857 144q156 0 286.5 77t205.5 209.5t75 289.5t-75 289.5t-205.5 209.5t-286.5 77t-286.5 -77t-205.5 -209.5t-75 -289.5t75 -289.5t205.5 -209.5t286.5 -77zM857 -57
q-214 0 -392.5 103t-281.5 281.5t-103 392.5t103 392.5t281.5 281.5t392.5 103t392.5 -103t281 -281.5t102.5 -392.5q0 -160 -60.5 -304t-164 -247.5t-247.5 -164.5t-304 -61z" />
    <glyph glyph-name="exclam.whitecircle" unicode="&#x21;&#x20dd;" 
d="M734 464q0 46 34 71.5t95 25.5q60 0 93.5 -26t33.5 -71q0 -46 -33.5 -71t-93.5 -25q-61 0 -95 25t-34 71zM737 1072h251l-27 -458h-198zM857 144q156 0 286.5 77t205.5 209.5t75 289.5t-75 289.5t-205.5 209.5t-286.5 77t-286.5 -77t-205.5 -209.5t-75 -289.5t75 -289.5
t205.5 -209.5t286.5 -77zM857 -57q-214 0 -392.5 103t-281.5 281.5t-103 392.5t103 392.5t281.5 281.5t392.5 103t392.5 -103t281 -281.5t102.5 -392.5q0 -160 -60.5 -304t-164 -247.5t-247.5 -164.5t-304 -61z" />
    <glyph glyph-name="uni2717.whitecircle" unicode="&#x2717;&#x20dd;" 
d="M860 862l209 207l138 -138l-207 -208l207 -208l-138 -139l-209 207l-209 -208l-138 138l209 210l-208 208l138 139zM857 144q156 0 286.5 77t205.5 209.5t75 289.5t-75 289.5t-205.5 209.5t-286.5 77t-286.5 -77t-205.5 -209.5t-75 -289.5t75 -289.5t205.5 -209.5
t286.5 -77zM857 -57q-214 0 -392.5 103t-281.5 281.5t-103 392.5t103 392.5t281.5 281.5t392.5 103t392.5 -103t281 -281.5t102.5 -392.5q0 -160 -60.5 -304t-164 -247.5t-247.5 -164.5t-304 -61z" />
    <glyph glyph-name="uni2713.whitecircle" unicode="&#x2713;&#x20dd;" 
d="M1287 890l-541 -528l-323 318l144 141l183 -182l397 397zM857 144q156 0 286.5 77t205.5 209.5t75 289.5t-75 289.5t-205.5 209.5t-286.5 77t-286.5 -77t-205.5 -209.5t-75 -289.5t75 -289.5t205.5 -209.5t286.5 -77zM857 -57q-214 0 -392.5 103t-281.5 281.5t-103 392.5
t103 392.5t281.5 281.5t392.5 103t392.5 -103t281 -281.5t102.5 -392.5q0 -160 -60.5 -304t-164 -247.5t-247.5 -164.5t-304 -61z" />
    <glyph glyph-name="zero.whitesquare" unicode="&#x30;&#x20de;" 
d="M857 546q80 0 80 178q0 177 -80 177q-81 0 -81 -177q0 -178 81 -178zM854 368q-139 0 -220.5 95t-81.5 261q0 165 81.5 260t220.5 95t223 -95t84 -260t-84 -260.5t-223 -95.5zM367 1475h979q109 0 185.5 -75.5t76.5 -182.5v-990q0 -107 -76.5 -182.5t-185.5 -75.5h-979
q-108 0 -184.5 75.5t-76.5 182.5v990q0 107 76.5 182.5t184.5 75.5zM1401 1161q0 52 -37 87.5t-91 35.5h-833q-53 0 -90 -35.5t-37 -87.5v-878q0 -51 37.5 -87t89.5 -36h833q53 0 90.5 36t37.5 87v878z" />
    <glyph glyph-name="one.whitesquare" unicode="&#x31;&#x20de;" 
d="M1013 380h-238v489h-8l-157 -106v201l165 108h238v-692zM367 1475h979q109 0 185.5 -75.5t76.5 -182.5v-990q0 -107 -76.5 -182.5t-185.5 -75.5h-979q-108 0 -184.5 75.5t-76.5 182.5v990q0 107 76.5 182.5t184.5 75.5zM1401 1161q0 52 -37 87.5t-91 35.5h-833
q-53 0 -90 -35.5t-37 -87.5v-878q0 -51 37.5 -87t89.5 -36h833q53 0 90.5 36t37.5 87v878z" />
    <glyph glyph-name="two.whitesquare" unicode="&#x32;&#x20de;" 
d="M790 832h-219v2q0 110 78 179t210 69q122 0 198.5 -59.5t76.5 -152.5q0 -53 -32 -101.5t-102 -110.5l-94 -88v-8h238v-183h-557v146l240 218q41 38 57 60.5t16 46.5q0 23 -14.5 36.5t-38.5 13.5q-27 0 -42.5 -18t-14.5 -48v-2zM367 1475h979q109 0 185.5 -75.5
t76.5 -182.5v-990q0 -107 -76.5 -182.5t-185.5 -75.5h-979q-108 0 -184.5 75.5t-76.5 182.5v990q0 107 76.5 182.5t184.5 75.5zM1401 1161q0 52 -37 87.5t-91 35.5h-833q-53 0 -90 -35.5t-37 -87.5v-878q0 -51 37.5 -87t89.5 -36h833q53 0 90.5 36t37.5 87v878z" />
    <glyph glyph-name="three.whitesquare" unicode="&#x33;&#x20de;" 
d="M784 644v169h66q30 0 48.5 15.5t18.5 40.5q0 22 -18.5 35t-48.5 13q-34 0 -54.5 -19.5t-20.5 -50.5h-216q5 113 80 174t215 61q130 -1 207.5 -52t78.5 -136q0 -53 -39.5 -95t-90.5 -49v-11q60 -5 103 -50t43 -112q1 -96 -82 -152t-221 -56q-136 0 -216.5 64.5
t-81.5 170.5h216q1 -29 22 -47t57 -18t56.5 14t20.5 38q0 25 -20 39t-56 14h-67zM367 1475h979q109 0 185.5 -75.5t76.5 -182.5v-990q0 -107 -76.5 -182.5t-185.5 -75.5h-979q-108 0 -184.5 75.5t-76.5 182.5v990q0 107 76.5 182.5t184.5 75.5zM1401 1161q0 52 -37 87.5
t-91 35.5h-833q-53 0 -90 -35.5t-37 -87.5v-878q0 -51 37.5 -87t89.5 -36h833q53 0 90.5 36t37.5 87v878z" />
    <glyph glyph-name="four.whitesquare" unicode="&#x34;&#x20de;" 
d="M758 1072h314v-417h97v-172h-97v-103h-191v103h-343v175q80 168 220 414zM737 655h144v279h-7q-80 -141 -137 -278v-1zM367 1475h979q109 0 185.5 -75.5t76.5 -182.5v-990q0 -107 -76.5 -182.5t-185.5 -75.5h-979q-108 0 -184.5 75.5t-76.5 182.5v990q0 107 76.5 182.5
t184.5 75.5zM1401 1161q0 52 -37 87.5t-91 35.5h-833q-53 0 -90 -35.5t-37 -87.5v-878q0 -51 37.5 -87t89.5 -36h833q53 0 90.5 36t37.5 87v878z" />
    <glyph glyph-name="five.whitesquare" unicode="&#x35;&#x20de;" 
d="M577 602h218q4 -25 25 -39.5t49 -14.5q31 0 53.5 22t22.5 56q0 31 -22.5 52.5t-54.5 21.5q-48 0 -68 -39h-211l26 418h505v-163h-331l-9 -129h11q16 29 57.5 48t94.5 19q102 0 164.5 -59.5t62.5 -161.5q0 -118 -81 -187.5t-220 -69.5q-129 0 -210 63.5t-82 162.5z
M367 1475h979q109 0 185.5 -75.5t76.5 -182.5v-990q0 -107 -76.5 -182.5t-185.5 -75.5h-979q-108 0 -184.5 75.5t-76.5 182.5v990q0 107 76.5 182.5t184.5 75.5zM1401 1161q0 52 -37 87.5t-91 35.5h-833q-53 0 -90 -35.5t-37 -87.5v-878q0 -51 37.5 -87t89.5 -36h833
q53 0 90.5 36t37.5 87v878z" />
    <glyph glyph-name="six.whitesquare" unicode="&#x36;&#x20de;" 
d="M1148 879h-211q-21 38 -67 38q-48 0 -74.5 -48.5t-18.5 -121.5h8q41 86 155 86q100 0 161 -57t61 -156q0 -115 -81 -183.5t-214 -68.5q-180 0 -263 134q-56 88 -56 227q0 167 85.5 260t234.5 93q114 0 192 -58t88 -145zM789 615q0 -34 21.5 -55t54.5 -21t54.5 20.5
t21.5 55.5q0 33 -22 53.5t-54 20.5q-33 0 -54.5 -20.5t-21.5 -53.5zM367 1475h979q109 0 185.5 -75.5t76.5 -182.5v-990q0 -107 -76.5 -182.5t-185.5 -75.5h-979q-108 0 -184.5 75.5t-76.5 182.5v990q0 107 76.5 182.5t184.5 75.5zM1401 1161q0 52 -37 87.5t-91 35.5h-833
q-53 0 -90 -35.5t-37 -87.5v-878q0 -51 37.5 -87t89.5 -36h833q53 0 90.5 36t37.5 87v878z" />
    <glyph glyph-name="seven.whitesquare" unicode="&#x37;&#x20de;" 
d="M574 1072h570v-185l-261 -507h-254l275 500v9h-330v183zM367 1475h979q109 0 185.5 -75.5t76.5 -182.5v-990q0 -107 -76.5 -182.5t-185.5 -75.5h-979q-108 0 -184.5 75.5t-76.5 182.5v990q0 107 76.5 182.5t184.5 75.5zM1401 1161q0 52 -37 87.5t-91 35.5h-833
q-53 0 -90 -35.5t-37 -87.5v-878q0 -51 37.5 -87t89.5 -36h833q53 0 90.5 36t37.5 87v878z" />
    <glyph glyph-name="eight.whitesquare" unicode="&#x38;&#x20de;" 
d="M857 520q34 0 56 21t22 53q0 33 -22 54.5t-56 21.5t-56.5 -22t-22.5 -54t22.5 -53t56.5 -21zM857 807q28 0 46 17.5t18 43.5t-18.5 44t-45.5 18t-46 -18t-19 -44t18.5 -43.5t46.5 -17.5zM856 368q-148 0 -234 56t-86 152q0 67 43 111t116 53v10q-130 35 -130 145
q0 86 79 136.5t213 50.5t213 -50.5t79 -136.5q0 -111 -130 -145v-10q73 -9 116 -53t43 -110q0 -97 -86.5 -153t-235.5 -56zM367 1475h979q109 0 185.5 -75.5t76.5 -182.5v-990q0 -107 -76.5 -182.5t-185.5 -75.5h-979q-108 0 -184.5 75.5t-76.5 182.5v990q0 107 76.5 182.5
t184.5 75.5zM1401 1161q0 52 -37 87.5t-91 35.5h-833q-53 0 -90 -35.5t-37 -87.5v-878q0 -51 37.5 -87t89.5 -36h833q53 0 90.5 36t37.5 87v878z" />
    <glyph glyph-name="nine.whitesquare" unicode="&#x39;&#x20de;" 
d="M551 832q0 110 84 180.5t214 70.5q146 0 231 -91.5t85 -263.5q0 -171 -84 -265.5t-236 -94.5q-114 0 -191.5 58t-87.5 146h214q20 -37 65 -37q51 0 77 48.5t17 119.5h-8q-39 -86 -153 -86q-102 0 -164.5 58t-62.5 157zM927 836q0 34 -21.5 55t-54.5 21q-32 0 -53.5 -21
t-21.5 -55q0 -35 21 -55t55 -20q33 0 54 20.5t21 54.5zM367 1475h979q109 0 185.5 -75.5t76.5 -182.5v-990q0 -107 -76.5 -182.5t-185.5 -75.5h-979q-108 0 -184.5 75.5t-76.5 182.5v990q0 107 76.5 182.5t184.5 75.5zM1401 1161q0 52 -37 87.5t-91 35.5h-833
q-53 0 -90 -35.5t-37 -87.5v-878q0 -51 37.5 -87t89.5 -36h833q53 0 90.5 36t37.5 87v878z" />
    <glyph glyph-name="plus.uc.whitesquare" unicode="&#x2b;&#x20de;" 
d="M960 625v-207h-207v207h-202v198h202v206h207v-206h203v-198h-203zM367 1475h979q109 0 185.5 -75.5t76.5 -182.5v-990q0 -107 -76.5 -182.5t-185.5 -75.5h-979q-108 0 -184.5 75.5t-76.5 182.5v990q0 107 76.5 182.5t184.5 75.5zM1401 1161q0 52 -37 87.5t-91 35.5h-833
q-53 0 -90 -35.5t-37 -87.5v-878q0 -51 37.5 -87t89.5 -36h833q53 0 90.5 36t37.5 87v878z" />
    <glyph glyph-name="minus.uc.whitesquare" unicode="&#x2212;&#x20de;" 
d="M1127 620h-540v207h540v-207zM367 1475h979q109 0 185.5 -75.5t76.5 -182.5v-990q0 -107 -76.5 -182.5t-185.5 -75.5h-979q-108 0 -184.5 75.5t-76.5 182.5v990q0 107 76.5 182.5t184.5 75.5zM1401 1161q0 52 -37 87.5t-91 35.5h-833q-53 0 -90 -35.5t-37 -87.5v-878
q0 -51 37.5 -87t89.5 -36h833q53 0 90.5 36t37.5 87v878z" />
    <glyph glyph-name="multiply.uc.whitesquare" unicode="&#xd7;&#x20de;" 
d="M856 870l158 156l146 -146l-157 -156l157 -156l-146 -145l-158 156l-158 -156l-146 145l158 156l-158 156l146 146zM367 1475h979q109 0 185.5 -75.5t76.5 -182.5v-990q0 -107 -76.5 -182.5t-185.5 -75.5h-979q-108 0 -184.5 75.5t-76.5 182.5v990q0 107 76.5 182.5
t184.5 75.5zM1401 1161q0 52 -37 87.5t-91 35.5h-833q-53 0 -90 -35.5t-37 -87.5v-878q0 -51 37.5 -87t89.5 -36h833q53 0 90.5 36t37.5 87v878z" />
    <glyph glyph-name="divide.uc.whitesquare" unicode="&#xf7;&#x20de;" 
d="M1127 646h-540v156h540v-156zM750 955q0 41 30.5 68t76.5 27t77 -27t31 -68q0 -40 -31 -66.5t-77 -26.5t-76.5 26.5t-30.5 66.5zM750 493q0 41 30.5 67.5t76.5 26.5t77 -26.5t31 -67.5t-31 -67.5t-77 -26.5t-76.5 26.5t-30.5 67.5zM367 1475h979q109 0 185.5 -75.5
t76.5 -182.5v-990q0 -107 -76.5 -182.5t-185.5 -75.5h-979q-108 0 -184.5 75.5t-76.5 182.5v990q0 107 76.5 182.5t184.5 75.5zM1401 1161q0 52 -37 87.5t-91 35.5h-833q-53 0 -90 -35.5t-37 -87.5v-878q0 -51 37.5 -87t89.5 -36h833q53 0 90.5 36t37.5 87v878z" />
    <glyph glyph-name="equal.uc.whitesquare" unicode="&#x3d;&#x20de;" 
d="M1146 494h-578v179h578v-179zM1146 772h-578v179h578v-179zM367 1475h979q109 0 185.5 -75.5t76.5 -182.5v-990q0 -107 -76.5 -182.5t-185.5 -75.5h-979q-108 0 -184.5 75.5t-76.5 182.5v990q0 107 76.5 182.5t184.5 75.5zM1401 1161q0 52 -37 87.5t-91 35.5h-833
q-53 0 -90 -35.5t-37 -87.5v-878q0 -51 37.5 -87t89.5 -36h833q53 0 90.5 36t37.5 87v878z" />
    <glyph glyph-name="greater.uc.whitesquare" unicode="&#x3e;&#x20de;" 
d="M1155 784v-123l-542 -255v215l256 100v9l-256 90v222zM367 1475h979q109 0 185.5 -75.5t76.5 -182.5v-990q0 -107 -76.5 -182.5t-185.5 -75.5h-979q-108 0 -184.5 75.5t-76.5 182.5v990q0 107 76.5 182.5t184.5 75.5zM1401 1161q0 52 -37 87.5t-91 35.5h-833
q-53 0 -90 -35.5t-37 -87.5v-878q0 -51 37.5 -87t89.5 -36h833q53 0 90.5 36t37.5 87v878z" />
    <glyph glyph-name="less.uc.whitesquare" unicode="&#x3c;&#x20de;" 
d="M559 661v123l542 258v-222l-257 -90v-9l257 -100v-215zM367 1475h979q109 0 185.5 -75.5t76.5 -182.5v-990q0 -107 -76.5 -182.5t-185.5 -75.5h-979q-108 0 -184.5 75.5t-76.5 182.5v990q0 107 76.5 182.5t184.5 75.5zM1401 1161q0 52 -37 87.5t-91 35.5h-833
q-53 0 -90 -35.5t-37 -87.5v-878q0 -51 37.5 -87t89.5 -36h833q53 0 90.5 36t37.5 87v878z" />
    <glyph glyph-name="numbersign.whitesquare" unicode="&#x23;&#x20de;" 
d="M1155 767h-93l-14 -76h94l-29 -150h-97l-33 -163h-160l31 163h-72l-32 -163h-161l33 163h-92l30 150h92l16 76h-95l28 151h94l30 153h161l-31 -153h74l28 153h162l-29 -153h93zM816 781l-23 -113h105l21 113h-103zM367 1475h979q109 0 185.5 -75.5t76.5 -182.5v-990
q0 -107 -76.5 -182.5t-185.5 -75.5h-979q-108 0 -184.5 75.5t-76.5 182.5v990q0 107 76.5 182.5t184.5 75.5zM1401 1161q0 52 -37 87.5t-91 35.5h-833q-53 0 -90 -35.5t-37 -87.5v-878q0 -51 37.5 -87t89.5 -36h833q53 0 90.5 36t37.5 87v878z" />
    <glyph glyph-name="uni25BC.whitesquare" unicode="&#x25bc;&#x20de;" 
d="M1192 947l-335 -581l-335 581h670zM367 1475h979q109 0 185.5 -75.5t76.5 -182.5v-990q0 -107 -76.5 -182.5t-185.5 -75.5h-979q-108 0 -184.5 75.5t-76.5 182.5v990q0 107 76.5 182.5t184.5 75.5zM1401 1161q0 52 -37 87.5t-91 35.5h-833q-53 0 -90 -35.5t-37 -87.5
v-878q0 -51 37.5 -87t89.5 -36h833q53 0 90.5 36t37.5 87v878z" />
    <glyph glyph-name="uni25B2.whitesquare" unicode="&#x25b2;&#x20de;" 
d="M1192 500h-670l335 581zM367 1475h979q109 0 185.5 -75.5t76.5 -182.5v-990q0 -107 -76.5 -182.5t-185.5 -75.5h-979q-108 0 -184.5 75.5t-76.5 182.5v990q0 107 76.5 182.5t184.5 75.5zM1401 1161q0 52 -37 87.5t-91 35.5h-833q-53 0 -90 -35.5t-37 -87.5v-878
q0 -51 37.5 -87t89.5 -36h833q53 0 90.5 36t37.5 87v878z" />
    <glyph glyph-name="uni25C0.whitesquare" unicode="&#x25c0;&#x20de;" 
d="M1077 392l-582 335l582 335v-670zM367 1475h979q109 0 185.5 -75.5t76.5 -182.5v-990q0 -107 -76.5 -182.5t-185.5 -75.5h-979q-108 0 -184.5 75.5t-76.5 182.5v990q0 107 76.5 182.5t184.5 75.5zM1401 1161q0 52 -37 87.5t-91 35.5h-833q-53 0 -90 -35.5t-37 -87.5v-878
q0 -51 37.5 -87t89.5 -36h833q53 0 90.5 36t37.5 87v878z" />
    <glyph glyph-name="uni25B6.whitesquare" unicode="&#x25b6;&#x20de;" 
d="M637 392v670l581 -335zM367 1475h979q109 0 185.5 -75.5t76.5 -182.5v-990q0 -107 -76.5 -182.5t-185.5 -75.5h-979q-108 0 -184.5 75.5t-76.5 182.5v990q0 107 76.5 182.5t184.5 75.5zM1401 1161q0 52 -37 87.5t-91 35.5h-833q-53 0 -90 -35.5t-37 -87.5v-878
q0 -51 37.5 -87t89.5 -36h833q53 0 90.5 36t37.5 87v878z" />
    <glyph glyph-name="question.whitesquare" unicode="&#x3f;&#x20de;" 
d="M723 464q0 46 33.5 71.5t94.5 25.5q59 0 93.5 -26t34.5 -71q0 -46 -33.5 -71t-94.5 -25t-94.5 25t-33.5 71zM598 858q-1 110 72.5 166t206.5 56q116 0 187.5 -55.5t71.5 -150.5q0 -56 -24.5 -94.5t-75.5 -70.5q-63 -40 -79 -56t-16 -42v-7h-198q-3 12 -3 31q-1 91 83 144
q46 29 64 47.5t18 38.5q0 22 -14 34.5t-36 12.5q-21 0 -35.5 -15.5t-16.5 -38.5h-205zM367 1475h979q109 0 185.5 -75.5t76.5 -182.5v-990q0 -107 -76.5 -182.5t-185.5 -75.5h-979q-108 0 -184.5 75.5t-76.5 182.5v990q0 107 76.5 182.5t184.5 75.5zM1401 1161
q0 52 -37 87.5t-91 35.5h-833q-53 0 -90 -35.5t-37 -87.5v-878q0 -51 37.5 -87t89.5 -36h833q53 0 90.5 36t37.5 87v878z" />
    <glyph glyph-name="exclam.whitesquare" unicode="&#x21;&#x20de;" 
d="M734 464q0 46 34 71.5t95 25.5q60 0 93.5 -26t33.5 -71q0 -46 -33.5 -71t-93.5 -25q-61 0 -95 25t-34 71zM737 1072h251l-27 -458h-198zM367 1475h979q109 0 185.5 -75.5t76.5 -182.5v-990q0 -107 -76.5 -182.5t-185.5 -75.5h-979q-108 0 -184.5 75.5t-76.5 182.5v990
q0 107 76.5 182.5t184.5 75.5zM1401 1161q0 52 -37 87.5t-91 35.5h-833q-53 0 -90 -35.5t-37 -87.5v-878q0 -51 37.5 -87t89.5 -36h833q53 0 90.5 36t37.5 87v878z" />
    <glyph glyph-name="uni2717.whitesquare" unicode="&#x2717;&#x20de;" 
d="M860 862l209 207l138 -138l-207 -208l207 -208l-138 -139l-209 207l-209 -208l-138 138l209 210l-208 208l138 139zM367 1475h979q109 0 185.5 -75.5t76.5 -182.5v-990q0 -107 -76.5 -182.5t-185.5 -75.5h-979q-108 0 -184.5 75.5t-76.5 182.5v990q0 107 76.5 182.5
t184.5 75.5zM1401 1161q0 52 -37 87.5t-91 35.5h-833q-53 0 -90 -35.5t-37 -87.5v-878q0 -51 37.5 -87t89.5 -36h833q53 0 90.5 36t37.5 87v878z" />
    <glyph glyph-name="uni2713.whitesquare" unicode="&#x2713;&#x20de;" 
d="M1287 890l-541 -528l-323 318l144 141l183 -182l397 397zM367 1475h979q109 0 185.5 -75.5t76.5 -182.5v-990q0 -107 -76.5 -182.5t-185.5 -75.5h-979q-108 0 -184.5 75.5t-76.5 182.5v990q0 107 76.5 182.5t184.5 75.5zM1401 1161q0 52 -37 87.5t-91 35.5h-833
q-53 0 -90 -35.5t-37 -87.5v-878q0 -51 37.5 -87t89.5 -36h833q53 0 90.5 36t37.5 87v878z" />
    <glyph glyph-name="plus.uc.blackcircle" unicode="&#x2b;&#x20dd;&#x25cf;" 
d="M969 615h217v215h-217v221h-225v-221h-217v-215h217v-222h225v222zM857 -55q-157 0 -301 62t-248 166t-166 248t-62 301t62 301t166 248t248 165.5t301 61.5q105 0 205.5 -28t185.5 -78t157 -122t122 -157t78 -185.5t28 -205.5q0 -157 -61.5 -301t-165.5 -248t-248 -166
t-301 -62z" />
    <glyph glyph-name="minus.uc.blackcircle" unicode="&#x2212;&#x20dd;&#x25cf;" 
d="M1148 610v223h-583v-223h583zM857 -55q-157 0 -301 62t-248 166t-166 248t-62 301t62 301t166 248t248 165.5t301 61.5q105 0 205.5 -28t185.5 -78t157 -122t122 -157t78 -185.5t28 -205.5q0 -157 -61.5 -301t-165.5 -248t-248 -166t-301 -62z" />
    <glyph glyph-name="multiply.uc.blackcircle" unicode="&#xd7;&#x20dd;&#x25cf;" 
d="M856 881l-170 168l-159 -158l170 -168l-170 -168l159 -158l170 168l170 -168l159 158l-170 168l170 168l-159 158zM857 -55q-157 0 -301 62t-248 166t-166 248t-62 301t62 301t166 248t248 165.5t301 61.5q105 0 205.5 -28t185.5 -78t157 -122t122 -157t78 -185.5
t28 -205.5q0 -157 -61.5 -301t-165.5 -248t-248 -166t-301 -62z" />
    <glyph glyph-name="divide.uc.blackcircle" unicode="&#xf7;&#x20dd;&#x25cf;" 
d="M740 971q0 -44 33.5 -72.5t83.5 -28.5t83 28.5t33 72.5q0 45 -33 74t-83 29t-83.5 -29t-33.5 -74zM1148 637v170h-583v-170h583zM740 474q0 -44 33.5 -73t83.5 -29t83 29t33 73q0 45 -33 74t-83 29t-83.5 -29t-33.5 -74zM857 -55q-157 0 -301 62t-248 166t-166 248
t-62 301t62 301t166 248t248 165.5t301 61.5q105 0 205.5 -28t185.5 -78t157 -122t122 -157t78 -185.5t28 -205.5q0 -157 -61.5 -301t-165.5 -248t-248 -166t-301 -62z" />
    <glyph glyph-name="equal.uc.blackcircle" unicode="&#x3d;&#x20dd;&#x25cf;" 
d="M1168 778v191h-623v-191h623zM1168 473v190h-623v-190h623zM857 -55q-157 0 -301 62t-248 166t-166 248t-62 301t62 301t166 248t248 165.5t301 61.5q105 0 205.5 -28t185.5 -78t157 -122t122 -157t78 -185.5t28 -205.5q0 -157 -61.5 -301t-165.5 -248t-248 -166
t-301 -62z" />
    <glyph glyph-name="greater.uc.blackcircle" unicode="&#x3e;&#x20dd;&#x25cf;" 
d="M1173 788l-586 280v-229l275 -114l1 -4l-276 -124v-220l586 276v135zM857 -55q-157 0 -301 62t-248 166t-166 248t-62 301t62 301t166 248t248 165.5t301 61.5q105 0 205.5 -28t185.5 -78t157 -122t122 -157t78 -185.5t28 -205.5q0 -157 -61.5 -301t-165.5 -248
t-248 -166t-301 -62z" />
    <glyph glyph-name="less.uc.blackcircle" unicode="&#x3c;&#x20dd;&#x25cf;" 
d="M539 653l586 -276v220l-276 124v4l276 114v229l-586 -280v-135zM857 -55q-157 0 -301 62t-248 166t-166 248t-62 301t62 301t166 248t248 165.5t301 61.5q105 0 205.5 -28t185.5 -78t157 -122t122 -157t78 -185.5t28 -205.5q0 -157 -61.5 -301t-165.5 -248t-248 -166
t-301 -62z" />
    <glyph glyph-name="numbersign.blackcircle" unicode="&#x23;&#x20dd;&#x25cf;" 
d="M803 794h129l-27 -139h-130zM1175 767l33 167h-101l32 164h-181l-30 -164h-72l34 164h-180l-32 -164h-100l-32 -167h102l-16 -74h-98l-34 -168h98l-34 -174h178l36 174h69l-34 -174h179l35 174h104l33 168h-102q2 8 7.5 38t6.5 36h99zM857 -55q-157 0 -301 62t-248 166
t-166 248t-62 301t62 301t166 248t248 165.5t301 61.5q105 0 205.5 -28t185.5 -78t157 -122t122 -157t78 -185.5t28 -205.5q0 -157 -61.5 -301t-165.5 -248t-248 -166t-301 -62z" />
    <glyph glyph-name="uni25BC.blackcircle" unicode="&#x25bc;&#x20dd;&#x25cf;" 
d="M1208 982h-702l351 -608zM857 -55q-157 0 -301 62t-248 166t-166 248t-62 301t62 301t166 248t248 165.5t301 61.5q105 0 205.5 -28t185.5 -78t157 -122t122 -157t78 -185.5t28 -205.5q0 -157 -61.5 -301t-165.5 -248t-248 -166t-301 -62z" />
    <glyph glyph-name="uni25B2.blackcircle" unicode="&#x25b2;&#x20dd;&#x25cf;" 
d="M1208 485l-351 608l-351 -608h702zM857 -55q-157 0 -301 62t-248 166t-166 248t-62 301t62 301t166 248t248 165.5t301 61.5q105 0 205.5 -28t185.5 -78t157 -122t122 -157t78 -185.5t28 -205.5q0 -157 -61.5 -301t-165.5 -248t-248 -166t-301 -62z" />
    <glyph glyph-name="uni25C0.blackcircle" unicode="&#x25c0;&#x20dd;&#x25cf;" 
d="M1090 384v699l-608 -349zM857 -55q-157 0 -301 62t-248 166t-166 248t-62 301t62 301t166 248t248 165.5t301 61.5q105 0 205.5 -28t185.5 -78t157 -122t122 -157t78 -185.5t28 -205.5q0 -157 -61.5 -301t-165.5 -248t-248 -166t-301 -62z" />
    <glyph glyph-name="uni25B6.blackcircle" unicode="&#x25b6;&#x20dd;&#x25cf;" 
d="M624 384l608 350l-608 349v-699zM857 -55q-157 0 -301 62t-248 166t-166 248t-62 301t62 301t166 248t248 165.5t301 61.5q105 0 205.5 -28t185.5 -78t157 -122t122 -157t78 -185.5t28 -205.5q0 -157 -61.5 -301t-165.5 -248t-248 -166t-301 -62z" />
    <glyph glyph-name="question.blackcircle" unicode="&#x3f;&#x20dd;&#x25cf;" 
d="M707 429q0 -52 36 -80t104 -28q66 0 102.5 28.5t36.5 79.5q0 50 -37 78.5t-102 28.5q-68 0 -104 -27.5t-36 -79.5zM728 592h218v8q0 29 14.5 45t68.5 48q74 47 99.5 83.5t25.5 106.5q0 102 -78 164t-202 62q-144 0 -223 -62t-79 -183v-1l231 5q0 30 13.5 47.5t38.5 17.5
q53 0 53 -55q0 -25 -20.5 -43t-55.5 -40.5t-54 -44.5q-55 -52 -54 -122q0 -24 4 -36zM857 -55q-157 0 -301 62t-248 166t-166 248t-62 301t62 301t166 248t248 165.5t301 61.5q105 0 205.5 -28t185.5 -78t157 -122t122 -157t78 -185.5t28 -205.5q0 -157 -61.5 -301
t-165.5 -248t-248 -166t-301 -62z" />
    <glyph glyph-name="exclam.blackcircle" unicode="&#x21;&#x20dd;&#x25cf;" 
d="M722 1100l28 -498h218l30 498h-276zM720 429q0 -51 37 -79t104 -28t103 28t36 79q0 50 -36.5 78.5t-102.5 28.5q-67 0 -104 -28t-37 -79zM857 -55q-157 0 -301 62t-248 166t-166 248t-62 301t62 301t166 248t248 165.5t301 61.5q105 0 205.5 -28t185.5 -78t157 -122
t122 -157t78 -185.5t28 -205.5q0 -157 -61.5 -301t-165.5 -248t-248 -166t-301 -62z" />
    <glyph glyph-name="uni2717.blackcircle" unicode="&#x2717;&#x20dd;&#x25cf;" 
d="M856 870l-222 223l-150 -150l223 -223l-224 -225l150 -150l223 224l223 -222l151 151l-223 222l223 223l-151 150zM857 -55q-157 0 -301 62t-248 166t-166 248t-62 301t62 301t166 248t248 165.5t301 61.5q105 0 205.5 -28t185.5 -78t157 -122t122 -157t78 -185.5
t28 -205.5q0 -157 -61.5 -301t-165.5 -248t-248 -166t-301 -62z" />
    <glyph glyph-name="uni2713.blackcircle" unicode="&#x2713;&#x20dd;&#x25cf;" horiz-adv-x="1772" 
d="M733 351l589 575l-155 161l-430 -431l-199 198l-158 -156zM857 -55q-157 0 -301 62t-248 166t-166 248t-62 301t62 301t166 248t248 165.5t301 61.5q105 0 205.5 -28t185.5 -78t157 -122t122 -157t78 -185.5t28 -205.5q0 -157 -61.5 -301t-165.5 -248t-248 -166t-301 -62
z" />
    <glyph glyph-name="zero.blacksquare" unicode="&#x30;&#x20de;&#x25a0;" 
d="M856 524q-82 0 -82 200q0 199 82 199t82 -199q0 -200 -82 -200zM853 338q151 0 241.5 103t90.5 283q0 179 -90.5 282t-241.5 103t-238.5 -102.5t-87.5 -282.5q0 -181 87.5 -283.5t238.5 -102.5zM367 1475h979q109 0 185.5 -75.5t76.5 -182.5v-990q0 -107 -76.5 -182.5
t-185.5 -75.5h-979q-108 0 -184.5 75.5t-76.5 182.5v990q0 107 76.5 182.5t184.5 75.5z" />
    <glyph glyph-name="one.blacksquare" unicode="&#x31;&#x20de;&#x25a0;" 
d="M1027 351v746h-260l-178 -116v-224l169 113h7v-519h262zM367 1475h979q109 0 185.5 -75.5t76.5 -182.5v-990q0 -107 -76.5 -182.5t-185.5 -75.5h-979q-108 0 -184.5 75.5t-76.5 182.5v990q0 107 76.5 182.5t184.5 75.5z" />
    <glyph glyph-name="two.blacksquare" unicode="&#x32;&#x20de;&#x25a0;" 
d="M774 834v3q0 40 18.5 63t51.5 23q29 0 46.5 -15.5t17.5 -41.5q0 -31 -21.5 -60.5t-78.5 -80.5l-247 -216v-160h602v203h-268v4l105 94q78 66 112.5 119.5t34.5 116.5q0 94 -81.5 158t-203.5 64q-146 0 -231.5 -75t-85.5 -196v-3h229zM367 1475h979q109 0 185.5 -75.5
t76.5 -182.5v-990q0 -107 -76.5 -182.5t-185.5 -75.5h-979q-108 0 -184.5 75.5t-76.5 182.5v990q0 107 76.5 182.5t184.5 75.5z" />
    <glyph glyph-name="three.blacksquare" unicode="&#x33;&#x20de;&#x25a0;" 
d="M773 644h76q39 0 62 -16.5t23 -44.5t-22.5 -44.5t-61.5 -16.5q-40 0 -64.5 19.5t-25.5 52.5h-233q1 -112 90 -183.5t233 -71.5q148 0 238 61.5t90 165.5q-1 70 -47 119t-110 55v8q55 8 96.5 52.5t41.5 103.5q-1 92 -85.5 148.5t-222.5 56.5q-153 -1 -234 -66t-87 -188
h235q0 34 21.5 54t60.5 20q31 0 51 -16.5t21 -40.5q0 -27 -20.5 -43t-54.5 -16h-71v-169zM367 1475h979q109 0 185.5 -75.5t76.5 -182.5v-990q0 -107 -76.5 -182.5t-185.5 -75.5h-979q-108 0 -184.5 75.5t-76.5 182.5v990q0 107 76.5 182.5t184.5 75.5z" />
    <glyph glyph-name="four.blacksquare" unicode="&#x34;&#x20de;&#x25a0;" 
d="M745 1097q-149 -261 -236 -445v-191h367v-110h212v110h103v191h-103v445h-343zM729 652v1q62 141 140 282h7v-283h-147zM367 1475h979q109 0 185.5 -75.5t76.5 -182.5v-990q0 -107 -76.5 -182.5t-185.5 -75.5h-979q-108 0 -184.5 75.5t-76.5 182.5v990q0 107 76.5 182.5
t184.5 75.5z" />
    <glyph glyph-name="five.blacksquare" unicode="&#x35;&#x20de;&#x25a0;" 
d="M549 593q1 -110 88 -178.5t228 -68.5q150 0 237.5 74.5t87.5 204.5q0 110 -67.5 175t-178.5 65q-58 0 -102 -20t-61 -52h-8l9 139h355v174h-547l-27 -452h220q10 22 32.5 36.5t50.5 14.5q39 0 63.5 -24.5t24.5 -64.5t-25.5 -65t-62.5 -25q-34 0 -59 18.5t-30 48.5h-228z
M367 1475h979q109 0 185.5 -75.5t76.5 -182.5v-990q0 -107 -76.5 -182.5t-185.5 -75.5h-979q-108 0 -184.5 75.5t-76.5 182.5v990q0 107 76.5 182.5t184.5 75.5z" />
    <glyph glyph-name="six.blacksquare" unicode="&#x36;&#x20de;&#x25a0;" 
d="M1183 611q0 108 -63 166.5t-171 58.5q-62 0 -109.5 -24.5t-73.5 -66.5l-6 -1q-5 22 -5 33q0 70 30 113t79 43q52 0 79 -44h224q-11 94 -95 157.5t-207 63.5q-159 0 -252 -101.5t-93 -280.5q0 -147 60 -247q94 -143 284 -143q142 0 230.5 75t88.5 198zM772 606
q0 40 24.5 64.5t64.5 24.5q39 0 65 -24.5t26 -65.5q0 -42 -25 -66t-66 -24q-40 0 -64.5 24.5t-24.5 66.5zM367 1475h979q109 0 185.5 -75.5t76.5 -182.5v-990q0 -107 -76.5 -182.5t-185.5 -75.5h-979q-108 0 -184.5 75.5t-76.5 182.5v990q0 107 76.5 182.5t184.5 75.5z" />
    <glyph glyph-name="seven.blacksquare" unicode="&#x37;&#x20de;&#x25a0;" 
d="M548 1097v-202h352v-3l-297 -541h279l281 545v201h-615zM367 1475h979q109 0 185.5 -75.5t76.5 -182.5v-990q0 -107 -76.5 -182.5t-185.5 -75.5h-979q-108 0 -184.5 75.5t-76.5 182.5v990q0 107 76.5 182.5t184.5 75.5z" />
    <glyph glyph-name="eight.blacksquare" unicode="&#x38;&#x20de;&#x25a0;" 
d="M856 800q-35 0 -57 21t-22 55q0 35 22 56.5t57 21.5t57 -21.5t22 -56.5q0 -34 -22 -55t-57 -21zM856 495q-42 0 -67.5 24.5t-25.5 64.5q0 39 25.5 64t67.5 25q41 0 67.5 -25t26.5 -64q0 -40 -26.5 -64.5t-67.5 -24.5zM856 338q161 0 254 60.5t93 166.5q0 71 -45.5 118.5
t-124.5 58.5v4q138 40 138 158q0 94 -85 149.5t-230 55.5t-229.5 -55t-84.5 -150q0 -61 33 -99.5t105 -58.5v-4q-79 -11 -124.5 -58.5t-45.5 -118.5q0 -106 93 -166.5t253 -60.5zM367 1475h979q109 0 185.5 -75.5t76.5 -182.5v-990q0 -107 -76.5 -182.5t-185.5 -75.5h-979
q-108 0 -184.5 75.5t-76.5 182.5v990q0 107 76.5 182.5t184.5 75.5z" />
    <glyph glyph-name="nine.blacksquare" unicode="&#x39;&#x20de;&#x25a0;" 
d="M522 838q0 -109 63.5 -168.5t173.5 -59.5q61 0 109 25.5t71 65.5h6q10 -78 -18.5 -132t-84.5 -54q-53 0 -78 42h-225q11 -95 94.5 -157t206.5 -62q162 0 254 100.5t92 278.5q0 188 -94 290.5t-250 102.5q-142 0 -231 -75t-89 -197zM933 841q0 -41 -24.5 -65t-64.5 -24
q-39 0 -65 24.5t-26 65.5t25.5 66t65.5 25t64.5 -25t24.5 -67zM367 1475h979q109 0 185.5 -75.5t76.5 -182.5v-990q0 -107 -76.5 -182.5t-185.5 -75.5h-979q-108 0 -184.5 75.5t-76.5 182.5v990q0 107 76.5 182.5t184.5 75.5z" />
    <glyph glyph-name="plus.uc.blacksquare" unicode="&#x2b;&#x20de;&#x25a0;" 
d="M969 615h217v215h-217v221h-225v-221h-217v-215h217v-222h225v222zM367 1475h979q109 0 185.5 -75.5t76.5 -182.5v-990q0 -107 -76.5 -182.5t-185.5 -75.5h-979q-108 0 -184.5 75.5t-76.5 182.5v990q0 107 76.5 182.5t184.5 75.5z" />
    <glyph glyph-name="minus.uc.blacksquare" unicode="&#x2212;&#x20de;&#x25a0;" 
d="M1148 610v223h-583v-223h583zM367 1475h979q109 0 185.5 -75.5t76.5 -182.5v-990q0 -107 -76.5 -182.5t-185.5 -75.5h-979q-108 0 -184.5 75.5t-76.5 182.5v990q0 107 76.5 182.5t184.5 75.5z" />
    <glyph glyph-name="multiply.uc.blacksquare" unicode="&#xd7;&#x20de;&#x25a0;" 
d="M856 881l-170 168l-159 -158l170 -168l-170 -168l159 -158l170 168l170 -168l159 158l-170 168l170 168l-159 158zM367 1475h979q109 0 185.5 -75.5t76.5 -182.5v-990q0 -107 -76.5 -182.5t-185.5 -75.5h-979q-108 0 -184.5 75.5t-76.5 182.5v990q0 107 76.5 182.5
t184.5 75.5z" />
    <glyph glyph-name="divide.uc.blacksquare" unicode="&#xf7;&#x20de;&#x25a0;" 
d="M740 971q0 -44 33.5 -72.5t83.5 -28.5t83 28.5t33 72.5q0 45 -33 74t-83 29t-83.5 -29t-33.5 -74zM1148 637v170h-583v-170h583zM740 474q0 -44 33.5 -73t83.5 -29t83 29t33 73q0 45 -33 74t-83 29t-83.5 -29t-33.5 -74zM367 1475h979q109 0 185.5 -75.5t76.5 -182.5
v-990q0 -107 -76.5 -182.5t-185.5 -75.5h-979q-108 0 -184.5 75.5t-76.5 182.5v990q0 107 76.5 182.5t184.5 75.5z" />
    <glyph glyph-name="equal.uc.blacksquare" unicode="&#x3d;&#x20de;&#x25a0;" 
d="M1168 778v191h-623v-191h623zM1168 473v190h-623v-190h623zM367 1475h979q109 0 185.5 -75.5t76.5 -182.5v-990q0 -107 -76.5 -182.5t-185.5 -75.5h-979q-108 0 -184.5 75.5t-76.5 182.5v990q0 107 76.5 182.5t184.5 75.5z" />
    <glyph glyph-name="greater.uc.blacksquare" unicode="&#x3e;&#x20de;&#x25a0;" 
d="M1173 788l-586 280v-229l275 -114l1 -4l-276 -124v-220l586 276v135zM367 1475h979q109 0 185.5 -75.5t76.5 -182.5v-990q0 -107 -76.5 -182.5t-185.5 -75.5h-979q-108 0 -184.5 75.5t-76.5 182.5v990q0 107 76.5 182.5t184.5 75.5z" />
    <glyph glyph-name="less.uc.blacksquare" unicode="&#x3c;&#x20de;&#x25a0;" 
d="M539 653l586 -276v220q-14 7 -138 62t-138 62v4l276 114v229l-586 -280v-135zM367 1475h979q109 0 185.5 -75.5t76.5 -182.5v-990q0 -107 -76.5 -182.5t-185.5 -75.5h-979q-108 0 -184.5 75.5t-76.5 182.5v990q0 107 76.5 182.5t184.5 75.5z" />
    <glyph glyph-name="numbersign.blacksquare" unicode="&#x23;&#x20de;&#x25a0;" 
d="M803 794h129l-27 -139h-130zM1175 767l33 167h-101l32 164h-181l-30 -164h-72l34 164h-180l-32 -164h-100l-32 -167h102l-16 -74h-98l-34 -168h98l-34 -174h178l36 174h69l-34 -174h179l35 174h104l33 168h-102q2 8 7.5 38t6.5 36h99zM367 1475h979q109 0 185.5 -75.5
t76.5 -182.5v-990q0 -107 -76.5 -182.5t-185.5 -75.5h-979q-108 0 -184.5 75.5t-76.5 182.5v990q0 107 76.5 182.5t184.5 75.5z" />
    <glyph glyph-name="uni25BC.blacksquare" unicode="&#x25bc;&#x20de;&#x25a0;" 
d="M1208 980h-702l351 -607zM367 1475h979q109 0 185.5 -75.5t76.5 -182.5v-990q0 -107 -76.5 -182.5t-185.5 -75.5h-979q-108 0 -184.5 75.5t-76.5 182.5v990q0 107 76.5 182.5t184.5 75.5z" />
    <glyph glyph-name="uni25B2.blacksquare" unicode="&#x25b2;&#x20de;&#x25a0;" 
d="M1208 485l-351 608l-351 -608h702zM367 1475h979q109 0 185.5 -75.5t76.5 -182.5v-990q0 -107 -76.5 -182.5t-185.5 -75.5h-979q-108 0 -184.5 75.5t-76.5 182.5v990q0 107 76.5 182.5t184.5 75.5z" />
    <glyph glyph-name="uni25C0.blacksquare" unicode="&#x25c0;&#x20de;&#x25a0;" 
d="M1090 384v699l-608 -349zM367 1475h979q109 0 185.5 -75.5t76.5 -182.5v-990q0 -107 -76.5 -182.5t-185.5 -75.5h-979q-108 0 -184.5 75.5t-76.5 182.5v990q0 107 76.5 182.5t184.5 75.5z" />
    <glyph glyph-name="uni25B6.blacksquare" unicode="&#x25b6;&#x20de;&#x25a0;" 
d="M624 384l608 350l-608 349v-699zM367 1475h979q109 0 185.5 -75.5t76.5 -182.5v-990q0 -107 -76.5 -182.5t-185.5 -75.5h-979q-108 0 -184.5 75.5t-76.5 182.5v990q0 107 76.5 182.5t184.5 75.5z" />
    <glyph glyph-name="question.blacksquare" unicode="&#x3f;&#x20de;&#x25a0;" 
d="M707 429q0 -52 36 -80t104 -28q66 0 102.5 28.5t36.5 79.5q0 50 -37 78.5t-102 28.5q-68 0 -104 -27.5t-36 -79.5zM874 1109q-144 0 -223 -62t-79 -183v-1l231 5q0 30 13.5 47.5t38.5 17.5q53 0 53 -55q0 -25 -20.5 -43t-55.5 -40.5t-54 -44.5q-55 -52 -54 -122
q0 -24 4 -36h218v8q0 29 14.5 45t68.5 48q74 47 99.5 83.5t25.5 106.5q0 102 -78 164t-202 62zM367 1475h979q109 0 185.5 -75.5t76.5 -182.5v-990q0 -107 -76.5 -182.5t-185.5 -75.5h-979q-108 0 -184.5 75.5t-76.5 182.5v990q0 107 76.5 182.5t184.5 75.5z" />
    <glyph glyph-name="exclam.blacksquare" unicode="&#x21;&#x20de;&#x25a0;" 
d="M722 1100l28 -498h218l30 498h-276zM720 429q0 -51 37 -79t104 -28t103 28t36 79q0 50 -36.5 78.5t-102.5 28.5q-67 0 -104 -28t-37 -79zM367 1475h979q109 0 185.5 -75.5t76.5 -182.5v-990q0 -107 -76.5 -182.5t-185.5 -75.5h-979q-108 0 -184.5 75.5t-76.5 182.5v990
q0 107 76.5 182.5t184.5 75.5z" />
    <glyph glyph-name="uni2717.blacksquare" unicode="&#x2717;&#x20de;&#x25a0;" 
d="M484 943l223 -223l-224 -225l150 -150l223 224l223 -222l151 151l-223 222l223 223l-151 150l-223 -223l-222 223zM367 1475h979q109 0 185.5 -75.5t76.5 -182.5v-990q0 -107 -76.5 -182.5t-185.5 -75.5h-979q-108 0 -184.5 75.5t-76.5 182.5v990q0 107 76.5 182.5
t184.5 75.5z" />
    <glyph glyph-name="uni2713.blacksquare" unicode="&#x2713;&#x20de;&#x25a0;" 
d="M733 351l589 575l-155 161l-430 -431l-199 198l-158 -156zM367 1475h979q109 0 185.5 -75.5t76.5 -182.5v-990q0 -107 -76.5 -182.5t-185.5 -75.5h-979q-108 0 -184.5 75.5t-76.5 182.5v990q0 107 76.5 182.5t184.5 75.5z" />
    <glyph glyph-name=".notdef" horiz-adv-x="2048" 
d="M100 -494v165h1848v-165h-1848zM100 -38v165h1848v-165h-1848zM100 418v165h1848v-165h-1848zM100 873v165h1848v-165h-1848zM100 1329v165h1848v-165h-1848zM100 1785v165h1848v-165h-1848z" />
    <glyph glyph-name=".null" horiz-adv-x="0" 
 />
    <glyph glyph-name="nonmarkingreturn" horiz-adv-x="0" 
 />
    <glyph glyph-name="space" unicode=" " horiz-adv-x="397" 
 />
    <glyph glyph-name="exclam" unicode="!" horiz-adv-x="701" 
d="M169 1443h364l-31 -970h-302zM351 -33q-79 0 -134.5 52.5t-55.5 127.5t55.5 127t134.5 52q78 0 133.5 -52t55.5 -127t-55.5 -127.5t-133.5 -52.5z" />
    <glyph glyph-name="quotedbl" unicode="&#x22;" horiz-adv-x="993" 
d="M391 851h-297v592h297v-592zM899 851h-298v592h298v-592z" />
    <glyph glyph-name="numbersign" unicode="#" horiz-adv-x="1343" 
d="M633 0l74 368h-224l-73 -368h-262l72 368h-220l48 253h222l44 221h-222l48 251h223l70 351h262l-68 -351h222l70 351h264l-70 -351h230l-48 -251h-232l-44 -221h231l-48 -253h-233l-72 -368h-264zM506 594h264l57 274h-266z" />
    <glyph glyph-name="dollar" unicode="$" horiz-adv-x="1372" 
d="M768 -136h-144v124q-253 13 -394 126.5t-142 305.5h347q4 -66 56.5 -113t132.5 -55v322l-119 26q-192 42 -291 148.5t-99 270.5q0 194 133.5 310.5t375.5 134.5v136h144v-137q223 -21 354.5 -138t133.5 -296h-336q-2 60 -45 106t-107 56v-311l119 -22q397 -77 397 -415
q0 -198 -133.5 -315.5t-382.5 -137.5v-126zM942 402q0 115 -174 148v-298q82 6 128 46t46 104zM466 1053q0 -112 158 -144v284q-70 -5 -114 -43.5t-44 -96.5z" />
    <glyph glyph-name="percent" unicode="%" horiz-adv-x="1760" 
d="M728 1094q0 -177 -92.5 -279.5t-250.5 -102.5t-250.5 102.5t-92.5 279.5q0 176 92.5 279t250.5 103t250.5 -103t92.5 -279zM385 918q40 0 62.5 47t22.5 131t-22.5 131t-62.5 47t-62.5 -47t-22.5 -131t22.5 -131t62.5 -47zM493 0h-278l562 770l490 673h278l-546 -749z
M1718 359q0 -177 -92.5 -279.5t-250.5 -102.5t-250.5 102.5t-92.5 279.5q0 176 92.5 278.5t250.5 102.5t250.5 -102.5t92.5 -278.5zM1375 183q40 0 62.5 47t22.5 131t-22.5 131t-62.5 47t-62.5 -47t-22.5 -131t22.5 -131t62.5 -47z" />
    <glyph glyph-name="ampersand" unicode="&#x26;" horiz-adv-x="1472" 
d="M1112 0l-100 106q-74 -63 -189.5 -98t-248.5 -35q-238 0 -376 107.5t-138 293.5q0 121 62 210.5t197 165.5q3 1 20.5 11l33 18.5t16.5 8.5q-98 99 -138.5 173.5t-40.5 154.5q0 148 122.5 245.5t309.5 97.5q188 0 305 -93t117 -241q0 -221 -283 -378l231 -249
q42 73 42 214v94h285v-119q0 -114 -33 -219.5t-91 -180.5l277 -287h-380zM508 593q-67 -43 -96 -87t-29 -102q0 -84 63 -135t165 -51q69 0 129.5 22t93.5 60l-290 311q-17 -6 -36 -18zM626 902q81 43 118.5 90t37.5 106q0 61 -38.5 100t-99.5 39t-101 -39.5t-40 -99.5
q0 -45 27 -88t96 -108z" />
    <glyph glyph-name="quotesingle" unicode="'" horiz-adv-x="485" 
d="M391 851h-297v592h297v-592z" />
    <glyph glyph-name="parenleft" unicode="(" horiz-adv-x="846" 
d="M178 566q0 268 73.5 482t229.5 395h333q-115 -135 -192.5 -381.5t-77.5 -494.5q0 -247 77.5 -494.5t192.5 -384.5h-333q-157 184 -230 398t-73 480z" />
    <glyph glyph-name="parenright" unicode=")" horiz-adv-x="846" 
d="M669 566q0 -276 -76 -488.5t-227 -389.5h-334q110 132 190 375.5t80 503.5q0 261 -80 503.5t-190 372.5h334q151 -174 227 -386.5t76 -490.5z" />
    <glyph glyph-name="asterisk" unicode="*" horiz-adv-x="997" 
d="M797 818l-225 166l33 -277h-209l33 276l-226 -165l-104 182l252 109l-252 110l105 184l222 -163l-31 273h212l-32 -271l222 161l106 -184l-255 -111l255 -107z" />
    <glyph glyph-name="plus" unicode="+" horiz-adv-x="1372" 
d="M843 431v-425h-314v425h-399v305h399v423h314v-423h399v-305h-399z" />
    <glyph glyph-name="comma" unicode="," horiz-adv-x="595" 
d="M350 -331h-257l63 592h327z" />
    <glyph glyph-name="hyphen" unicode="&#x2011;" horiz-adv-x="918" 
d="M788 435h-658v304h658v-304z" />
    <glyph glyph-name="hyphen" unicode="-" horiz-adv-x="918" 
d="M788 435h-658v304h658v-304z" />
    <glyph glyph-name="period" unicode="." horiz-adv-x="595" 
d="M297 -13q-77 0 -131 54.5t-54 131.5t54 131.5t131 54.5t131.5 -54.5t54.5 -131.5t-54.5 -131.5t-131.5 -54.5z" />
    <glyph glyph-name="slash" unicode="/" horiz-adv-x="846" 
d="M333 -312h-333l513 1755h333z" />
    <glyph glyph-name="zero" unicode="0" horiz-adv-x="1380" 
d="M691 -36q-284 0 -448 203t-164 557t164.5 555t447.5 201q282 0 446 -201t164 -554t-163.5 -557t-446.5 -204zM691 250q110 0 173.5 122.5t63.5 351.5t-63.5 349.5t-173.5 120.5t-174.5 -121t-64.5 -348q0 -229 64.5 -352t174.5 -123z" />
    <glyph glyph-name="one" unicode="1" horiz-adv-x="1023" 
d="M451 0v1121h-7l-361 -244v316l367 250h366v-1443h-365z" />
    <glyph glyph-name="two" unicode="2" horiz-adv-x="1275" 
d="M73 999q0 214 155 347t407 133q244 0 392.5 -119t148.5 -310q0 -54 -17 -108.5t-40 -96t-62.5 -90t-67.5 -77l-73 -71.5l-345 -318v-7h623v-282h-1100v245l563 518q91 87 127.5 147.5t36.5 127.5q0 70 -55 117.5t-143 47.5q-93 0 -153.5 -57.5t-60.5 -146.5v-7h-336v7z
" />
    <glyph glyph-name="three" unicode="3" horiz-adv-x="1330" 
d="M475 611v253h175q93 0 149 47.5t56 125.5q0 79 -55 124t-153 45q-94 0 -153 -52t-62 -136h-332q4 209 158 335t405 126q241 0 386.5 -107t145.5 -285q0 -129 -83 -219t-217 -114v-8q162 -15 257.5 -107t95.5 -239q0 -198 -164.5 -317t-434.5 -119q-253 0 -409.5 127
t-167.5 338h350q5 -82 67 -129.5t166 -47.5q98 0 159.5 49.5t61.5 129.5q0 84 -60 132t-165 48h-176z" />
    <glyph glyph-name="four" unicode="4" horiz-adv-x="1373" 
d="M782 0v234h-713v307q97 187 222.5 393.5t327.5 508.5h510v-923h180v-286h-180v-234h-347zM380 517v-10h412v688h-7q-145 -216 -233.5 -362.5t-171.5 -315.5z" />
    <glyph glyph-name="five" unicode="5" horiz-adv-x="1323" 
d="M679 -36q-245 0 -403.5 128t-162.5 330h333q13 -78 78.5 -127t157.5 -49q103 0 167.5 65t64.5 168q0 107 -64 173.5t-167 66.5q-71 0 -129.5 -31t-93.5 -87h-324l68 842h966v-282h-682l-27 -356h7q42 79 125 123.5t195 44.5q206 0 339 -137t133 -348
q0 -235 -160.5 -379.5t-420.5 -144.5z" />
    <glyph glyph-name="six" unicode="6" horiz-adv-x="1364" 
d="M707 -36q-152 0 -276 60t-203 173q-148 195 -148 519q0 355 169.5 559t458.5 204q218 0 373.5 -115t184.5 -297h-357q-18 59 -73.5 95t-128.5 36q-137 0 -214 -128.5t-66 -347.5h7q42 108 140 171.5t235 63.5q204 0 339.5 -135t135.5 -340q0 -228 -162 -373t-415 -145z
M703 247q96 0 162.5 65t66.5 159q0 95 -65.5 159t-162.5 64t-162.5 -64t-65.5 -158q0 -95 66 -160t161 -65z" />
    <glyph glyph-name="seven" unicode="7" horiz-adv-x="1199" 
d="M165 0l604 1154v7h-712v282h1073v-283l-581 -1160h-384z" />
    <glyph glyph-name="eight" unicode="8" horiz-adv-x="1394" 
d="M696 -36q-279 0 -448 117.5t-169 309.5q0 146 98.5 247.5t256.5 121.5v7q-132 26 -214.5 117t-82.5 213q0 167 156.5 274.5t402.5 107.5q247 0 403 -108t156 -275q0 -120 -82 -211.5t-213 -117.5v-7q158 -21 256 -122.5t98 -247.5q0 -191 -170.5 -308.5t-447.5 -117.5z
M696 216q103 0 168 57.5t65 144.5t-65 144t-168 57q-102 0 -167 -57t-65 -144t65 -144.5t167 -57.5zM696 871q86 0 142 51t56 127q0 77 -56 128t-142 51q-85 0 -141 -51t-56 -128q0 -76 56 -127t141 -51z" />
    <glyph glyph-name="nine" unicode="9" horiz-adv-x="1370" 
d="M660 -36q-220 0 -376.5 115.5t-184.5 297.5h358q18 -59 75.5 -95.5t133.5 -36.5q135 0 210.5 127t63.5 351h-3h-2h-1q-37 -108 -135.5 -172t-239.5 -64q-204 0 -341.5 135t-137.5 340q0 226 164 371.5t416 145.5q154 0 278.5 -59.5t204.5 -172.5q148 -195 148 -519
q0 -356 -168 -560t-463 -204zM664 751q96 0 161.5 63.5t65.5 157.5q0 95 -65.5 160.5t-160.5 65.5q-96 0 -163 -65.5t-67 -159.5q0 -95 66 -158.5t163 -63.5z" />
    <glyph glyph-name="colon" unicode=":" horiz-adv-x="595" 
d="M297 -13q-77 0 -131 54.5t-54 131.5t54 131.5t131 54.5t131.5 -54.5t54.5 -131.5t-54.5 -131.5t-131.5 -54.5zM297 691q-77 0 -131 54.5t-54 131.5t54 131t131 54t131.5 -54t54.5 -131t-54.5 -131.5t-131.5 -54.5z" />
    <glyph glyph-name="semicolon" unicode=";" horiz-adv-x="595" 
d="M297 691q-77 0 -131 54.5t-54 131.5t54 131t131 54t131.5 -54t54.5 -131t-54.5 -131.5t-131.5 -54.5zM341 -331h-257l63 592h327z" />
    <glyph glyph-name="less" unicode="&#x3c;" horiz-adv-x="1372" 
d="M1182 867l-630 -277v-11l630 -271v-346l-992 486v270l992 495v-346z" />
    <glyph glyph-name="equal" unicode="=" horiz-adv-x="1372" 
d="M1229 176h-1086v303h1086v-303zM1229 688h-1086v303h1086v-303z" />
    <glyph glyph-name="greater" unicode="&#x3e;" horiz-adv-x="1372" 
d="M190 867v346l992 -495v-269l-992 -487v346l630 272v10z" />
    <glyph glyph-name="question" unicode="?" horiz-adv-x="1141" 
d="M52 1023q2 198 138.5 315.5t374.5 117.5q227 0 364.5 -110t137.5 -290q0 -110 -52.5 -190.5t-163.5 -144.5q-103 -60 -139 -104t-36 -114v-47h-312l-3 40q-14 127 25 203.5t145 137.5q102 60 136.5 102t34.5 108q0 61 -44.5 99t-115.5 38q-72 0 -117.5 -44t-47.5 -117
h-325zM526 -33q-79 0 -134 52t-55 128q0 75 55 127t134 52q78 0 133.5 -52t55.5 -127t-55.5 -127.5t-133.5 -52.5z" />
    <glyph glyph-name="at" unicode="@" horiz-adv-x="1819" 
d="M895 822q-68 0 -107 -55.5t-39 -152.5q0 -98 38.5 -153t107.5 -55t108 55.5t39 152.5t-39.5 152.5t-107.5 55.5zM926 1456q178 0 328.5 -54t256.5 -151t165.5 -236.5t59.5 -304.5q0 -235 -108 -372.5t-294 -137.5q-97 0 -163 39.5t-86 111.5h-17q-62 -152 -235 -152
q-156 0 -251 116t-95 306q0 182 91 294.5t239 112.5q82 0 144 -37.5t92 -104.5h17v118h229v-508q0 -53 22.5 -83t64.5 -30q66 0 105 81t39 222q0 272 -165 433t-442 161q-288 0 -467.5 -184t-179.5 -479q0 -301 186.5 -474t501.5 -173q149 0 240 28v-178q-114 -30 -261 -30
q-192 0 -354 59.5t-276.5 166.5t-178.5 263t-64 343q0 244 108 434t303 295t445 105z" />
    <glyph glyph-name="A" unicode="A" horiz-adv-x="1477" 
d="M1058 0l-91 317h-472l-92 -317h-374l485 1443h449l485 -1443h-390zM727 1137l-161 -556h329l-160 556h-8z" />
    <glyph glyph-name="B" unicode="B" horiz-adv-x="1348" 
d="M798 0h-689v1443h671q213 0 334 -96t121 -264q0 -120 -80.5 -208t-201.5 -105v-8q148 -7 248.5 -105t100.5 -241q0 -190 -136.5 -303t-367.5 -113zM476 1183v-328h189q100 0 156.5 44.5t56.5 122.5q0 76 -51.5 118.5t-143.5 42.5h-207zM476 260h218q114 0 174.5 48.5
t60.5 139.5q0 88 -62 136t-175 48h-216v-372z" />
    <glyph glyph-name="C" unicode="C" horiz-adv-x="1488" 
d="M770 -25q-326 0 -513.5 197.5t-187.5 549.5q0 351 188 548.5t513 197.5q181 0 328 -72.5t233.5 -204t91.5 -299.5h-353q-13 127 -96 204.5t-204 77.5q-151 0 -239 -121t-88 -330q0 -212 88 -333t240 -121q121 0 202.5 74t98.5 201h353q-13 -256 -194 -412.5t-461 -156.5z
" />
    <glyph glyph-name="D" unicode="D" horiz-adv-x="1456" 
d="M109 1443h586q329 0 510.5 -185t181.5 -528q0 -345 -182.5 -537.5t-509.5 -192.5h-586v1443zM476 1147v-851h171q180 0 273.5 109t93.5 324q0 202 -96 310t-271 108h-171z" />
    <glyph glyph-name="E" unicode="E" horiz-adv-x="1196" 
d="M1098 296v-296h-989v1443h989v-296h-622v-287h585v-270h-585v-294h622z" />
    <glyph glyph-name="F" unicode="F" horiz-adv-x="1144" 
d="M476 0h-367v1443h982v-296h-615v-328h559v-281h-559v-538z" />
    <glyph glyph-name="G" unicode="G" horiz-adv-x="1510" 
d="M1437 610q0 -296 -174 -465.5t-481 -169.5q-335 0 -524 197.5t-189 551.5q0 350 188 547t516 197q261 0 441 -140t208 -361h-363q-27 96 -103 151t-182 55q-156 0 -243.5 -117t-87.5 -327q0 -213 94 -336t253 -123q124 0 204 67t88 176l1 22h-264v252h618v-177z" />
    <glyph glyph-name="H" unicode="H" horiz-adv-x="1527" 
d="M1417 0h-366v581h-575v-581h-367v1443h367v-566h575v566h366v-1443z" />
    <glyph glyph-name="I" unicode="I" horiz-adv-x="585" 
d="M476 0h-367v1443h367v-1443z" />
    <glyph glyph-name="J" unicode="J" horiz-adv-x="1210" 
d="M25 470h353q1 -86 47.5 -136.5t125.5 -50.5q81 0 124 50.5t43 146.5v963h366v-965q0 -242 -139.5 -373.5t-389.5 -131.5q-243 0 -386.5 134t-143.5 363z" />
    <glyph glyph-name="K" unicode="K" horiz-adv-x="1401" 
d="M476 0h-367v1443h367v-634h8l491 634h394l-503 -641l532 -802h-431l-368 564l-123 -156v-408z" />
    <glyph glyph-name="L" unicode="L" horiz-adv-x="1132" 
d="M1073 296v-296h-964v1443h367v-1147h597z" />
    <glyph glyph-name="M" unicode="M" horiz-adv-x="1802" 
d="M1693 0h-323v901h-7l-357 -886h-210l-356 886h-8v-901h-323v1443h424l364 -927h8l364 927h424v-1443z" />
    <glyph glyph-name="N" unicode="N" horiz-adv-x="1479" 
d="M457 0h-348v1443h293l612 -839h8v839h348v-1443h-290l-615 847h-8v-847z" />
    <glyph glyph-name="O" unicode="O" horiz-adv-x="1564" 
d="M782 1468q328 0 520 -201t192 -546t-192 -545.5t-520 -200.5q-329 0 -521 200.5t-192 545.5t192.5 546t520.5 201zM782 1170q-154 0 -246.5 -121.5t-92.5 -327.5q0 -205 92 -326.5t247 -121.5q154 0 246.5 121.5t92.5 326.5q0 206 -92.5 327.5t-246.5 121.5z" />
    <glyph glyph-name="P" unicode="P" horiz-adv-x="1308" 
d="M109 1443h625q233 0 376.5 -139.5t143.5 -371.5q0 -230 -150 -369.5t-392 -139.5h-236v-423h-367v1443zM476 1162v-463h159q118 0 183 60t65 172t-64.5 171.5t-181.5 59.5h-161z" />
    <glyph glyph-name="Q" unicode="Q" horiz-adv-x="1563" 
d="M782 -25q-330 0 -521.5 199t-191.5 547q0 344 192.5 545.5t520.5 201.5q327 0 519 -201.5t192 -545.5q0 -182 -54.5 -326t-158.5 -235l179 -281h-341l-87 133q-114 -37 -249 -37zM782 268q43 0 76 10l-146 229h311l32 -43q65 105 65 257q0 206 -92 330t-246 124
t-246.5 -124t-92.5 -330t92.5 -329.5t246.5 -123.5z" />
    <glyph glyph-name="R" unicode="R" horiz-adv-x="1355" 
d="M476 1166v-410h215q101 0 158 55t57 149q0 93 -59 149.5t-157 56.5h-214zM476 505v-505h-367v1443h618q268 0 411 -125t143 -351q0 -136 -65.5 -246.5t-181.5 -161.5l289 -559h-412l-248 505h-187z" />
    <glyph glyph-name="S" unicode="S" horiz-adv-x="1334" 
d="M63 418h349q10 -73 83.5 -119t176.5 -46q106 0 171 42.5t65 108.5q0 60 -50.5 93.5t-174.5 59.5l-189 37q-199 38 -301 143.5t-102 270.5q0 208 160.5 334t413.5 126q268 0 421.5 -120.5t156.5 -325.5h-338q-5 78 -70 123t-166 45q-96 0 -154.5 -40t-58.5 -106
q0 -58 50.5 -93.5t164.5 -58.5l187 -35q213 -41 313 -141t100 -271q0 -215 -165 -342.5t-444 -127.5q-277 0 -436.5 117t-162.5 326z" />
    <glyph glyph-name="T" unicode="T" horiz-adv-x="1254" 
d="M810 0h-366v1147h-398v296h1162v-296h-398v-1147z" />
    <glyph glyph-name="U" unicode="U" horiz-adv-x="1461" 
d="M476 1443v-892q0 -127 66.5 -197.5t188.5 -70.5t188 70.5t66 197.5v892h367v-931q0 -243 -170 -390t-451 -147q-282 0 -452 147t-170 390v931h367z" />
    <glyph glyph-name="V" unicode="V" horiz-adv-x="1440" 
d="M951 0h-462l-460 1443h417l278 -1084h8l277 1084h402z" />
    <glyph glyph-name="W" unicode="W" horiz-adv-x="2022" 
d="M1007 901l-243 -901h-346l-377 1443h379l195 -975h8l241 975h294l241 -975h8l195 975h379l-377 -1443h-346l-243 901h-8z" />
    <glyph glyph-name="X" unicode="X" horiz-adv-x="1458" 
d="M42 0l441 723v8l-440 712h428l265 -488h7l267 488h407l-459 -716v-7l455 -720h-412l-280 468h-8l-281 -468h-390z" />
    <glyph glyph-name="Y" unicode="Y" horiz-adv-x="1419" 
d="M893 0h-367v496l-497 947h394l287 -600h7l286 600h387l-497 -947v-496z" />
    <glyph glyph-name="Z" unicode="Z" horiz-adv-x="1307" 
d="M84 0v233l686 907v7h-675v296h1106v-233l-683 -907v-7h705v-296h-1139z" />
    <glyph glyph-name="bracketleft" unicode="[" horiz-adv-x="846" 
d="M201 1443h618v-257h-278v-1241h278v-257h-618v1755z" />
    <glyph glyph-name="backslash" unicode="\" horiz-adv-x="846" 
d="M506 -312l-506 1755h341l505 -1755h-340z" />
    <glyph glyph-name="bracketright" unicode="]" horiz-adv-x="846" 
d="M645 1443v-1755h-617v257h277v1241h-277v257h617z" />
    <glyph glyph-name="asciicircum" unicode="^" horiz-adv-x="1021" 
d="M501 1141l-167 -333h-295l325 604h297l321 -604h-305l-158 333h-18z" />
    <glyph glyph-name="underscore" unicode="_" horiz-adv-x="872" 
d="M914 -373h-956v266h956v-266z" />
    <glyph glyph-name="grave" unicode="`" horiz-adv-x="1013" 
d="M775 1278h-276l-260 316h309z" />
    <glyph glyph-name="a" unicode="a" horiz-adv-x="1169" 
d="M536 228q83 0 142.5 46t59.5 117v75l-198 -13q-69 -5 -107 -35.5t-38 -78.5q0 -51 38.5 -81t102.5 -30zM410 -16q-154 0 -260 93t-106 238q0 152 113 237t326 98l255 15v62q0 64 -42 99.5t-113 35.5q-70 0 -114.5 -32.5t-52.5 -84.5h-319q8 169 143 269.5t361 100.5
q218 0 351 -101.5t133 -266.5v-747h-345v155h-7q-43 -80 -132 -125.5t-191 -45.5z" />
    <glyph glyph-name="b" unicode="b" horiz-adv-x="1269" 
d="M785 -16q-119 0 -205.5 53.5t-128.5 149.5h-7v-187h-353v1443h355v-547h7q42 99 127.5 154t201.5 55q206 0 320 -147t114 -414q0 -266 -113 -413t-318 -147zM649 828q-92 0 -148 -77.5t-57 -206.5q1 -130 56.5 -206.5t148.5 -76.5q94 0 149.5 76.5t55.5 206.5t-55.5 207
t-149.5 77z" />
    <glyph glyph-name="c" unicode="c" horiz-adv-x="1163" 
d="M1118 659h-326q-9 86 -57.5 136t-125.5 50q-94 0 -146 -78t-52 -222q0 -145 52 -223.5t146 -78.5q78 0 126 47.5t58 132.5h325q-7 -208 -145 -328.5t-368 -120.5q-257 0 -405 152t-148 419q0 264 148 417t403 153q229 0 368.5 -125t146.5 -331z" />
    <glyph glyph-name="d" unicode="d" horiz-adv-x="1265" 
d="M486 -16q-203 0 -318.5 149.5t-115.5 413.5q0 261 117 409.5t321 148.5q116 0 202.5 -57t123.5 -151h7v546h354v-1443h-352v187h-7q-34 -89 -123.5 -146t-208.5 -57zM619 828q-95 0 -149.5 -76t-54.5 -208t54 -207.5t150 -75.5t150.5 75t54.5 208q0 131 -55 207.5
t-150 76.5z" />
    <glyph glyph-name="e" unicode="e" horiz-adv-x="1183" 
d="M600 863q-81 0 -136.5 -54.5t-62.5 -139.5h396q-5 87 -59 140.5t-138 53.5zM805 344h320q-26 -169 -166 -269.5t-353 -100.5q-260 0 -407 150.5t-147 414.5t146.5 420t395.5 156q246 0 391.5 -149t145.5 -399v-100h-735v-22q0 -98 59.5 -159t155.5 -61q71 0 123 32t71 87
z" />
    <glyph glyph-name="f" unicode="f" horiz-adv-x="785" 
d="M174 0v828h-145v253h145v63q0 164 89.5 239t299.5 75q99 0 172 -15v-220q-40 6 -78 6q-138 0 -138 -101v-47h212v-253h-202v-828h-355z" />
    <glyph glyph-name="g" unicode="g" horiz-adv-x="1263" 
d="M619 271q96 0 150.5 71.5t54.5 202.5q0 130 -55 206.5t-150 76.5t-149.5 -76t-54.5 -207t53.5 -202.5t150.5 -71.5zM608 -410q-229 0 -370.5 94t-156.5 245h343q13 -48 65 -77.5t127 -29.5q100 0 153.5 49t53.5 132v200h-7q-33 -87 -122.5 -140.5t-208.5 -53.5
q-198 0 -315.5 143t-117.5 396q0 261 116.5 409t321.5 148q116 0 203 -57.5t125 -151.5h7v193h352v-1077q0 -193 -156.5 -307.5t-412.5 -114.5z" />
    <glyph glyph-name="h" unicode="h" horiz-adv-x="1245" 
d="M91 0v1443h347v-559h7q42 110 129.5 168t211.5 58q181 0 279.5 -108.5t98.5 -302.5v-699h-354v622q0 94 -46 146.5t-132 52.5q-88 0 -137 -57t-49 -150v-614h-355z" />
    <glyph glyph-name="i" unicode="i" horiz-adv-x="530" 
d="M88 0v1089h354v-1089h-354zM265 1177q-77 0 -129.5 50t-52.5 124q0 73 52.5 123t129.5 50t129 -49.5t52 -123.5t-52 -124t-129 -50z" />
    <glyph glyph-name="j" unicode="j" horiz-adv-x="530" 
d="M442 1089v-1138q0 -165 -108 -254t-309 -89q-66 0 -104 4v252q20 -2 42 -2q66 0 95.5 24t29.5 79v1124h354zM265 1177q-77 0 -129.5 50t-52.5 124q0 73 52.5 123t129.5 50t129 -49.5t52 -123.5t-52 -124t-129 -50z" />
    <glyph glyph-name="k" unicode="k" horiz-adv-x="1158" 
d="M452 675l313 414h395l-387 -466l410 -623h-408l-265 411l-64 -77v-334h-355v1443h355v-768h6z" />
    <glyph glyph-name="l" unicode="l" horiz-adv-x="537" 
d="M91 0v1443h355v-1443h-355z" />
    <glyph glyph-name="m" unicode="m" horiz-adv-x="1833" 
d="M85 0v1089h345v-210h7q32 106 116 168.5t195 62.5q122 0 201 -60.5t102 -171.5h7q32 105 123.5 168.5t212.5 63.5q160 0 259 -102.5t99 -268.5v-739h-355v649q0 173 -153 173q-72 0 -114 -48t-42 -128v-646h-339v653q0 82 -39 125.5t-112 43.5q-72 0 -115 -49t-43 -129
v-644h-355z" />
    <glyph glyph-name="n" unicode="n" horiz-adv-x="1233" 
d="M85 0v1089h345v-205h7q42 110 127.5 168t209.5 58q181 0 279.5 -108t98.5 -303v-699h-354v623q0 94 -44.5 146t-130.5 52q-84 0 -133.5 -57t-49.5 -148v-616h-355z" />
    <glyph glyph-name="o" unicode="o" horiz-adv-x="1218" 
d="M609 -26q-259 0 -408 150.5t-149 420.5q0 265 151 417.5t406 152.5q257 0 407 -152t150 -418q0 -271 -149 -421t-408 -150zM609 234q92 0 145 81t53 229q0 146 -53.5 228.5t-144.5 82.5t-144 -82.5t-53 -228.5q0 -148 52.5 -229t144.5 -81z" />
    <glyph glyph-name="p" unicode="p" horiz-adv-x="1263" 
d="M775 1105q206 0 320.5 -147t114.5 -414q0 -266 -113 -413t-317 -147q-119 0 -206 53.5t-127 148.5h-7v-538h-355v1441h353v-194h7q42 99 127.5 154.5t202.5 55.5zM643 261q94 0 149.5 76.5t55.5 206.5t-55.5 207t-149.5 77q-93 0 -148.5 -77.5t-56.5 -206.5
q1 -130 56 -206.5t149 -76.5z" />
    <glyph glyph-name="q" unicode="q" horiz-adv-x="1263" 
d="M490 1105q116 0 203 -57.5t125 -152.5h7v194h352v-1441h-354v539h-7q-33 -90 -123 -146.5t-208 -56.5q-203 0 -318 149.5t-115 413.5q0 261 116.5 409.5t321.5 148.5zM619 261q95 0 150 75.5t55 207.5q0 131 -55 207.5t-150 76.5t-149.5 -76t-54.5 -208t54 -207.5
t150 -75.5z" />
    <glyph glyph-name="r" unicode="r" horiz-adv-x="805" 
d="M85 0v1089h345v-206h7q60 222 256 222q53 0 90 -14v-302q-50 20 -113 20q-112 0 -171 -61t-59 -175v-573h-355z" />
    <glyph glyph-name="s" unicode="s" horiz-adv-x="1108" 
d="M67 759q0 164 130.5 260t355.5 96q222 0 352 -98.5t132 -267.5h-324q-2 59 -46 93t-117 34q-65 0 -104 -26t-39 -68q0 -66 122 -91l228 -46q163 -35 236.5 -105.5t73.5 -194.5q0 -169 -140 -270t-369 -101q-235 0 -370.5 99t-146.5 269h344q8 -61 54.5 -95t124.5 -34
q71 0 111.5 24.5t40.5 67.5q0 33 -27 53.5t-91 33.5l-206 43q-160 34 -242.5 116.5t-82.5 207.5z" />
    <glyph glyph-name="t" unicode="t" horiz-adv-x="786" 
d="M174 1333h355v-244h196v-261h-196v-457q0 -113 125 -113q44 0 70 5v-252q-63 -13 -155 -13q-212 0 -303.5 70t-91.5 231v529h-148v261h148v244z" />
    <glyph glyph-name="u" unicode="u" horiz-adv-x="1233" 
d="M1147 1089v-1089h-344v206h-7q-78 -227 -317 -227q-178 0 -288.5 110t-110.5 300v700h355v-623q0 -96 47 -147t131 -51q82 0 131 56t49 149v616h354z" />
    <glyph glyph-name="v" unicode="v" horiz-adv-x="1129" 
d="M1132 1089l-361 -1089h-409l-365 1089h381l190 -792h7l186 792h371z" />
    <glyph glyph-name="w" unicode="w" horiz-adv-x="1699" 
d="M1685 1089l-281 -1089h-382l-173 733h-7l-170 -733h-376l-283 1089h358l139 -769h7l166 769h339l168 -769h7l138 769h350z" />
    <glyph glyph-name="x" unicode="x" horiz-adv-x="1144" 
d="M565 359h-7l-175 -359h-368l327 541l-326 548h400l163 -348h7l160 348h383l-327 -540l326 -549h-383z" />
    <glyph glyph-name="y" unicode="y" horiz-adv-x="1174" 
d="M249 -401q-124 0 -129 1v268q10 -2 77 -2q84 0 125 22.5t48 71.5l2 18q1 18 0 22l-367 1089h391l197 -823h6l196 823h374l-348 -1086q-70 -219 -201 -311.5t-371 -92.5z" />
    <glyph glyph-name="z" unicode="z" horiz-adv-x="1075" 
d="M66 0v188l512 628v7h-500v266h914v-216l-465 -600v-7h482v-266h-943z" />
    <glyph glyph-name="braceleft" unicode="{" horiz-adv-x="846" 
d="M327 548q137 -15 210.5 -81.5t73.5 -175.5v-175q0 -98 36.5 -138t125.5 -40h46v-250h-84q-246 0 -354.5 93t-108.5 303v121q0 105 -56.5 151.5t-187.5 47.5v325q131 1 187.5 47t56.5 152v127q0 206 108 297t355 91h84v-250h-46q-89 0 -125.5 -40.5t-36.5 -138.5v-172
q0 -109 -73.5 -175.5t-210.5 -81.5v-37z" />
    <glyph glyph-name="bar" unicode="|" horiz-adv-x="846" 
d="M593 -312h-340v1755h340v-1755z" />
    <glyph glyph-name="braceright" unicode="}" horiz-adv-x="846" 
d="M520 548v37q-137 15 -211 81.5t-74 175.5v172q0 99 -36 139t-125 40h-46v250h84q246 0 354 -90.5t108 -297.5v-127q0 -106 57 -152t188 -47v-325q-132 -1 -188.5 -47.5t-56.5 -151.5v-119q0 -211 -108 -304.5t-354 -93.5h-84v250h46q88 0 124.5 40t36.5 138v175
q0 109 74 175.5t211 81.5z" />
    <glyph glyph-name="asciitilde" unicode="~" horiz-adv-x="1372" 
d="M638 617q-41 41 -69 57t-61 16q-100 0 -103 -178h-263q-13 214 76 340t253 126q70 0 133.5 -31.5t133.5 -101.5q39 -40 66.5 -55.5t59.5 -15.5q100 0 103 178h263q13 -214 -76 -340t-253 -126q-69 0 -131 31t-132 100z" />
    <glyph glyph-name="nonbreakingspace" unicode="&#xa0;" horiz-adv-x="397" 
 />
    <glyph glyph-name="exclamdown" unicode="&#xa1;" horiz-adv-x="701" 
d="M169 -314l31 970h302l31 -970h-364zM351 805q-79 0 -134.5 52t-55.5 127t55.5 127t134.5 52q78 0 133.5 -52t55.5 -127t-55.5 -127t-133.5 -52z" />
    <glyph glyph-name="cent" unicode="&#xa2;" horiz-adv-x="1372" 
d="M1257 543q-13 -170 -127 -283t-294 -143v-189h-279v195q-203 42 -322.5 192t-119.5 376q0 223 120 372.5t322 191.5v196h279v-191q178 -31 294 -148.5t127 -285.5h-324q-14 77 -74 125t-143 48q-108 0 -177.5 -83t-69.5 -225q0 -145 69 -228.5t177 -83.5q87 0 145 43
t73 121h324z" />
    <glyph glyph-name="sterling" unicode="&#xa3;" horiz-adv-x="1372" 
d="M590 298h676v-298h-1156v274q135 15 217.5 101t82.5 213q0 12 -2 36h-292v240h218q-57 141 -57 234q0 183 151.5 283.5t428.5 100.5q91 0 191.5 -14.5t154.5 -35.5v-276q-54 22 -136 36t-157 14q-128 0 -198 -46.5t-70 -130.5q0 -65 37 -165h385v-240h-314v-11
q0 -94 -45.5 -178.5t-114.5 -126.5v-10z" />
    <glyph glyph-name="currency" unicode="&#xa4;" horiz-adv-x="1372" 
d="M468 645q0 -89 65 -154.5t154 -65.5t153.5 65.5t64.5 154.5q0 90 -64.5 155.5t-153.5 65.5t-154 -66t-65 -155zM1251 1012l-140 -140q57 -108 57 -227t-57 -227l140 -140l-198 -198l-140 140q-106 -57 -226 -57t-228 57l-140 -140l-197 198l140 140q-57 108 -57 227
t57 227l-140 140l197 198l140 -140q108 57 228 57t226 -57l140 140z" />
    <glyph glyph-name="yen" unicode="&#xa5;" horiz-adv-x="1372" 
d="M1138 182h-268v-182h-367v182h-268v182h268v120h-268v182h181l-410 777h391l285 -595h11l282 595h391l-409 -777h181v-182h-268v-120h268v-182z" />
    <glyph glyph-name="brokenbar" unicode="&#xa6;" horiz-adv-x="846" 
d="M593 743h-340v700h340v-700zM593 -312h-340v700h340v-700z" />
    <glyph glyph-name="section" unicode="&#xa7;" horiz-adv-x="997" 
d="M453 475l122 -46q42 12 70 46t28 72q0 41 -33.5 74.5t-92.5 52.5l-123 47q-41 -13 -69.5 -47t-28.5 -71q0 -41 33.5 -75t93.5 -53zM494 -297q-194 0 -318.5 96t-131.5 251h294q6 -49 50 -80.5t108 -31.5t104.5 31.5t40.5 82.5q0 37 -29 62.5t-94 47.5l-194 68
q-155 55 -224 127t-69 181q0 93 57 165t155 104v19q-106 52 -152 116t-46 159q0 157 124.5 251.5t332.5 94.5q194 0 317 -94.5t131 -250.5h-293q-6 49 -49.5 79.5t-105.5 30.5q-64 0 -104 -31.5t-40 -82.5q0 -36 28 -61t95 -49l186 -69q159 -58 229 -129.5t70 -175.5
q0 -95 -59.5 -169.5t-159.5 -104.5v-19q110 -50 158.5 -113.5t48.5 -157.5q0 -157 -125.5 -252t-334.5 -95z" />
    <glyph glyph-name="dieresis" unicode="&#xa8;" horiz-adv-x="1013" 
d="M293 1267q-62 0 -104.5 41t-42.5 99q0 59 42 100t105 41t105 -41t42 -100q0 -58 -42 -99t-105 -41zM720 1267q-62 0 -104.5 41t-42.5 99q0 59 42 100t105 41t105 -41t42 -100q0 -58 -42 -99t-105 -41z" />
    <glyph glyph-name="copyright" unicode="&#xa9;" horiz-adv-x="1692" 
d="M846 -124q-160 0 -305.5 62t-251 167.5t-167.5 251t-62 306.5t62 306.5t167.5 250.5t251 167t305.5 62q214 0 395 -105t286 -286t105 -395q0 -161 -62 -306.5t-167.5 -251t-251 -167.5t-305.5 -62zM846 52q125 0 237.5 48t194.5 129.5t130 195t48 238.5
q0 167 -81.5 307.5t-222 221.5t-306.5 81q-124 0 -237 -48t-194.5 -129t-130 -194.5t-48.5 -238.5t48.5 -238.5t130 -195t194.5 -129.5t237 -48zM1207 756h-214q-8 52 -42.5 83t-87.5 31q-68 0 -106 -54.5t-38 -151.5q0 -100 37.5 -154t106.5 -54q53 0 87.5 28t42.5 79h214
q-11 -132 -103.5 -209t-242.5 -77q-174 0 -274.5 103.5t-100.5 283.5q0 178 100.5 281.5t272.5 103.5q149 0 243 -80.5t105 -212.5z" />
    <glyph glyph-name="ordfeminine" unicode="&#xaa;" horiz-adv-x="834" 
d="M386 874q50 0 83.5 25t33.5 63v48l-117 -8q-38 -3 -59 -20t-21 -45t22 -45.5t58 -17.5zM282 688q-107 0 -178.5 65.5t-71.5 162.5q0 105 78.5 164t230.5 68l162 10v36q0 35 -23.5 55.5t-64.5 20.5q-40 0 -66.5 -19t-30.5 -49h-248q5 121 101.5 190.5t257.5 69.5
q155 0 250 -70t95 -184v-509h-271v100h-6q-27 -51 -85.5 -81t-129.5 -30z" />
    <glyph glyph-name="guillemotleft" unicode="&#xab;" horiz-adv-x="1384" 
d="M411 571v-8l344 -410h-314l-340 409v8l347 409h307zM939 571v-8l344 -410h-313l-341 409v8l348 409h306z" />
    <glyph glyph-name="logicalnot" unicode="&#xac;" horiz-adv-x="1372" 
d="M1234 737v-703h-312v402h-784v301h1096z" />
    <glyph glyph-name="registered" unicode="&#xae;" horiz-adv-x="1188" 
d="M594 550q-146 0 -266.5 68.5t-189.5 188t-69 265.5t69 265.5t189.5 188t266.5 68.5t266.5 -68.5t189 -188t68.5 -265.5t-68.5 -265.5t-189 -188t-266.5 -68.5zM594 694q160 0 265.5 107.5t105.5 270.5t-105.5 270.5t-265.5 107.5t-265.5 -107.5t-105.5 -270.5
t105.5 -270.5t265.5 -107.5zM523 842h-139v471h254q81 0 130.5 -42t49.5 -112q0 -52 -25.5 -90.5t-69.5 -52.5l119 -174h-163l-98 154h-58v-154zM523 1205v-110h82q67 0 67 54q0 56 -65 56h-84z" />
    <glyph glyph-name="macron" unicode="&#xaf;" horiz-adv-x="1000" 
d="M837 1459v-165h-674v165h674z" />
    <glyph glyph-name="degree" unicode="&#xb0;" horiz-adv-x="761" 
d="M381 785q-143 0 -239.5 96.5t-96.5 239.5t96 239t240 96q143 0 239.5 -96t96.5 -239t-96.5 -239.5t-239.5 -96.5zM381 979q58 0 97.5 42t39.5 100q0 59 -39.5 100t-97.5 41q-56 0 -97 -41.5t-41 -99.5q0 -57 41 -99.5t97 -42.5z" />
    <glyph glyph-name="plusminus" unicode="&#xb1;" horiz-adv-x="1372" 
d="M1177 55h-985v255h985v-255zM837 645v-212h-302v212h-343v258h343v213h302v-213h343v-258h-343z" />
    <glyph glyph-name="two.sups" unicode="&#xb2;" horiz-adv-x="695" 
d="M24 1559q0 118 85.5 186.5t231.5 68.5q137 0 220.5 -59.5t83.5 -157.5q0 -59 -29 -106t-99 -103l-136 -108v-5h271v-196h-613v177l304 248q44 38 44 69q0 23 -16 36.5t-43 13.5t-45 -18t-18 -46v-6h-241v6z" />
    <glyph glyph-name="three.sups" unicode="&#xb3;" horiz-adv-x="723" 
d="M268 1358v165h88q28 0 46 14.5t18 35.5q0 24 -18 38t-49 14t-51 -18.5t-21 -47.5h-236q-3 116 82 185.5t230 69.5q138 0 222.5 -55.5t84.5 -146.5q0 -60 -41.5 -104.5t-108.5 -55.5v-6q81 -10 126.5 -55t45.5 -113q0 -103 -88.5 -163t-241.5 -60q-141 0 -229.5 71
t-94.5 187h253q1 -25 20 -39.5t49 -14.5t48 13.5t18 35.5q0 23 -18 36.5t-50 13.5h-84z" />
    <glyph glyph-name="acute" unicode="&#xb4;" horiz-adv-x="1013" 
d="M513 1278h-276l227 316h310z" />
    <glyph glyph-name="mugreek" unicode="&#x3bc;" horiz-adv-x="1340" 
d="M85 -352v1441h351v-617q0 -204 179 -204q88 0 137.5 56.5t49.5 148.5v616h350v-726q0 -66 18 -92t62 -26q39 0 57 10l7 -244q-78 -21 -172 -21q-114 0 -180 38t-107 125q-5 10 -13 32h-7q-28 -97 -89.5 -151.5t-145.5 -54.5q-43 0 -80 15t-56 37h-6v-383h-355z" />
    <glyph glyph-name="mugreek" unicode="&#xb5;" horiz-adv-x="1340" 
d="M85 -352v1441h351v-617q0 -204 179 -204q88 0 137.5 56.5t49.5 148.5v616h350v-726q0 -66 18 -92t62 -26q39 0 57 10l7 -244q-78 -21 -172 -21q-114 0 -180 38t-107 125q-5 10 -13 32h-7q-28 -97 -89.5 -151.5t-145.5 -54.5q-43 0 -80 15t-56 37h-6v-383h-355z" />
    <glyph glyph-name="paragraph" unicode="&#xb6;" horiz-adv-x="1616" 
d="M988 -273h-333v665h-20q-236 0 -393 151.5t-157 371.5q0 229 153 378.5t398 149.5h352v-1716zM1168 -273v1716h333v-1716h-333z" />
    <glyph glyph-name="periodcentered" unicode="&#xb7;" horiz-adv-x="691" 
d="M346 452q-79 0 -134.5 55.5t-55.5 134.5t55.5 134t134.5 55q78 0 133.5 -55t55.5 -134t-55.5 -134.5t-133.5 -55.5z" />
    <glyph glyph-name="cedilla" unicode="&#xb8;" horiz-adv-x="1013" 
d="M377 -226v114l64 126h166v-14l-48 -99q79 0 126.5 -45t47.5 -121q0 -93 -66 -141.5t-190 -49.5q-98 0 -137 15v132q36 -12 105 -12q102 0 102 45q0 28 -24.5 39t-86.5 11h-59z" />
    <glyph glyph-name="one.sups" unicode="&#xb9;" horiz-adv-x="579" 
d="M219 1079v493h-5l-168 -107v215l172 111h269v-712h-268z" />
    <glyph glyph-name="ordmasculine" unicode="&#xba;" horiz-adv-x="864" 
d="M432 680q-184 0 -288 102.5t-104 289.5q0 182 105.5 286t286.5 104t286.5 -103.5t105.5 -286.5q0 -188 -103.5 -290t-288.5 -102zM432 878q51 0 80.5 50.5t29.5 142.5q0 90 -29.5 141.5t-80.5 51.5q-50 0 -79.5 -51.5t-29.5 -141.5q0 -92 29 -142.5t80 -50.5z" />
    <glyph glyph-name="guillemotright" unicode="&#xbb;" horiz-adv-x="1384" 
d="M445 571l-344 408h306l348 -409v-8l-341 -409h-313l344 410v8zM973 571l-344 408h306l348 -409v-8l-341 -409h-313l344 410v8z" />
    <glyph glyph-name="onequarter" unicode="&#xbc;" horiz-adv-x="1710" 
d="M229 735v493h-5l-168 -107v215l172 111h269v-712h-268zM415 0h-278l562 770l490 673h278l-546 -749zM1342 0v85h-347v218q85 172 232 409h366v-427h77v-200h-77v-85h-251zM1208 277v-5h143v273h-6q-62 -114 -137 -268z" />
    <glyph glyph-name="onehalf" unicode="&#xbd;" horiz-adv-x="1706" 
d="M229 735v493h-5l-168 -107v215l172 111h269v-712h-268zM415 0h-278l562 770l490 673h278l-546 -749zM1040 480q0 118 85.5 186.5t231.5 68.5q137 0 220.5 -59.5t83.5 -157.5q0 -59 -29 -106t-99 -103l-136 -108v-5h271v-196h-613v177l304 248q44 39 44 69q0 23 -16 36.5
t-43 13.5t-45 -18t-18 -46v-6h-241v6z" />
    <glyph glyph-name="threequarters" unicode="&#xbe;" horiz-adv-x="1790" 
d="M268 1014v165h88q28 0 46 14.5t18 35.5q0 24 -18 38t-49 14t-51 -18.5t-21 -47.5h-236q-3 116 82 185.5t230 69.5q138 0 222.5 -55.5t84.5 -146.5q0 -60 -41.5 -104.5t-108.5 -55.5v-6q81 -10 126.5 -55t45.5 -113q0 -103 -88.5 -163t-241.5 -60q-141 0 -229.5 71
t-94.5 187h253q1 -25 20 -39.5t49 -14.5t48 13.5t18 35.5q0 23 -18 36.5t-50 13.5h-84zM517 0h-278l562 770l490 673h278l-546 -749zM1421 0v85h-347v218q85 172 232 409h366v-427h77v-200h-77v-85h-251zM1287 277v-5h143v273h-6q-62 -114 -137 -268z" />
    <glyph glyph-name="questiondown" unicode="&#xbf;" horiz-adv-x="1141" 
d="M1090 105q-2 -198 -139 -315.5t-374 -117.5q-228 0 -365 110t-137 291q0 109 52.5 189.5t163.5 144.5q103 60 138.5 104t35.5 114v47h312l2 -40q15 -126 -24 -202.5t-145 -138.5q-102 -59 -136.5 -101.5t-34.5 -107.5q0 -61 45 -99t117 -38q71 0 116 44t47 116h326z
M612 805q-78 0 -133.5 52t-55.5 127t55.5 127t133.5 52q79 0 134.5 -52t55.5 -127t-56 -127t-134 -52z" />
    <glyph glyph-name="Agrave" unicode="&#xc0;" horiz-adv-x="1477" 
d="M1058 0l-91 317h-472l-92 -317h-374l485 1443h449l485 -1443h-390zM727 1137l-161 -556h329l-160 556h-8zM605 1563l-270 314h311l229 -314h-270z" />
    <glyph glyph-name="Aacute" unicode="&#xc1;" horiz-adv-x="1477" 
d="M1058 0l-91 317h-472l-92 -317h-374l485 1443h449l485 -1443h-390zM727 1137l-161 -556h329l-160 556h-8zM866 1556h-270l229 314h312z" />
    <glyph glyph-name="Acircumflex" unicode="&#xc2;" horiz-adv-x="1477" 
d="M1058 0l-91 317h-472l-92 -317h-374l485 1443h449l485 -1443h-390zM727 1137l-161 -556h329l-160 556h-8zM602 1864h272l261 -327h-250l-143 192h-8l-143 -192h-250z" />
    <glyph glyph-name="Atilde" unicode="&#xc3;" horiz-adv-x="1477" 
d="M1058 0l-91 317h-472l-92 -317h-374l485 1443h449l485 -1443h-390zM727 1137l-161 -556h329l-160 556h-8zM886 1554q-48 0 -91.5 20t-69 43.5t-54 43.5t-51.5 20q-33 0 -50.5 -30.5t-19.5 -80.5h-181q0 132 67.5 208t168.5 76q49 0 92.5 -20t69 -43.5t54 -43.5t51.5 -20
q64 0 69 115h181q0 -131 -68 -209.5t-168 -78.5z" />
    <glyph glyph-name="Adieresis" unicode="&#xc4;" horiz-adv-x="1477" 
d="M1058 0l-91 317h-472l-92 -317h-374l485 1443h449l485 -1443h-390zM727 1137l-161 -556h329l-160 556h-8zM524 1553q-62 0 -104.5 41t-42.5 99q0 59 42 100t105 41t105 -41t42 -100q0 -58 -42 -99t-105 -41zM951 1553q-62 0 -104.5 41t-42.5 99q0 59 42 100t105 41
t105 -41t42 -100q0 -58 -42 -99t-105 -41z" />
    <glyph glyph-name="Aring" unicode="&#xc5;" horiz-adv-x="1477" 
d="M1058 0l-91 317h-472l-92 -317h-374l485 1443h449l485 -1443h-390zM727 1137l-161 -556h329l-160 556h-8zM738 1519q-87 0 -150 61t-63 147t63 147t150 61t150 -61t63 -147t-63 -147t-150 -61zM738 1644q35 0 60 24.5t25 58.5t-25 58.5t-60 24.5t-60 -24.5t-25 -58.5
t25 -58.5t60 -24.5z" />
    <glyph glyph-name="AE" unicode="&#xc6;" horiz-adv-x="2073" 
d="M845 1167l-220 -575h343v575h-123zM968 0v327h-439l-127 -327h-363l575 1443h1336v-295h-655v-290h618v-270h-618v-293h655v-295h-982z" />
    <glyph glyph-name="Ccedilla" unicode="&#xc7;" horiz-adv-x="1488" 
d="M1072 544h353q-12 -237 -170 -390t-407 -176l-38 -77q79 0 126.5 -45t47.5 -121q0 -93 -66 -141.5t-190 -49.5q-98 0 -137 15v132q36 -12 105 -12q102 0 102 45q0 28 -24.5 39t-86.5 11h-59v114l47 92q-284 29 -445 223t-161 519q0 351 188 548.5t513 197.5
q181 0 328 -72.5t233.5 -204t91.5 -299.5h-353q-13 127 -96 204.5t-204 77.5q-151 0 -239 -121t-88 -330q0 -212 88 -333t240 -121q121 0 202.5 74t98.5 201z" />
    <glyph glyph-name="Egrave" unicode="&#xc8;" horiz-adv-x="1196" 
d="M1098 296v-296h-989v1443h989v-296h-622v-287h585v-270h-585v-294h622zM470 1563l-270 314h311l229 -314h-270z" />
    <glyph glyph-name="Eacute" unicode="&#xc9;" horiz-adv-x="1196" 
d="M1098 296v-296h-989v1443h989v-296h-622v-287h585v-270h-585v-294h622zM731 1556h-270l229 314h312z" />
    <glyph glyph-name="Ecircumflex" unicode="&#xca;" horiz-adv-x="1196" 
d="M1098 296v-296h-989v1443h989v-296h-622v-287h585v-270h-585v-294h622zM467 1864h272l261 -327h-250l-143 192h-8l-143 -192h-250z" />
    <glyph glyph-name="Edieresis" unicode="&#xcb;" horiz-adv-x="1196" 
d="M1098 296v-296h-989v1443h989v-296h-622v-287h585v-270h-585v-294h622zM389 1553q-62 0 -104.5 41t-42.5 99q0 59 42 100t105 41t105 -41t42 -100q0 -58 -42 -99t-105 -41zM816 1553q-62 0 -104.5 41t-42.5 99q0 59 42 100t105 41t105 -41t42 -100q0 -58 -42 -99
t-105 -41z" />
    <glyph glyph-name="Igrave" unicode="&#xcc;" horiz-adv-x="585" 
d="M476 0h-367v1443h367v-1443zM160 1563l-270 314h311l229 -314h-270z" />
    <glyph glyph-name="Iacute" unicode="&#xcd;" horiz-adv-x="585" 
d="M476 0h-367v1443h367v-1443zM421 1556h-270l229 314h312z" />
    <glyph glyph-name="Icircumflex" unicode="&#xce;" horiz-adv-x="585" 
d="M476 0h-367v1443h367v-1443zM157 1864h272l261 -327h-250l-143 192h-8l-143 -192h-250z" />
    <glyph glyph-name="Idieresis" unicode="&#xcf;" horiz-adv-x="585" 
d="M476 0h-367v1443h367v-1443zM79 1553q-62 0 -104.5 41t-42.5 99q0 59 42 100t105 41t105 -41t42 -100q0 -58 -42 -99t-105 -41zM506 1553q-62 0 -104.5 41t-42.5 99q0 59 42 100t105 41t105 -41t42 -100q0 -58 -42 -99t-105 -41z" />
    <glyph glyph-name="Eth" unicode="&#xd0;" horiz-adv-x="1482" 
d="M499 296h171q180 0 273.5 109t93.5 324q0 202 -96 310t-271 108h-171v-295h243v-252h-243v-304zM132 1443h586q329 0 510.5 -185t181.5 -528q0 -345 -182.5 -537.5t-509.5 -192.5h-586v600h-80v252h80v591z" />
    <glyph glyph-name="Ntilde" unicode="&#xd1;" horiz-adv-x="1479" 
d="M457 0h-348v1443h293l612 -839h8v839h348v-1443h-290l-615 847h-8v-847zM888 1554q-48 0 -91.5 20t-69 43.5t-54 43.5t-51.5 20q-33 0 -50.5 -30.5t-19.5 -80.5h-181q0 132 67.5 208t168.5 76q49 0 92.5 -20t69 -43.5t54 -43.5t51.5 -20q64 0 69 115h181
q0 -131 -68 -209.5t-168 -78.5z" />
    <glyph glyph-name="Ograve" unicode="&#xd2;" horiz-adv-x="1564" 
d="M782 1468q328 0 520 -201t192 -546t-192 -545.5t-520 -200.5q-329 0 -521 200.5t-192 545.5t192.5 546t520.5 201zM782 1170q-154 0 -246.5 -121.5t-92.5 -327.5q0 -205 92 -326.5t247 -121.5q154 0 246.5 121.5t92.5 326.5q0 206 -92.5 327.5t-246.5 121.5zM649 1563
l-270 314h311l229 -314h-270z" />
    <glyph glyph-name="Oacute" unicode="&#xd3;" horiz-adv-x="1564" 
d="M782 1468q328 0 520 -201t192 -546t-192 -545.5t-520 -200.5q-329 0 -521 200.5t-192 545.5t192.5 546t520.5 201zM782 1170q-154 0 -246.5 -121.5t-92.5 -327.5q0 -205 92 -326.5t247 -121.5q154 0 246.5 121.5t92.5 326.5q0 206 -92.5 327.5t-246.5 121.5zM910 1556
h-270l229 314h312z" />
    <glyph glyph-name="Ocircumflex" unicode="&#xd4;" horiz-adv-x="1564" 
d="M782 1468q328 0 520 -201t192 -546t-192 -545.5t-520 -200.5q-329 0 -521 200.5t-192 545.5t192.5 546t520.5 201zM782 1170q-154 0 -246.5 -121.5t-92.5 -327.5q0 -205 92 -326.5t247 -121.5q154 0 246.5 121.5t92.5 326.5q0 206 -92.5 327.5t-246.5 121.5zM646 1864
h272l261 -327h-250l-143 192h-8l-143 -192h-250z" />
    <glyph glyph-name="Otilde" unicode="&#xd5;" horiz-adv-x="1564" 
d="M782 1468q328 0 520 -201t192 -546t-192 -545.5t-520 -200.5q-329 0 -521 200.5t-192 545.5t192.5 546t520.5 201zM782 1170q-154 0 -246.5 -121.5t-92.5 -327.5q0 -205 92 -326.5t247 -121.5q154 0 246.5 121.5t92.5 326.5q0 206 -92.5 327.5t-246.5 121.5zM930 1554
q-48 0 -91.5 20t-69 43.5t-54 43.5t-51.5 20q-33 0 -50.5 -30.5t-19.5 -80.5h-181q0 132 67.5 208t168.5 76q49 0 92.5 -20t69 -43.5t54 -43.5t51.5 -20q64 0 69 115h181q0 -131 -68 -209.5t-168 -78.5z" />
    <glyph glyph-name="Odieresis" unicode="&#xd6;" horiz-adv-x="1564" 
d="M782 1468q328 0 520 -201t192 -546t-192 -545.5t-520 -200.5q-329 0 -521 200.5t-192 545.5t192.5 546t520.5 201zM782 1170q-154 0 -246.5 -121.5t-92.5 -327.5q0 -205 92 -326.5t247 -121.5q154 0 246.5 121.5t92.5 326.5q0 206 -92.5 327.5t-246.5 121.5zM568 1553
q-62 0 -104.5 41t-42.5 99q0 59 42 100t105 41t105 -41t42 -100q0 -58 -42 -99t-105 -41zM995 1553q-62 0 -104.5 41t-42.5 99q0 59 42 100t105 41t105 -41t42 -100q0 -58 -42 -99t-105 -41z" />
    <glyph glyph-name="multiply" unicode="&#xd7;" horiz-adv-x="1372" 
d="M686 373l-302 -302l-213 212l303 303l-303 303l213 212l302 -302l303 302l212 -212l-302 -303l302 -303l-212 -212z" />
    <glyph glyph-name="Oslash" unicode="&#xd8;" horiz-adv-x="1564" 
d="M1055 1008l-427 -696q70 -39 154 -39q154 0 246.5 121.5t92.5 326.5q0 171 -66 287zM535 394l436 714q-81 62 -189 62q-154 0 -246.5 -121.5t-92.5 -327.5q0 -205 92 -327zM1332 1459l-86 -140q120 -98 184 -250.5t64 -347.5q0 -345 -192 -545.5t-520 -200.5
q-179 0 -323 63l-70 -115l-103 62l68 111q-137 95 -211 255.5t-74 369.5q0 345 192.5 546t520.5 201q205 0 359 -81l78 128z" />
    <glyph glyph-name="Ugrave" unicode="&#xd9;" horiz-adv-x="1461" 
d="M476 1443v-892q0 -127 66.5 -197.5t188.5 -70.5t188 70.5t66 197.5v892h367v-931q0 -243 -170 -390t-451 -147q-282 0 -452 147t-170 390v931h367zM598 1563l-270 314h311l229 -314h-270z" />
    <glyph glyph-name="Uacute" unicode="&#xda;" horiz-adv-x="1461" 
d="M476 1443v-892q0 -127 66.5 -197.5t188.5 -70.5t188 70.5t66 197.5v892h367v-931q0 -243 -170 -390t-451 -147q-282 0 -452 147t-170 390v931h367zM859 1556h-270l229 314h312z" />
    <glyph glyph-name="Ucircumflex" unicode="&#xdb;" horiz-adv-x="1461" 
d="M476 1443v-892q0 -127 66.5 -197.5t188.5 -70.5t188 70.5t66 197.5v892h367v-931q0 -243 -170 -390t-451 -147q-282 0 -452 147t-170 390v931h367zM595 1864h272l261 -327h-250l-143 192h-8l-143 -192h-250z" />
    <glyph glyph-name="Udieresis" unicode="&#xdc;" horiz-adv-x="1461" 
d="M476 1443v-892q0 -127 66.5 -197.5t188.5 -70.5t188 70.5t66 197.5v892h367v-931q0 -243 -170 -390t-451 -147q-282 0 -452 147t-170 390v931h367zM517 1553q-62 0 -104.5 41t-42.5 99q0 59 42 100t105 41t105 -41t42 -100q0 -58 -42 -99t-105 -41zM944 1553
q-62 0 -104.5 41t-42.5 99q0 59 42 100t105 41t105 -41t42 -100q0 -58 -42 -99t-105 -41z" />
    <glyph glyph-name="Yacute" unicode="&#xdd;" horiz-adv-x="1419" 
d="M893 0h-367v496l-497 947h394l287 -600h7l286 600h387l-497 -947v-496zM838 1556h-270l229 314h312z" />
    <glyph glyph-name="Thorn" unicode="&#xde;" horiz-adv-x="1382" 
d="M146 1443h369v-219h273q227 0 364.5 -129.5t137.5 -350.5q0 -219 -144 -348.5t-381 -129.5h-252v-266h-367v1443zM513 942v-398h174q111 0 171.5 51t60.5 149q0 96 -60 147t-169 51h-177z" />
    <glyph glyph-name="germandbls" unicode="&#xdf;" horiz-adv-x="1399" 
d="M479 0h-354v1058q0 184 143.5 290t392.5 106q234 0 381 -103t147 -267q0 -116 -56.5 -201.5t-149.5 -110.5v-16q145 -9 235.5 -113t90.5 -255q0 -188 -131 -296t-359 -108q-122 0 -198 17v275q48 -18 123 -18q96 0 149.5 44t53.5 119t-61 119.5t-168 44.5h-77v273h48
q71 0 114.5 43t43.5 114q0 74 -48.5 117t-131.5 43q-188 0 -188 -197v-978z" />
    <glyph glyph-name="agrave" unicode="&#xe0;" horiz-adv-x="1169" 
d="M536 228q83 0 142.5 46t59.5 117v75l-198 -13q-69 -5 -107 -35.5t-38 -78.5q0 -51 38.5 -81t102.5 -30zM410 -16q-154 0 -260 93t-106 238q0 152 113 237t326 98l255 15v62q0 64 -42 99.5t-113 35.5q-70 0 -114.5 -32.5t-52.5 -84.5h-319q8 169 143 269.5t361 100.5
q218 0 351 -101.5t133 -266.5v-747h-345v155h-7q-43 -80 -132 -125.5t-191 -45.5zM743 1240h-276l-260 316h309z" />
    <glyph glyph-name="aacute" unicode="&#xe1;" horiz-adv-x="1169" 
d="M536 228q83 0 142.5 46t59.5 117v75l-198 -13q-69 -5 -107 -35.5t-38 -78.5q0 -51 38.5 -81t102.5 -30zM410 -16q-154 0 -260 93t-106 238q0 152 113 237t326 98l255 15v62q0 64 -42 99.5t-113 35.5q-70 0 -114.5 -32.5t-52.5 -84.5h-319q8 169 143 269.5t361 100.5
q218 0 351 -101.5t133 -266.5v-747h-345v155h-7q-43 -80 -132 -125.5t-191 -45.5zM727 1240h-276l227 316h310z" />
    <glyph glyph-name="acircumflex" unicode="&#xe2;" horiz-adv-x="1169" 
d="M536 228q83 0 142.5 46t59.5 117v75l-198 -13q-69 -5 -107 -35.5t-38 -78.5q0 -51 38.5 -81t102.5 -30zM410 -16q-154 0 -260 93t-106 238q0 152 113 237t326 98l255 15v62q0 64 -42 99.5t-113 35.5q-70 0 -114.5 -32.5t-52.5 -84.5h-319q8 169 143 269.5t361 100.5
q218 0 351 -101.5t133 -266.5v-747h-345v155h-7q-43 -80 -132 -125.5t-191 -45.5zM731 1553l259 -327h-256l-135 182h-8l-136 -182h-255l259 327h272z" />
    <glyph glyph-name="atilde" unicode="&#xe3;" horiz-adv-x="1169" 
d="M536 228q83 0 142.5 46t59.5 117v75l-198 -13q-69 -5 -107 -35.5t-38 -78.5q0 -51 38.5 -81t102.5 -30zM410 -16q-154 0 -260 93t-106 238q0 152 113 237t326 98l255 15v62q0 64 -42 99.5t-113 35.5q-70 0 -114.5 -32.5t-52.5 -84.5h-319q8 169 143 269.5t361 100.5
q218 0 351 -101.5t133 -266.5v-747h-345v155h-7q-43 -80 -132 -125.5t-191 -45.5zM744 1229q-48 0 -91.5 20t-69 43.5t-54 43.5t-51.5 20q-33 0 -50.5 -30.5t-19.5 -80.5h-181q0 132 67.5 208t168.5 76q49 0 92.5 -20t69 -43.5t54 -43.5t51.5 -20q64 0 69 115h181
q0 -131 -68 -209.5t-168 -78.5z" />
    <glyph glyph-name="adieresis" unicode="&#xe4;" horiz-adv-x="1169" 
d="M536 228q83 0 142.5 46t59.5 117v75l-198 -13q-69 -5 -107 -35.5t-38 -78.5q0 -51 38.5 -81t102.5 -30zM410 -16q-154 0 -260 93t-106 238q0 152 113 237t326 98l255 15v62q0 64 -42 99.5t-113 35.5q-70 0 -114.5 -32.5t-52.5 -84.5h-319q8 169 143 269.5t361 100.5
q218 0 351 -101.5t133 -266.5v-747h-345v155h-7q-43 -80 -132 -125.5t-191 -45.5zM381 1229q-62 0 -104.5 41t-42.5 99q0 59 42 100t105 41t105 -41t42 -100q0 -58 -42 -99t-105 -41zM808 1229q-62 0 -104.5 41t-42.5 99q0 59 42 100t105 41t105 -41t42 -100q0 -58 -42 -99
t-105 -41z" />
    <glyph glyph-name="aring" unicode="&#xe5;" horiz-adv-x="1169" 
d="M536 228q83 0 142.5 46t59.5 117v75l-198 -13q-69 -5 -107 -35.5t-38 -78.5q0 -51 38.5 -81t102.5 -30zM410 -16q-154 0 -260 93t-106 238q0 152 113 237t326 98l255 15v62q0 64 -42 99.5t-113 35.5q-70 0 -114.5 -32.5t-52.5 -84.5h-319q8 169 143 269.5t361 100.5
q218 0 351 -101.5t133 -266.5v-747h-345v155h-7q-43 -80 -132 -125.5t-191 -45.5zM595 1195q-95 0 -163.5 66.5t-68.5 158.5q0 93 68.5 159t163.5 66q94 0 162.5 -66t68.5 -159q0 -92 -68.5 -158.5t-162.5 -66.5zM595 1331q37 0 64 26t27 63t-27 63.5t-64 26.5
q-38 0 -65 -26.5t-27 -63.5t27 -63t65 -26z" />
    <glyph glyph-name="ae" unicode="&#xe6;" horiz-adv-x="1844" 
d="M1271 -26q-136 0 -244 52.5t-160 141.5h-8q-54 -87 -154 -135.5t-236 -48.5q-196 0 -311 91.5t-115 239.5q0 151 113 236t329 98l253 15v52q0 63 -47.5 104.5t-118.5 41.5q-68 0 -116.5 -32.5t-54.5 -84.5h-312q7 167 138 268.5t337 101.5q124 0 216.5 -37.5
t140.5 -101.5h8q116 139 353 139q229 0 370 -148t141 -400v-100h-732v-22q0 -97 59.5 -158.5t155.5 -61.5q69 0 120 32t71 87h319q-25 -169 -164.5 -269.5t-350.5 -100.5zM1264 863q-81 0 -136.5 -54.5t-62.5 -139.5h393q-5 88 -57.5 141t-136.5 53zM530 221
q85 0 146.5 50.5t61.5 119.5v74l-208 -15q-72 -6 -113 -35.5t-41 -77.5q0 -50 44 -83t110 -33z" />
    <glyph glyph-name="ccedilla" unicode="&#xe7;" horiz-adv-x="1163" 
d="M1118 659h-326q-9 86 -57.5 136t-125.5 50q-94 0 -146 -78t-52 -222q0 -145 52 -223.5t146 -78.5q78 0 126 47.5t58 132.5h325q-6 -190 -123 -308t-316 -137l-37 -77q79 0 126.5 -45t47.5 -121q0 -93 -66 -141.5t-190 -49.5q-98 0 -137 15v132q36 -12 105 -12
q102 0 102 45q0 28 -24.5 39t-86.5 11h-59v114l47 92q-214 29 -334.5 177.5t-120.5 387.5q0 264 148 417t403 153q229 0 368.5 -125t146.5 -331z" />
    <glyph glyph-name="egrave" unicode="&#xe8;" horiz-adv-x="1183" 
d="M600 863q-81 0 -136.5 -54.5t-62.5 -139.5h396q-5 87 -59 140.5t-138 53.5zM805 344h320q-26 -169 -166 -269.5t-353 -100.5q-260 0 -407 150.5t-147 414.5t146.5 420t395.5 156q246 0 391.5 -149t145.5 -399v-100h-735v-22q0 -98 59.5 -159t155.5 -61q71 0 123 32t71 87
zM741 1240h-276l-260 316h309z" />
    <glyph glyph-name="eacute" unicode="&#xe9;" horiz-adv-x="1183" 
d="M600 863q-81 0 -136.5 -54.5t-62.5 -139.5h396q-5 87 -59 140.5t-138 53.5zM805 344h320q-26 -169 -166 -269.5t-353 -100.5q-260 0 -407 150.5t-147 414.5t146.5 420t395.5 156q246 0 391.5 -149t145.5 -399v-100h-735v-22q0 -98 59.5 -159t155.5 -61q71 0 123 32t71 87
zM725 1240h-276l227 316h310z" />
    <glyph glyph-name="ecircumflex" unicode="&#xea;" horiz-adv-x="1183" 
d="M600 863q-81 0 -136.5 -54.5t-62.5 -139.5h396q-5 87 -59 140.5t-138 53.5zM805 344h320q-26 -169 -166 -269.5t-353 -100.5q-260 0 -407 150.5t-147 414.5t146.5 420t395.5 156q246 0 391.5 -149t145.5 -399v-100h-735v-22q0 -98 59.5 -159t155.5 -61q71 0 123 32t71 87
zM729 1553l259 -327h-256l-135 182h-8l-136 -182h-255l259 327h272z" />
    <glyph glyph-name="edieresis" unicode="&#xeb;" horiz-adv-x="1183" 
d="M600 863q-81 0 -136.5 -54.5t-62.5 -139.5h396q-5 87 -59 140.5t-138 53.5zM805 344h320q-26 -169 -166 -269.5t-353 -100.5q-260 0 -407 150.5t-147 414.5t146.5 420t395.5 156q246 0 391.5 -149t145.5 -399v-100h-735v-22q0 -98 59.5 -159t155.5 -61q71 0 123 32t71 87
zM379 1229q-62 0 -104.5 41t-42.5 99q0 59 42 100t105 41t105 -41t42 -100q0 -58 -42 -99t-105 -41zM806 1229q-62 0 -104.5 41t-42.5 99q0 59 42 100t105 41t105 -41t42 -100q0 -58 -42 -99t-105 -41z" />
    <glyph glyph-name="igrave" unicode="&#xec;" horiz-adv-x="530" 
d="M88 0v1089h354v-1089h-354zM413 1240h-276l-260 316h309z" />
    <glyph glyph-name="iacute" unicode="&#xed;" horiz-adv-x="530" 
d="M88 0v1089h354v-1089h-354zM397 1240h-276l227 316h310z" />
    <glyph glyph-name="icircumflex" unicode="&#xee;" horiz-adv-x="530" 
d="M88 0v1089h354v-1089h-354zM401 1553l259 -327h-256l-135 182h-8l-136 -182h-255l259 327h272z" />
    <glyph glyph-name="idieresis" unicode="&#xef;" horiz-adv-x="530" 
d="M88 0v1089h354v-1089h-354zM51 1229q-62 0 -104.5 41t-42.5 99q0 59 42 100t105 41t105 -41t42 -100q0 -58 -42 -99t-105 -41zM478 1229q-62 0 -104.5 41t-42.5 99q0 59 42 100t105 41t105 -41t42 -100q0 -58 -42 -99t-105 -41z" />
    <glyph glyph-name="eth" unicode="&#xf0;" horiz-adv-x="1248" 
d="M608 -16q-251 0 -402.5 145t-151.5 402q0 231 126.5 363.5t324.5 132.5q81 0 147 -27t105 -76h18q-19 58 -65.5 126t-95.5 117l-282 -95l-66 154l221 74q-79 63 -260 177h446q53 -37 101 -81l267 92l69 -155l-196 -66q257 -277 257 -662q0 -295 -154.5 -458t-408.5 -163z
M618 796q-95 0 -148 -70.5t-53 -196.5q0 -124 54 -196t147 -72q94 0 148 71t54 196q0 126 -54 197t-148 71z" />
    <glyph glyph-name="ntilde" unicode="&#xf1;" horiz-adv-x="1233" 
d="M85 0v1089h345v-205h7q42 110 127.5 168t209.5 58q181 0 279.5 -108t98.5 -303v-699h-354v623q0 94 -44.5 146t-130.5 52q-84 0 -133.5 -57t-49.5 -148v-616h-355zM767 1229q-48 0 -91.5 20t-69 43.5t-54 43.5t-51.5 20q-33 0 -50.5 -30.5t-19.5 -80.5h-181
q0 132 67.5 208t168.5 76q49 0 92.5 -20t69 -43.5t54 -43.5t51.5 -20q64 0 69 115h181q0 -131 -68 -209.5t-168 -78.5z" />
    <glyph glyph-name="ograve" unicode="&#xf2;" horiz-adv-x="1218" 
d="M609 -26q-259 0 -408 150.5t-149 420.5q0 265 151 417.5t406 152.5q257 0 407 -152t150 -418q0 -271 -149 -421t-408 -150zM609 234q92 0 145 81t53 229q0 146 -53.5 228.5t-144.5 82.5t-144 -82.5t-53 -228.5q0 -148 52.5 -229t144.5 -81zM757 1240h-276l-260 316h309z
" />
    <glyph glyph-name="oacute" unicode="&#xf3;" horiz-adv-x="1218" 
d="M609 -26q-259 0 -408 150.5t-149 420.5q0 265 151 417.5t406 152.5q257 0 407 -152t150 -418q0 -271 -149 -421t-408 -150zM609 234q92 0 145 81t53 229q0 146 -53.5 228.5t-144.5 82.5t-144 -82.5t-53 -228.5q0 -148 52.5 -229t144.5 -81zM741 1240h-276l227 316h310z
" />
    <glyph glyph-name="ocircumflex" unicode="&#xf4;" horiz-adv-x="1218" 
d="M609 -26q-259 0 -408 150.5t-149 420.5q0 265 151 417.5t406 152.5q257 0 407 -152t150 -418q0 -271 -149 -421t-408 -150zM609 234q92 0 145 81t53 229q0 146 -53.5 228.5t-144.5 82.5t-144 -82.5t-53 -228.5q0 -148 52.5 -229t144.5 -81zM745 1553l259 -327h-256
l-135 182h-8l-136 -182h-255l259 327h272z" />
    <glyph glyph-name="otilde" unicode="&#xf5;" horiz-adv-x="1218" 
d="M609 -26q-259 0 -408 150.5t-149 420.5q0 265 151 417.5t406 152.5q257 0 407 -152t150 -418q0 -271 -149 -421t-408 -150zM609 234q92 0 145 81t53 229q0 146 -53.5 228.5t-144.5 82.5t-144 -82.5t-53 -228.5q0 -148 52.5 -229t144.5 -81zM758 1229q-48 0 -91.5 20
t-69 43.5t-54 43.5t-51.5 20q-33 0 -50.5 -30.5t-19.5 -80.5h-181q0 132 67.5 208t168.5 76q49 0 92.5 -20t69 -43.5t54 -43.5t51.5 -20q64 0 69 115h181q0 -131 -68 -209.5t-168 -78.5z" />
    <glyph glyph-name="odieresis" unicode="&#xf6;" horiz-adv-x="1218" 
d="M609 -26q-259 0 -408 150.5t-149 420.5q0 265 151 417.5t406 152.5q257 0 407 -152t150 -418q0 -271 -149 -421t-408 -150zM609 234q92 0 145 81t53 229q0 146 -53.5 228.5t-144.5 82.5t-144 -82.5t-53 -228.5q0 -148 52.5 -229t144.5 -81zM395 1229q-62 0 -104.5 41
t-42.5 99q0 59 42 100t105 41t105 -41t42 -100q0 -58 -42 -99t-105 -41zM822 1229q-62 0 -104.5 41t-42.5 99q0 59 42 100t105 41t105 -41t42 -100q0 -58 -42 -99t-105 -41z" />
    <glyph glyph-name="divide" unicode="&#xf7;" horiz-adv-x="1372" 
d="M686 813q-85 0 -137 49t-52 128t52 127.5t137 48.5t137.5 -48.5t52.5 -127.5t-52.5 -128t-137.5 -49zM686 2q-85 0 -137 48.5t-52 127.5t52 127.5t137 48.5t137.5 -48.5t52.5 -127.5t-52.5 -127.5t-137.5 -48.5zM1242 456h-1112v255h1112v-255z" />
    <glyph glyph-name="oslash" unicode="&#xf8;" horiz-adv-x="1218" 
d="M784 706l-267 -445q39 -27 92 -27q92 0 145 81t53 229q0 93 -23 162zM441 362l273 456q-45 37 -105 37q-91 0 -144 -82.5t-53 -228.5q0 -109 29 -182zM1030 1115l-65 -108q97 -73 149 -190.5t52 -271.5q0 -271 -149 -421t-408 -150q-132 0 -240 41l-61 -102l-101 59
l59 98q-104 72 -159 192.5t-55 282.5q0 265 151 417.5t406 152.5q139 0 254 -48l61 102z" />
    <glyph glyph-name="ugrave" unicode="&#xf9;" horiz-adv-x="1233" 
d="M1147 1089v-1089h-344v206h-7q-78 -227 -317 -227q-178 0 -288.5 110t-110.5 300v700h355v-623q0 -96 47 -147t131 -51q82 0 131 56t49 149v616h354zM764 1240h-276l-260 316h309z" />
    <glyph glyph-name="uacute" unicode="&#xfa;" horiz-adv-x="1233" 
d="M1147 1089v-1089h-344v206h-7q-78 -227 -317 -227q-178 0 -288.5 110t-110.5 300v700h355v-623q0 -96 47 -147t131 -51q82 0 131 56t49 149v616h354zM748 1240h-276l227 316h310z" />
    <glyph glyph-name="ucircumflex" unicode="&#xfb;" horiz-adv-x="1233" 
d="M1147 1089v-1089h-344v206h-7q-78 -227 -317 -227q-178 0 -288.5 110t-110.5 300v700h355v-623q0 -96 47 -147t131 -51q82 0 131 56t49 149v616h354zM752 1553l259 -327h-256l-135 182h-8l-136 -182h-255l259 327h272z" />
    <glyph glyph-name="udieresis" unicode="&#xfc;" horiz-adv-x="1233" 
d="M1147 1089v-1089h-344v206h-7q-78 -227 -317 -227q-178 0 -288.5 110t-110.5 300v700h355v-623q0 -96 47 -147t131 -51q82 0 131 56t49 149v616h354zM402 1229q-62 0 -104.5 41t-42.5 99q0 59 42 100t105 41t105 -41t42 -100q0 -58 -42 -99t-105 -41zM829 1229
q-62 0 -104.5 41t-42.5 99q0 59 42 100t105 41t105 -41t42 -100q0 -58 -42 -99t-105 -41z" />
    <glyph glyph-name="yacute" unicode="&#xfd;" horiz-adv-x="1174" 
d="M249 -401q-124 0 -129 1v268q10 -2 77 -2q84 0 125 22.5t48 71.5l2 18q1 18 0 22l-367 1089h391l197 -823h6l196 823h374l-348 -1086q-70 -219 -201 -311.5t-371 -92.5zM719 1240h-276l227 316h310z" />
    <glyph glyph-name="thorn" unicode="&#xfe;" horiz-adv-x="1272" 
d="M782 1105q206 0 320 -147t114 -414q0 -266 -113 -413t-317 -147q-116 0 -200 48t-122 135h-19v-497h-354v1773h353v-532h18q40 92 124 143t196 51zM648 261q97 0 151 75t54 208q0 132 -54.5 208t-149.5 76t-150 -76t-56 -208q1 -133 55.5 -208t149.5 -75z" />
    <glyph glyph-name="ydieresis" unicode="&#xff;" horiz-adv-x="1174" 
d="M249 -401q-124 0 -129 1v268q10 -2 77 -2q84 0 125 22.5t48 71.5l2 18q1 18 0 22l-367 1089h391l197 -823h6l196 823h374l-348 -1086q-70 -219 -201 -311.5t-371 -92.5zM373 1229q-62 0 -104.5 41t-42.5 99q0 59 42 100t105 41t105 -41t42 -100q0 -58 -42 -99t-105 -41z
M800 1229q-62 0 -104.5 41t-42.5 99q0 59 42 100t105 41t105 -41t42 -100q0 -58 -42 -99t-105 -41z" />
    <glyph glyph-name="Amacron" unicode="&#x100;" horiz-adv-x="1477" 
d="M1058 0l-91 317h-472l-92 -317h-374l485 1443h449l485 -1443h-390zM727 1137l-161 -556h329l-160 556h-8zM1099 1778v-165h-722v165h722z" />
    <glyph glyph-name="amacron" unicode="&#x101;" horiz-adv-x="1169" 
d="M536 228q83 0 142.5 46t59.5 117v75l-198 -13q-69 -5 -107 -35.5t-38 -78.5q0 -51 38.5 -81t102.5 -30zM410 -16q-154 0 -260 93t-106 238q0 152 113 237t326 98l255 15v62q0 64 -42 99.5t-113 35.5q-70 0 -114.5 -32.5t-52.5 -84.5h-319q8 169 143 269.5t361 100.5
q218 0 351 -101.5t133 -266.5v-747h-345v155h-7q-43 -80 -132 -125.5t-191 -45.5zM932 1421v-165h-674v165h674z" />
    <glyph glyph-name="Abreve" unicode="&#x102;" horiz-adv-x="1477" 
d="M1058 0l-91 317h-472l-92 -317h-374l485 1443h449l485 -1443h-390zM727 1137l-161 -556h329l-160 556h-8zM360 1865h211q5 -72 49 -115.5t118 -43.5t118 43.5t49 115.5h211q-6 -139 -106.5 -233.5t-271.5 -94.5t-271.5 94.5t-106.5 233.5z" />
    <glyph glyph-name="abreve" unicode="&#x103;" horiz-adv-x="1169" 
d="M536 228q83 0 142.5 46t59.5 117v75l-198 -13q-69 -5 -107 -35.5t-38 -78.5q0 -51 38.5 -81t102.5 -30zM410 -16q-154 0 -260 93t-106 238q0 152 113 237t326 98l255 15v62q0 64 -42 99.5t-113 35.5q-70 0 -114.5 -32.5t-52.5 -84.5h-319q8 169 143 269.5t361 100.5
q218 0 351 -101.5t133 -266.5v-747h-345v155h-7q-43 -80 -132 -125.5t-191 -45.5zM217 1552h210q2 -72 47 -116.5t121 -44.5t121 44.5t47 116.5h210q-4 -142 -104.5 -235.5t-273.5 -93.5t-273.5 93.5t-104.5 235.5z" />
    <glyph glyph-name="Aogonek" unicode="&#x104;" horiz-adv-x="1477" 
d="M727 1137l-161 -556h329l-160 556h-8zM1351 -455q-54 -24 -160 -24q-127 0 -207 63.5t-80 164.5q0 147 155 245l-92 323h-472l-92 -317h-374l485 1443h449l485 -1442l-70 -6q-91 -15 -157.5 -70.5t-66.5 -117.5q0 -46 32 -70.5t90 -24.5q52 0 75 9v-176z" />
    <glyph glyph-name="aogonek" unicode="&#x105;" horiz-adv-x="1169" 
d="M536 228q83 0 142.5 46t59.5 117v75l-198 -13q-69 -5 -107 -35.5t-38 -78.5q0 -51 38.5 -81t102.5 -30zM1034 -445q-50 -24 -158 -24q-126 0 -204.5 62.5t-78.5 161.5q0 70 42 133.5t105 100.5v166h-7q-43 -80 -132.5 -126t-190.5 -46q-154 0 -260 93.5t-106 238.5
q0 152 113 236.5t326 97.5l255 16v62q0 63 -42 98t-112 35t-114.5 -32t-52.5 -83h-318q6 168 142 268t360 100q217 0 350.5 -101.5t133.5 -266.5v-745l-48 -7q-79 -14 -137.5 -65t-58.5 -115q0 -44 30.5 -68.5t89.5 -24.5q51 0 73 9v-174z" />
    <glyph glyph-name="Cacute" unicode="&#x106;" horiz-adv-x="1488" 
d="M770 -25q-326 0 -513.5 197.5t-187.5 549.5q0 351 188 548.5t513 197.5q181 0 328 -72.5t233.5 -204t91.5 -299.5h-353q-13 127 -96 204.5t-204 77.5q-151 0 -239 -121t-88 -330q0 -212 88 -333t240 -121q121 0 202.5 74t98.5 201h353q-13 -256 -194 -412.5t-461 -156.5z
M879 1556h-270l229 314h312z" />
    <glyph glyph-name="cacute" unicode="&#x107;" horiz-adv-x="1163" 
d="M1118 659h-326q-9 86 -57.5 136t-125.5 50q-94 0 -146 -78t-52 -222q0 -145 52 -223.5t146 -78.5q78 0 126 47.5t58 132.5h325q-7 -208 -145 -328.5t-368 -120.5q-257 0 -405 152t-148 419q0 264 148 417t403 153q229 0 368.5 -125t146.5 -331zM715 1240h-276l227 316
h310z" />
    <glyph glyph-name="Ccircumflex" unicode="&#x108;" horiz-adv-x="1488" 
d="M770 -25q-326 0 -513.5 197.5t-187.5 549.5q0 351 188 548.5t513 197.5q181 0 328 -72.5t233.5 -204t91.5 -299.5h-353q-13 127 -96 204.5t-204 77.5q-151 0 -239 -121t-88 -330q0 -212 88 -333t240 -121q121 0 202.5 74t98.5 201h353q-13 -256 -194 -412.5t-461 -156.5z
M615 1864h272l261 -327h-250l-143 192h-8l-143 -192h-250z" />
    <glyph glyph-name="ccircumflex" unicode="&#x109;" horiz-adv-x="1163" 
d="M1118 659h-326q-9 86 -57.5 136t-125.5 50q-94 0 -146 -78t-52 -222q0 -145 52 -223.5t146 -78.5q78 0 126 47.5t58 132.5h325q-7 -208 -145 -328.5t-368 -120.5q-257 0 -405 152t-148 419q0 264 148 417t403 153q229 0 368.5 -125t146.5 -331zM719 1553l259 -327h-256
l-135 182h-8l-136 -182h-255l259 327h272z" />
    <glyph glyph-name="Cdotaccent" unicode="&#x10a;" horiz-adv-x="1488" 
d="M770 -25q-326 0 -513.5 197.5t-187.5 549.5q0 351 188 548.5t513 197.5q181 0 328 -72.5t233.5 -204t91.5 -299.5h-353q-13 127 -96 204.5t-204 77.5q-151 0 -239 -121t-88 -330q0 -212 88 -333t240 -121q121 0 202.5 74t98.5 201h353q-13 -256 -194 -412.5t-461 -156.5z
M751 1548q-69 0 -116.5 47.5t-47.5 115.5t47.5 116t116.5 48t116.5 -48t47.5 -116t-47.5 -115.5t-116.5 -47.5z" />
    <glyph glyph-name="cdotaccent" unicode="&#x10b;" horiz-adv-x="1163" 
d="M1118 659h-326q-9 86 -57.5 136t-125.5 50q-94 0 -146 -78t-52 -222q0 -145 52 -223.5t146 -78.5q78 0 126 47.5t58 132.5h325q-7 -208 -145 -328.5t-368 -120.5q-257 0 -405 152t-148 419q0 264 148 417t403 153q229 0 368.5 -125t146.5 -331zM581 1234
q-69 0 -116.5 47.5t-47.5 114.5q0 66 47.5 113.5t116.5 47.5t117 -47.5t48 -113.5q0 -67 -48 -114.5t-117 -47.5z" />
    <glyph glyph-name="Ccaron" unicode="&#x10c;" horiz-adv-x="1488" 
d="M770 -25q-326 0 -513.5 197.5t-187.5 549.5q0 351 188 548.5t513 197.5q181 0 328 -72.5t233.5 -204t91.5 -299.5h-353q-13 127 -96 204.5t-204 77.5q-151 0 -239 -121t-88 -330q0 -212 88 -333t240 -121q121 0 202.5 74t98.5 201h353q-13 -256 -194 -412.5t-461 -156.5z
M615 1539l-261 327h250l143 -192h8l143 192h250l-261 -327h-272z" />
    <glyph glyph-name="ccaron" unicode="&#x10d;" horiz-adv-x="1163" 
d="M1118 659h-326q-9 86 -57.5 136t-125.5 50q-94 0 -146 -78t-52 -222q0 -145 52 -223.5t146 -78.5q78 0 126 47.5t58 132.5h325q-7 -208 -145 -328.5t-368 -120.5q-257 0 -405 152t-148 419q0 264 148 417t403 153q229 0 368.5 -125t146.5 -331zM719 1226h-272l-259 327
h255l136 -184h8l135 184h256z" />
    <glyph glyph-name="Dcaron" unicode="&#x10e;" horiz-adv-x="1456" 
d="M109 1443h586q329 0 510.5 -185t181.5 -528q0 -345 -182.5 -537.5t-509.5 -192.5h-586v1443zM476 1147v-851h171q180 0 273.5 109t93.5 324q0 202 -96 310t-271 108h-171zM558 1539l-261 327h250l143 -192h8l143 192h250l-261 -327h-272z" />
    <glyph glyph-name="dcaron" unicode="&#x10f;" horiz-adv-x="1503" 
d="M1326 1443h256l-45 -500h-211v500zM486 -16q-203 0 -318.5 149.5t-115.5 413.5q0 261 117 409.5t321 148.5q116 0 202.5 -57t123.5 -151h7v546h354v-1443h-352v187h-7q-34 -89 -123.5 -146t-208.5 -57zM619 828q-95 0 -149.5 -76t-54.5 -208t54 -207.5t150 -75.5
t150.5 75t54.5 208q0 131 -55 207.5t-150 76.5z" />
    <glyph glyph-name="Dcroat" unicode="&#x110;" horiz-adv-x="1479" 
d="M499 296h171q180 0 273.5 109t93.5 324q0 202 -96 310t-271 108h-171v-295h243v-252h-243v-304zM132 1443h586q329 0 510.5 -185t181.5 -528q0 -345 -182.5 -537.5t-509.5 -192.5h-586v600h-80v252h80v591z" />
    <glyph glyph-name="dcroat" unicode="&#x111;" horiz-adv-x="1292" 
d="M619 263q96 0 150.5 75t54.5 206q0 130 -55 206t-150 76q-94 0 -149 -76t-55 -206q0 -131 54.5 -206t149.5 -75zM1260 1341v-162h-83v-1179h-352v187h-7q-34 -89 -123.5 -145.5t-208.5 -56.5q-203 0 -318.5 150t-115.5 412q0 259 117 407.5t321 148.5q116 0 202.5 -56
t123.5 -150h7v282h-187v162h187v102h354v-102h83z" />
    <glyph glyph-name="Emacron" unicode="&#x112;" horiz-adv-x="1196" 
d="M1098 296v-296h-989v1443h989v-296h-622v-287h585v-270h-585v-294h622zM964 1778v-165h-722v165h722z" />
    <glyph glyph-name="emacron" unicode="&#x113;" horiz-adv-x="1183" 
d="M600 863q-81 0 -136.5 -54.5t-62.5 -139.5h396q-5 87 -59 140.5t-138 53.5zM805 344h320q-26 -169 -166 -269.5t-353 -100.5q-260 0 -407 150.5t-147 414.5t146.5 420t395.5 156q246 0 391.5 -149t145.5 -399v-100h-735v-22q0 -98 59.5 -159t155.5 -61q71 0 123 32t71 87
zM930 1421v-165h-674v165h674z" />
    <glyph glyph-name="Ebreve" unicode="&#x114;" horiz-adv-x="1196" 
d="M1098 296v-296h-989v1443h989v-296h-622v-287h585v-270h-585v-294h622zM225 1865h211q5 -72 49 -115.5t118 -43.5t118 43.5t49 115.5h211q-6 -139 -106.5 -233.5t-271.5 -94.5t-271.5 94.5t-106.5 233.5z" />
    <glyph glyph-name="ebreve" unicode="&#x115;" horiz-adv-x="1183" 
d="M600 863q-81 0 -136.5 -54.5t-62.5 -139.5h396q-5 87 -59 140.5t-138 53.5zM805 344h320q-26 -169 -166 -269.5t-353 -100.5q-260 0 -407 150.5t-147 414.5t146.5 420t395.5 156q246 0 391.5 -149t145.5 -399v-100h-735v-22q0 -98 59.5 -159t155.5 -61q71 0 123 32t71 87
zM215 1552h210q2 -72 47 -116.5t121 -44.5t121 44.5t47 116.5h210q-4 -142 -104.5 -235.5t-273.5 -93.5t-273.5 93.5t-104.5 235.5z" />
    <glyph glyph-name="Edotaccent" unicode="&#x116;" horiz-adv-x="1196" 
d="M1098 296v-296h-989v1443h989v-296h-622v-287h585v-270h-585v-294h622zM603 1548q-69 0 -116.5 47.5t-47.5 115.5t47.5 116t116.5 48t116.5 -48t47.5 -116t-47.5 -115.5t-116.5 -47.5z" />
    <glyph glyph-name="edotaccent" unicode="&#x117;" horiz-adv-x="1183" 
d="M600 863q-81 0 -136.5 -54.5t-62.5 -139.5h396q-5 87 -59 140.5t-138 53.5zM805 344h320q-26 -169 -166 -269.5t-353 -100.5q-260 0 -407 150.5t-147 414.5t146.5 420t395.5 156q246 0 391.5 -149t145.5 -399v-100h-735v-22q0 -98 59.5 -159t155.5 -61q71 0 123 32t71 87
zM591 1234q-69 0 -116.5 47.5t-47.5 114.5q0 66 47.5 113.5t116.5 47.5t117 -47.5t48 -113.5q0 -67 -48 -114.5t-117 -47.5z" />
    <glyph glyph-name="Eogonek" unicode="&#x118;" horiz-adv-x="1196" 
d="M109 0v1443h989v-296h-622v-287h585v-270h-585v-294h622v-293l-43 -8q-84 -19 -144.5 -75t-60.5 -113q0 -46 32.5 -70.5t90.5 -24.5q51 0 74 9v-176q-54 -24 -159 -24q-127 0 -207 63t-80 164q0 74 44.5 142t118.5 106v4h-655z" />
    <glyph glyph-name="eogonek" unicode="&#x119;" horiz-adv-x="1183" 
d="M814 -469q-125 0 -204.5 62t-79.5 161q0 66 38 123.5t106 93.5v7q-30 -4 -68 -4q-260 0 -407 150.5t-147 414.5t146.5 420t395.5 156q246 0 391.5 -149t145.5 -399v-100h-735v-22q0 -98 59.5 -159t155.5 -61q72 0 123.5 32t70.5 87h320q-10 -72 -50 -137.5t-97 -112.5
q-199 -166 -199 -273q0 -101 120 -101q51 0 73 9v-174q-51 -24 -158 -24zM600 863q-81 0 -136.5 -54.5t-62.5 -139.5h396q-5 87 -59 140.5t-138 53.5z" />
    <glyph glyph-name="Ecaron" unicode="&#x11a;" horiz-adv-x="1196" 
d="M1098 296v-296h-989v1443h989v-296h-622v-287h585v-270h-585v-294h622zM467 1539l-261 327h250l143 -192h8l143 192h250l-261 -327h-272z" />
    <glyph glyph-name="ecaron" unicode="&#x11b;" horiz-adv-x="1183" 
d="M600 863q-81 0 -136.5 -54.5t-62.5 -139.5h396q-5 87 -59 140.5t-138 53.5zM805 344h320q-26 -169 -166 -269.5t-353 -100.5q-260 0 -407 150.5t-147 414.5t146.5 420t395.5 156q246 0 391.5 -149t145.5 -399v-100h-735v-22q0 -98 59.5 -159t155.5 -61q71 0 123 32t71 87
zM729 1226h-272l-259 327h255l136 -184h8l135 184h256z" />
    <glyph glyph-name="Gcircumflex" unicode="&#x11c;" horiz-adv-x="1510" 
d="M1437 610q0 -296 -174 -465.5t-481 -169.5q-335 0 -524 197.5t-189 551.5q0 350 188 547t516 197q261 0 441 -140t208 -361h-363q-27 96 -103 151t-182 55q-156 0 -243.5 -117t-87.5 -327q0 -213 94 -336t253 -123q124 0 204 67t88 176l1 22h-264v252h618v-177zM617 1864
h272l261 -327h-250l-143 192h-8l-143 -192h-250z" />
    <glyph glyph-name="gcircumflex" unicode="&#x11d;" horiz-adv-x="1263" 
d="M619 271q96 0 150.5 71.5t54.5 202.5q0 130 -55 206.5t-150 76.5t-149.5 -76t-54.5 -207t53.5 -202.5t150.5 -71.5zM608 -410q-229 0 -370.5 94t-156.5 245h343q13 -48 65 -77.5t127 -29.5q100 0 153.5 49t53.5 132v200h-7q-33 -87 -122.5 -140.5t-208.5 -53.5
q-198 0 -315.5 143t-117.5 396q0 261 116.5 409t321.5 148q116 0 203 -57.5t125 -151.5h7v193h352v-1077q0 -193 -156.5 -307.5t-412.5 -114.5zM762 1553l259 -327h-256l-135 182h-8l-136 -182h-255l259 327h272z" />
    <glyph glyph-name="Gbreve" unicode="&#x11e;" horiz-adv-x="1510" 
d="M1437 610q0 -296 -174 -465.5t-481 -169.5q-335 0 -524 197.5t-189 551.5q0 350 188 547t516 197q261 0 441 -140t208 -361h-363q-27 96 -103 151t-182 55q-156 0 -243.5 -117t-87.5 -327q0 -213 94 -336t253 -123q124 0 204 67t88 176l1 22h-264v252h618v-177zM375 1865
h211q5 -72 49 -115.5t118 -43.5t118 43.5t49 115.5h211q-6 -139 -106.5 -233.5t-271.5 -94.5t-271.5 94.5t-106.5 233.5z" />
    <glyph glyph-name="gbreve" unicode="&#x11f;" horiz-adv-x="1263" 
d="M619 271q96 0 150.5 71.5t54.5 202.5q0 130 -55 206.5t-150 76.5t-149.5 -76t-54.5 -207t53.5 -202.5t150.5 -71.5zM608 -410q-229 0 -370.5 94t-156.5 245h343q13 -48 65 -77.5t127 -29.5q100 0 153.5 49t53.5 132v200h-7q-33 -87 -122.5 -140.5t-208.5 -53.5
q-198 0 -315.5 143t-117.5 396q0 261 116.5 409t321.5 148q116 0 203 -57.5t125 -151.5h7v193h352v-1077q0 -193 -156.5 -307.5t-412.5 -114.5zM248 1552h210q2 -72 47 -116.5t121 -44.5t121 44.5t47 116.5h210q-4 -142 -104.5 -235.5t-273.5 -93.5t-273.5 93.5
t-104.5 235.5z" />
    <glyph glyph-name="Gdotaccent" unicode="&#x120;" horiz-adv-x="1510" 
d="M1437 610q0 -296 -174 -465.5t-481 -169.5q-335 0 -524 197.5t-189 551.5q0 350 188 547t516 197q261 0 441 -140t208 -361h-363q-27 96 -103 151t-182 55q-156 0 -243.5 -117t-87.5 -327q0 -213 94 -336t253 -123q124 0 204 67t88 176l1 22h-264v252h618v-177zM753 1548
q-69 0 -116.5 47.5t-47.5 115.5t47.5 116t116.5 48t116.5 -48t47.5 -116t-47.5 -115.5t-116.5 -47.5z" />
    <glyph glyph-name="gdotaccent" unicode="&#x121;" horiz-adv-x="1263" 
d="M619 271q96 0 150.5 71.5t54.5 202.5q0 130 -55 206.5t-150 76.5t-149.5 -76t-54.5 -207t53.5 -202.5t150.5 -71.5zM608 -410q-229 0 -370.5 94t-156.5 245h343q13 -48 65 -77.5t127 -29.5q100 0 153.5 49t53.5 132v200h-7q-33 -87 -122.5 -140.5t-208.5 -53.5
q-198 0 -315.5 143t-117.5 396q0 261 116.5 409t321.5 148q116 0 203 -57.5t125 -151.5h7v193h352v-1077q0 -193 -156.5 -307.5t-412.5 -114.5zM624 1234q-69 0 -116.5 47.5t-47.5 114.5q0 66 47.5 113.5t116.5 47.5t117 -47.5t48 -113.5q0 -67 -48 -114.5t-117 -47.5z" />
    <glyph glyph-name="Gcommaaccent" unicode="&#x122;" horiz-adv-x="1510" 
d="M1437 610q0 -296 -174 -465.5t-481 -169.5q-335 0 -524 197.5t-189 551.5q0 350 188 547t516 197q261 0 441 -140t208 -361h-363q-27 96 -103 151t-182 55q-156 0 -243.5 -117t-87.5 -327q0 -213 94 -336t253 -123q124 0 204 67t88 176l1 22h-264v252h618v-177zM724 -464
h-265l142 330h310z" />
    <glyph glyph-name="gcommaaccent" unicode="&#x123;" horiz-adv-x="1263" 
d="M619 271q96 0 150.5 71.5t54.5 202.5q0 130 -55 206.5t-150 76.5t-149.5 -76t-54.5 -207t53.5 -202.5t150.5 -71.5zM608 -410q-229 0 -370.5 94t-156.5 245h343q13 -48 65 -77.5t127 -29.5q100 0 153.5 49t53.5 132v200h-7q-33 -87 -122.5 -140.5t-208.5 -53.5
q-198 0 -315.5 143t-117.5 396q0 261 116.5 409t321.5 148q116 0 203 -57.5t125 -151.5h7v193h352v-1077q0 -193 -156.5 -307.5t-412.5 -114.5zM655 1553h265l-142 -330h-310z" />
    <glyph glyph-name="Hcircumflex" unicode="&#x124;" horiz-adv-x="1527" 
d="M1417 0h-366v581h-575v-581h-367v1443h367v-566h575v566h366v-1443zM627 1864h272l261 -327h-250l-143 192h-8l-143 -192h-250z" />
    <glyph glyph-name="hcircumflex" unicode="&#x125;" horiz-adv-x="1245" 
d="M91 0v1443h347v-559h7q42 110 129.5 168t211.5 58q181 0 279.5 -108.5t98.5 -302.5v-699h-354v622q0 94 -46 146.5t-132 52.5q-88 0 -137 -57t-49 -150v-614h-355zM131 1864h272l261 -327h-250l-143 192h-8l-143 -192h-250z" />
    <glyph glyph-name="Hbar" unicode="&#x126;" horiz-adv-x="1567" 
d="M1071 877v162h-575v-162h575zM1527 1286v-247h-90v-1039h-366v581h-575v-581h-367v1039h-89v247h89v157h367v-157h575v157h366v-157h90z" />
    <glyph glyph-name="hbar" unicode="&#x127;" horiz-adv-x="1264" 
d="M457 884h7q42 110 129.5 168t211.5 58q181 0 279.5 -108.5t98.5 -302.5v-699h-354v622q0 94 -46 146.5t-132 52.5q-88 0 -137 -57t-49 -150v-614h-354v1179h-79v162h79v102h346v-102h191v-162h-191v-295z" />
    <glyph glyph-name="Itilde" unicode="&#x128;" horiz-adv-x="585" 
d="M476 0h-367v1443h367v-1443zM441 1554q-48 0 -91.5 20t-69 43.5t-54 43.5t-51.5 20q-33 0 -50.5 -30.5t-19.5 -80.5h-181q0 132 67.5 208t168.5 76q49 0 92.5 -20t69 -43.5t54 -43.5t51.5 -20q64 0 69 115h181q0 -131 -68 -209.5t-168 -78.5z" />
    <glyph glyph-name="itilde" unicode="&#x129;" horiz-adv-x="530" 
d="M88 0v1089h354v-1089h-354zM414 1229q-48 0 -91.5 20t-69 43.5t-54 43.5t-51.5 20q-33 0 -50.5 -30.5t-19.5 -80.5h-181q0 132 67.5 208t168.5 76q49 0 92.5 -20t69 -43.5t54 -43.5t51.5 -20q64 0 69 115h181q0 -131 -68 -209.5t-168 -78.5z" />
    <glyph glyph-name="Imacron" unicode="&#x12a;" horiz-adv-x="585" 
d="M476 0h-367v1443h367v-1443zM654 1778v-165h-722v165h722z" />
    <glyph glyph-name="imacron" unicode="&#x12b;" horiz-adv-x="530" 
d="M88 0v1089h354v-1089h-354zM551 1421v-165h-572v165h572z" />
    <glyph glyph-name="Ibreve" unicode="&#x12c;" horiz-adv-x="585" 
d="M476 0h-367v1443h367v-1443zM-85 1865h211q5 -72 49 -115.5t118 -43.5t118 43.5t49 115.5h211q-6 -139 -106.5 -233.5t-271.5 -94.5t-271.5 94.5t-106.5 233.5z" />
    <glyph glyph-name="ibreve" unicode="&#x12d;" horiz-adv-x="530" 
d="M88 0v1089h354v-1089h-354zM-113 1552h210q2 -72 47 -116.5t121 -44.5t121 44.5t47 116.5h210q-4 -142 -104.5 -235.5t-273.5 -93.5t-273.5 93.5t-104.5 235.5z" />
    <glyph glyph-name="Iogonek" unicode="&#x12e;" horiz-adv-x="585" 
d="M109 -45v1488h367v-1442l-32 -7q-75 -24 -133 -73t-58 -108q0 -48 35.5 -74.5t98.5 -26.5q38 0 74 9v-176q-54 -24 -167 -24q-125 0 -204 63.5t-79 164.5q0 116 98 206z" />
    <glyph glyph-name="iogonek" unicode="&#x12f;" horiz-adv-x="530" 
d="M265 1174q-76 0 -129 50t-53 124q0 75 53 124.5t129 49.5t128.5 -49.5t52.5 -124.5q0 -74 -52.5 -124t-128.5 -50zM88 -32v1121h354v-1087l-50 -8q-71 -19 -118.5 -65.5t-47.5 -108.5q0 -48 33 -74t95 -26q26 0 73 7v-172q-51 -24 -153 -24q-132 0 -212 63.5t-80 167.5
q0 56 28 110.5t78 95.5z" />
    <glyph glyph-name="Idotaccent" unicode="&#x130;" horiz-adv-x="585" 
d="M476 0h-367v1443h367v-1443zM293 1548q-69 0 -116.5 47.5t-47.5 115.5t47.5 116t116.5 48t116.5 -48t47.5 -116t-47.5 -115.5t-116.5 -47.5z" />
    <glyph glyph-name="dotlessi" unicode="&#x131;" horiz-adv-x="530" 
d="M88 0v1089h354v-1089h-354z" />
    <glyph glyph-name="IJ" unicode="&#x132;" horiz-adv-x="1796" 
d="M476 0h-367v1443h367v-1443zM610 470h353q1 -86 47.5 -136.5t125.5 -50.5q81 0 124 50.5t43 146.5v963h366v-965q0 -242 -139.5 -373.5t-389.5 -131.5q-243 0 -386.5 134t-143.5 363z" />
    <glyph glyph-name="ij" unicode="&#x133;" horiz-adv-x="1065" 
d="M88 0v1089h354v-1089h-354zM265 1177q-77 0 -129.5 50t-52.5 124q0 73 52.5 123t129.5 50t129 -49.5t52 -123.5t-52 -124t-129 -50zM974 1089v-1138q0 -165 -108 -254t-309 -89q-66 0 -104 4v252q20 -2 42 -2q66 0 95.5 24t29.5 79v1124h354zM797 1177q-77 0 -129.5 50
t-52.5 124q0 73 52.5 123t129.5 50t129 -49.5t52 -123.5t-52 -124t-129 -50z" />
    <glyph glyph-name="Jcircumflex" unicode="&#x134;" horiz-adv-x="1210" 
d="M25 470h353q1 -86 47.5 -136.5t125.5 -50.5q81 0 124 50.5t43 146.5v963h366v-965q0 -242 -139.5 -373.5t-389.5 -131.5q-243 0 -386.5 134t-143.5 363zM772 1864h272l261 -327h-250l-143 192h-8l-143 -192h-250z" />
    <glyph glyph-name="jcircumflex" unicode="&#x135;" horiz-adv-x="530" 
d="M442 1089v-1138q0 -165 -108 -254t-309 -89q-66 0 -104 4v252q20 -2 42 -2q66 0 95.5 24t29.5 79v1124h354zM401 1553l259 -327h-256l-135 182h-8l-136 -182h-255l259 327h272z" />
    <glyph glyph-name="Kcommaaccent" unicode="&#x136;" horiz-adv-x="1401" 
d="M476 0h-367v1443h367v-634h8l491 634h394l-503 -641l532 -802h-431l-368 564l-123 -156v-408zM667 -464h-265l142 330h310z" />
    <glyph glyph-name="kcommaaccent" unicode="&#x137;" horiz-adv-x="1158" 
d="M452 675l313 414h395l-387 -466l410 -623h-408l-265 411l-64 -77v-334h-355v1443h355v-768h6zM558 -464h-265l142 330h310z" />
    <glyph glyph-name="Lacute" unicode="&#x139;" horiz-adv-x="1132" 
d="M1073 296v-296h-964v1443h367v-1147h597zM420 1556h-270l229 314h312z" />
    <glyph glyph-name="lacute" unicode="&#x13a;" horiz-adv-x="537" 
d="M91 0v1443h355v-1443h-355zM397 1556h-270l229 314h312z" />
    <glyph glyph-name="Lcommaaccent" unicode="&#x13b;" horiz-adv-x="1132" 
d="M1073 296v-296h-964v1443h367v-1147h597zM547 -464h-265l142 330h310z" />
    <glyph glyph-name="lcommaaccent" unicode="&#x13c;" horiz-adv-x="537" 
d="M91 0v1443h355v-1443h-355zM240 -464h-265l142 330h310z" />
    <glyph glyph-name="Lcaron" unicode="&#x13d;" horiz-adv-x="1132" 
d="M720 1443h286l-50 -511h-236v511zM1073 296v-296h-964v1443h367v-1147h597z" />
    <glyph glyph-name="lcaron" unicode="&#x13e;" horiz-adv-x="789" 
d="M596 1445h257l-45 -500h-212v500zM91 0v1443h355v-1443h-355z" />
    <glyph glyph-name="Lslash" unicode="&#x141;" horiz-adv-x="1152" 
d="M496 296h597v-296h-964v604l-83 -44v229l83 44v610h367v-417l270 142v-229l-270 -142v-501z" />
    <glyph glyph-name="lslash" unicode="&#x142;" horiz-adv-x="582" 
d="M563 1076v-227l-95 -54v-795h-355v591l-94 -54v229l94 54v623h355v-421z" />
    <glyph glyph-name="Nacute" unicode="&#x143;" horiz-adv-x="1479" 
d="M457 0h-348v1443h293l612 -839h8v839h348v-1443h-290l-615 847h-8v-847zM868 1556h-270l229 314h312z" />
    <glyph glyph-name="nacute" unicode="&#x144;" horiz-adv-x="1233" 
d="M85 0v1089h345v-205h7q42 110 127.5 168t209.5 58q181 0 279.5 -108t98.5 -303v-699h-354v623q0 94 -44.5 146t-130.5 52q-84 0 -133.5 -57t-49.5 -148v-616h-355zM750 1240h-276l227 316h310z" />
    <glyph glyph-name="Ncommaaccent" unicode="&#x145;" horiz-adv-x="1479" 
d="M457 0h-348v1443h293l612 -839h8v839h348v-1443h-290l-615 847h-8v-847zM711 -464h-265l142 330h310z" />
    <glyph glyph-name="ncommaaccent" unicode="&#x146;" horiz-adv-x="1233" 
d="M85 0v1089h345v-205h7q42 110 127.5 168t209.5 58q181 0 279.5 -108t98.5 -303v-699h-354v623q0 94 -44.5 146t-130.5 52q-84 0 -133.5 -57t-49.5 -148v-616h-355zM592 -464h-265l142 330h310z" />
    <glyph glyph-name="Ncaron" unicode="&#x147;" horiz-adv-x="1479" 
d="M457 0h-348v1443h293l612 -839h8v839h348v-1443h-290l-615 847h-8v-847zM604 1539l-261 327h250l143 -192h8l143 192h250l-261 -327h-272z" />
    <glyph glyph-name="ncaron" unicode="&#x148;" horiz-adv-x="1233" 
d="M85 0v1089h345v-205h7q42 110 127.5 168t209.5 58q181 0 279.5 -108t98.5 -303v-699h-354v623q0 94 -44.5 146t-130.5 52q-84 0 -133.5 -57t-49.5 -148v-616h-355zM754 1226h-272l-259 327h255l136 -184h8l135 184h256z" />
    <glyph glyph-name="Omacron" unicode="&#x14c;" horiz-adv-x="1564" 
d="M782 1468q328 0 520 -201t192 -546t-192 -545.5t-520 -200.5q-329 0 -521 200.5t-192 545.5t192.5 546t520.5 201zM782 1170q-154 0 -246.5 -121.5t-92.5 -327.5q0 -205 92 -326.5t247 -121.5q154 0 246.5 121.5t92.5 326.5q0 206 -92.5 327.5t-246.5 121.5zM1143 1778
v-165h-722v165h722z" />
    <glyph glyph-name="omacron" unicode="&#x14d;" horiz-adv-x="1218" 
d="M609 -26q-259 0 -408 150.5t-149 420.5q0 265 151 417.5t406 152.5q257 0 407 -152t150 -418q0 -271 -149 -421t-408 -150zM609 234q92 0 145 81t53 229q0 146 -53.5 228.5t-144.5 82.5t-144 -82.5t-53 -228.5q0 -148 52.5 -229t144.5 -81zM946 1421v-165h-674v165h674z
" />
    <glyph glyph-name="Obreve" unicode="&#x14e;" horiz-adv-x="1564" 
d="M782 1468q328 0 520 -201t192 -546t-192 -545.5t-520 -200.5q-329 0 -521 200.5t-192 545.5t192.5 546t520.5 201zM782 1170q-154 0 -246.5 -121.5t-92.5 -327.5q0 -205 92 -326.5t247 -121.5q154 0 246.5 121.5t92.5 326.5q0 206 -92.5 327.5t-246.5 121.5zM404 1865
h211q5 -72 49 -115.5t118 -43.5t118 43.5t49 115.5h211q-6 -139 -106.5 -233.5t-271.5 -94.5t-271.5 94.5t-106.5 233.5z" />
    <glyph glyph-name="obreve" unicode="&#x14f;" horiz-adv-x="1218" 
d="M609 -26q-259 0 -408 150.5t-149 420.5q0 265 151 417.5t406 152.5q257 0 407 -152t150 -418q0 -271 -149 -421t-408 -150zM609 234q92 0 145 81t53 229q0 146 -53.5 228.5t-144.5 82.5t-144 -82.5t-53 -228.5q0 -148 52.5 -229t144.5 -81zM231 1552h210q2 -72 47 -116.5
t121 -44.5t121 44.5t47 116.5h210q-4 -142 -104.5 -235.5t-273.5 -93.5t-273.5 93.5t-104.5 235.5z" />
    <glyph glyph-name="Ohungarumlaut" unicode="&#x150;" horiz-adv-x="1564" 
d="M782 1468q328 0 520 -201t192 -546t-192 -545.5t-520 -200.5q-329 0 -521 200.5t-192 545.5t192.5 546t520.5 201zM782 1170q-154 0 -246.5 -121.5t-92.5 -327.5q0 -205 92 -326.5t247 -121.5q154 0 246.5 121.5t92.5 326.5q0 206 -92.5 327.5t-246.5 121.5zM1136 1556
h-270l229 314h312zM694 1556h-270l229 314h311z" />
    <glyph glyph-name="ohungarumlaut" unicode="&#x151;" horiz-adv-x="1218" 
d="M609 -26q-259 0 -408 150.5t-149 420.5q0 265 151 417.5t406 152.5q257 0 407 -152t150 -418q0 -271 -149 -421t-408 -150zM609 234q92 0 145 81t53 229q0 146 -53.5 228.5t-144.5 82.5t-144 -82.5t-53 -228.5q0 -148 52.5 -229t144.5 -81zM676 1241l185 315h280
l-219 -315h-246zM276 1241l187 315h278l-218 -315h-247z" />
    <glyph glyph-name="OE" unicode="&#x152;" horiz-adv-x="2216" 
d="M791 1175q-154 0 -247 -124t-93 -330t92.5 -329.5t247.5 -123.5t247.5 123.5t92.5 329.5t-93 330t-247 124zM1180 0v240q-42 -121 -172 -198.5t-290 -77.5q-138 0 -256.5 55.5t-203.5 154.5t-133 240.5t-48 306.5q0 222 83 395t230 268t333 95q158 0 279.5 -75
t177.5 -208v247h938v-296h-617v-287h580v-270h-580v-294h617v-296h-938z" />
    <glyph glyph-name="oe" unicode="&#x153;" horiz-adv-x="1924" 
d="M1382 -26q-129 0 -233.5 49t-155.5 132h-17q-129 -181 -382 -181q-248 0 -395 153.5t-147 413.5t147 417t391 157q258 0 385 -184h17q52 84 153.5 134t222.5 50q225 0 364.5 -151.5t139.5 -395.5v-101h-717v-36q0 -92 59.5 -149t154.5 -57q67 0 115 28.5t62 75.5h320
q-23 -156 -158.5 -255.5t-325.5 -99.5zM1533 669q-4 89 -54.5 142t-130.5 53q-82 0 -136 -55t-57 -140h378zM399 542q0 -141 51.5 -220t143.5 -79t143.5 79.5t51.5 220.5t-52 221.5t-143 80.5t-143 -80.5t-52 -222.5z" />
    <glyph glyph-name="Racute" unicode="&#x154;" horiz-adv-x="1355" 
d="M476 1166v-410h215q101 0 158 55t57 149q0 93 -59 149.5t-157 56.5h-214zM476 505v-505h-367v1443h618q268 0 411 -125t143 -351q0 -136 -65.5 -246.5t-181.5 -161.5l289 -559h-412l-248 505h-187zM787 1556h-270l229 314h312z" />
    <glyph glyph-name="racute" unicode="&#x155;" horiz-adv-x="805" 
d="M85 0v1089h345v-206h7q60 222 256 222q53 0 90 -14v-302q-50 20 -113 20q-112 0 -171 -61t-59 -175v-573h-355zM547 1240h-276l227 316h310z" />
    <glyph glyph-name="Rcommaaccent" unicode="&#x156;" horiz-adv-x="1355" 
d="M476 1166v-410h215q101 0 158 55t57 149q0 93 -59 149.5t-157 56.5h-214zM476 505v-505h-367v1443h618q268 0 411 -125t143 -351q0 -136 -65.5 -246.5t-181.5 -161.5l289 -559h-412l-248 505h-187zM630 -464h-265l142 330h310z" />
    <glyph glyph-name="rcommaaccent" unicode="&#x157;" horiz-adv-x="805" 
d="M85 0v1089h345v-206h7q60 222 256 222q53 0 90 -14v-302q-50 20 -113 20q-112 0 -171 -61t-59 -175v-573h-355zM237 -464h-265l142 330h310z" />
    <glyph glyph-name="Rcaron" unicode="&#x158;" horiz-adv-x="1355" 
d="M476 1166v-410h215q101 0 158 55t57 149q0 93 -59 149.5t-157 56.5h-214zM476 505v-505h-367v1443h618q268 0 411 -125t143 -351q0 -136 -65.5 -246.5t-181.5 -161.5l289 -559h-412l-248 505h-187zM523 1539l-261 327h250l143 -192h8l143 192h250l-261 -327h-272z" />
    <glyph glyph-name="rcaron" unicode="&#x159;" horiz-adv-x="805" 
d="M85 0v1089h345v-206h7q60 222 256 222q53 0 90 -14v-302q-50 20 -113 20q-112 0 -171 -61t-59 -175v-573h-355zM551 1226h-272l-259 327h255l136 -184h8l135 184h256z" />
    <glyph glyph-name="Sacute" unicode="&#x15a;" horiz-adv-x="1334" 
d="M63 418h349q10 -73 83.5 -119t176.5 -46q106 0 171 42.5t65 108.5q0 60 -50.5 93.5t-174.5 59.5l-189 37q-199 38 -301 143.5t-102 270.5q0 208 160.5 334t413.5 126q268 0 421.5 -120.5t156.5 -325.5h-338q-5 78 -70 123t-166 45q-96 0 -154.5 -40t-58.5 -106
q0 -58 50.5 -93.5t164.5 -58.5l187 -35q213 -41 313 -141t100 -271q0 -215 -165 -342.5t-444 -127.5q-277 0 -436.5 117t-162.5 326zM798 1556h-270l229 314h312z" />
    <glyph glyph-name="sacute" unicode="&#x15b;" horiz-adv-x="1108" 
d="M67 759q0 164 130.5 260t355.5 96q222 0 352 -98.5t132 -267.5h-324q-2 59 -46 93t-117 34q-65 0 -104 -26t-39 -68q0 -66 122 -91l228 -46q163 -35 236.5 -105.5t73.5 -194.5q0 -169 -140 -270t-369 -101q-235 0 -370.5 99t-146.5 269h344q8 -61 54.5 -95t124.5 -34
q71 0 111.5 24.5t40.5 67.5q0 33 -27 53.5t-91 33.5l-206 43q-160 34 -242.5 116.5t-82.5 207.5zM688 1240h-276l227 316h310z" />
    <glyph glyph-name="Scircumflex" unicode="&#x15c;" horiz-adv-x="1334" 
d="M63 418h349q10 -73 83.5 -119t176.5 -46q106 0 171 42.5t65 108.5q0 60 -50.5 93.5t-174.5 59.5l-189 37q-199 38 -301 143.5t-102 270.5q0 208 160.5 334t413.5 126q268 0 421.5 -120.5t156.5 -325.5h-338q-5 78 -70 123t-166 45q-96 0 -154.5 -40t-58.5 -106
q0 -58 50.5 -93.5t164.5 -58.5l187 -35q213 -41 313 -141t100 -271q0 -215 -165 -342.5t-444 -127.5q-277 0 -436.5 117t-162.5 326zM534 1864h272l261 -327h-250l-143 192h-8l-143 -192h-250z" />
    <glyph glyph-name="scircumflex" unicode="&#x15d;" horiz-adv-x="1108" 
d="M67 759q0 164 130.5 260t355.5 96q222 0 352 -98.5t132 -267.5h-324q-2 59 -46 93t-117 34q-65 0 -104 -26t-39 -68q0 -66 122 -91l228 -46q163 -35 236.5 -105.5t73.5 -194.5q0 -169 -140 -270t-369 -101q-235 0 -370.5 99t-146.5 269h344q8 -61 54.5 -95t124.5 -34
q71 0 111.5 24.5t40.5 67.5q0 33 -27 53.5t-91 33.5l-206 43q-160 34 -242.5 116.5t-82.5 207.5zM692 1553l259 -327h-256l-135 182h-8l-136 -182h-255l259 327h272z" />
    <glyph glyph-name="Scedilla" unicode="&#x15e;" horiz-adv-x="1334" 
d="M671 892l187 -35q213 -41 313 -141t100 -271q0 -194 -136 -318t-372 -147l-38 -79q79 0 126.5 -45t47.5 -121q0 -93 -66 -141.5t-190 -49.5q-98 0 -137 15v132q36 -12 105 -12q102 0 102 45q0 28 -24.5 39t-86.5 11h-59v114l45 89q-245 16 -383.5 131t-141.5 310h349
q10 -73 83.5 -119t176.5 -46q106 0 171 42.5t65 108.5q0 60 -50.5 93.5t-174.5 59.5l-189 37q-199 38 -301 143.5t-102 270.5q0 208 160.5 334t413.5 126q268 0 421.5 -120.5t156.5 -325.5h-338q-5 78 -70 123t-166 45q-96 0 -154.5 -40t-58.5 -106q0 -58 50.5 -93.5
t164.5 -58.5z" />
    <glyph glyph-name="scedilla" unicode="&#x15f;" horiz-adv-x="1108" 
d="M529 691l228 -46q163 -35 236.5 -105.5t73.5 -194.5q0 -150 -113 -248t-304 -118l-38 -78q79 0 126.5 -45t47.5 -121q0 -93 -66 -141.5t-190 -49.5q-98 0 -137 15v132q36 -12 105 -12q102 0 102 45q0 28 -24.5 39t-86.5 11h-59v114l45 89q-198 18 -310.5 114.5
t-123.5 250.5h344q8 -61 54.5 -95t124.5 -34q71 0 111.5 24.5t40.5 67.5q0 33 -27 53.5t-91 33.5l-206 43q-160 34 -242.5 116.5t-82.5 207.5q0 164 130.5 260t355.5 96q222 0 352 -98.5t132 -267.5h-324q-2 59 -46 93t-117 34q-65 0 -104 -26t-39 -68q0 -66 122 -91z" />
    <glyph glyph-name="Scaron" unicode="&#x160;" horiz-adv-x="1334" 
d="M63 418h349q10 -73 83.5 -119t176.5 -46q106 0 171 42.5t65 108.5q0 60 -50.5 93.5t-174.5 59.5l-189 37q-199 38 -301 143.5t-102 270.5q0 208 160.5 334t413.5 126q268 0 421.5 -120.5t156.5 -325.5h-338q-5 78 -70 123t-166 45q-96 0 -154.5 -40t-58.5 -106
q0 -58 50.5 -93.5t164.5 -58.5l187 -35q213 -41 313 -141t100 -271q0 -215 -165 -342.5t-444 -127.5q-277 0 -436.5 117t-162.5 326zM534 1539l-261 327h250l143 -192h8l143 192h250l-261 -327h-272z" />
    <glyph glyph-name="scaron" unicode="&#x161;" horiz-adv-x="1108" 
d="M67 759q0 164 130.5 260t355.5 96q222 0 352 -98.5t132 -267.5h-324q-2 59 -46 93t-117 34q-65 0 -104 -26t-39 -68q0 -66 122 -91l228 -46q163 -35 236.5 -105.5t73.5 -194.5q0 -169 -140 -270t-369 -101q-235 0 -370.5 99t-146.5 269h344q8 -61 54.5 -95t124.5 -34
q71 0 111.5 24.5t40.5 67.5q0 33 -27 53.5t-91 33.5l-206 43q-160 34 -242.5 116.5t-82.5 207.5zM692 1226h-272l-259 327h255l136 -184h8l135 184h256z" />
    <glyph glyph-name="Tcedilla" unicode="&#x162;" horiz-adv-x="1254" 
d="M810 0h-74l-48 -99q79 0 126.5 -45t47.5 -121q0 -93 -66 -141.5t-190 -49.5q-98 0 -137 15v132q36 -12 105 -12q102 0 102 45q0 28 -24.5 39t-86.5 11h-59v114l57 112h-119v1147h-398v296h1162v-296h-398v-1147z" />
    <glyph glyph-name="tcedilla" unicode="&#x163;" horiz-adv-x="786" 
d="M725 828h-196v-457q0 -113 125 -113q44 0 70 5v-252q-63 -13 -155 -13h-15l-47 -97q79 0 126.5 -45t47.5 -121q0 -93 -66 -141.5t-190 -49.5q-98 0 -137 15v132q36 -12 105 -12q102 0 102 45q0 28 -24.5 39t-86.5 11h-59v114l64 126h3q-115 25 -166.5 93.5t-51.5 191.5
v529h-148v261h148v244h355v-244h196v-261z" />
    <glyph glyph-name="Tcaron" unicode="&#x164;" horiz-adv-x="1254" 
d="M810 0h-366v1147h-398v296h1162v-296h-398v-1147zM491 1539l-261 327h250l143 -192h8l143 192h250l-261 -327h-272z" />
    <glyph glyph-name="tcaron" unicode="&#x165;" horiz-adv-x="945" 
d="M673 1718h256l-44 -500h-212v500zM174 1333h355v-244h196v-261h-196v-457q0 -113 125 -113q44 0 70 5v-252q-63 -13 -155 -13q-212 0 -303.5 70t-91.5 231v529h-148v261h148v244z" />
    <glyph glyph-name="Tbar" unicode="&#x166;" horiz-adv-x="1308" 
d="M1223 1147h-398v-343h284v-247h-284v-557h-366v557h-259v247h259v343h-398v296h1162v-296z" />
    <glyph glyph-name="tbar" unicode="&#x167;" horiz-adv-x="864" 
d="M766 479h-237v-108q0 -113 125 -113q44 0 70 5v-252q-63 -13 -155 -13q-212 0 -303.5 70t-91.5 231v180h-132v166h132v183h-148v261h148v244h355v-244h196v-261h-196v-183h237v-166z" />
    <glyph glyph-name="Utilde" unicode="&#x168;" horiz-adv-x="1461" 
d="M476 1443v-892q0 -127 66.5 -197.5t188.5 -70.5t188 70.5t66 197.5v892h367v-931q0 -243 -170 -390t-451 -147q-282 0 -452 147t-170 390v931h367zM879 1554q-48 0 -91.5 20t-69 43.5t-54 43.5t-51.5 20q-33 0 -50.5 -30.5t-19.5 -80.5h-181q0 132 67.5 208t168.5 76
q49 0 92.5 -20t69 -43.5t54 -43.5t51.5 -20q64 0 69 115h181q0 -131 -68 -209.5t-168 -78.5z" />
    <glyph glyph-name="utilde" unicode="&#x169;" horiz-adv-x="1233" 
d="M1147 1089v-1089h-344v206h-7q-78 -227 -317 -227q-178 0 -288.5 110t-110.5 300v700h355v-623q0 -96 47 -147t131 -51q82 0 131 56t49 149v616h354zM765 1229q-48 0 -91.5 20t-69 43.5t-54 43.5t-51.5 20q-33 0 -50.5 -30.5t-19.5 -80.5h-181q0 132 67.5 208t168.5 76
q49 0 92.5 -20t69 -43.5t54 -43.5t51.5 -20q64 0 69 115h181q0 -131 -68 -209.5t-168 -78.5z" />
    <glyph glyph-name="Umacron" unicode="&#x16a;" horiz-adv-x="1461" 
d="M476 1443v-892q0 -127 66.5 -197.5t188.5 -70.5t188 70.5t66 197.5v892h367v-931q0 -243 -170 -390t-451 -147q-282 0 -452 147t-170 390v931h367zM1092 1778v-165h-722v165h722z" />
    <glyph glyph-name="umacron" unicode="&#x16b;" horiz-adv-x="1233" 
d="M1147 1089v-1089h-344v206h-7q-78 -227 -317 -227q-178 0 -288.5 110t-110.5 300v700h355v-623q0 -96 47 -147t131 -51q82 0 131 56t49 149v616h354zM953 1421v-165h-674v165h674z" />
    <glyph glyph-name="Ubreve" unicode="&#x16c;" horiz-adv-x="1461" 
d="M476 1443v-892q0 -127 66.5 -197.5t188.5 -70.5t188 70.5t66 197.5v892h367v-931q0 -243 -170 -390t-451 -147q-282 0 -452 147t-170 390v931h367zM353 1865h211q5 -72 49 -115.5t118 -43.5t118 43.5t49 115.5h211q-6 -139 -106.5 -233.5t-271.5 -94.5t-271.5 94.5
t-106.5 233.5z" />
    <glyph glyph-name="ubreve" unicode="&#x16d;" horiz-adv-x="1233" 
d="M1147 1089v-1089h-344v206h-7q-78 -227 -317 -227q-178 0 -288.5 110t-110.5 300v700h355v-623q0 -96 47 -147t131 -51q82 0 131 56t49 149v616h354zM238 1552h210q2 -72 47 -116.5t121 -44.5t121 44.5t47 116.5h210q-4 -142 -104.5 -235.5t-273.5 -93.5t-273.5 93.5
t-104.5 235.5z" />
    <glyph glyph-name="Uring" unicode="&#x16e;" horiz-adv-x="1461" 
d="M476 1443v-892q0 -127 66.5 -197.5t188.5 -70.5t188 70.5t66 197.5v892h367v-931q0 -243 -170 -390t-451 -147q-282 0 -452 147t-170 390v931h367zM731 1519q-87 0 -150 61t-63 147t63 147t150 61t150 -61t63 -147t-63 -147t-150 -61zM731 1644q35 0 60 24.5t25 58.5
t-25 58.5t-60 24.5t-60 -24.5t-25 -58.5t25 -58.5t60 -24.5z" />
    <glyph glyph-name="uring" unicode="&#x16f;" horiz-adv-x="1233" 
d="M1147 1089v-1089h-344v206h-7q-78 -227 -317 -227q-178 0 -288.5 110t-110.5 300v700h355v-623q0 -96 47 -147t131 -51q82 0 131 56t49 149v616h354zM616 1195q-95 0 -163.5 66.5t-68.5 158.5q0 93 68.5 159t163.5 66q94 0 162.5 -66t68.5 -159q0 -92 -68.5 -158.5
t-162.5 -66.5zM616 1331q37 0 64 26t27 63t-27 63.5t-64 26.5q-38 0 -65 -26.5t-27 -63.5t27 -63t65 -26z" />
    <glyph glyph-name="Uhungarumlaut" unicode="&#x170;" horiz-adv-x="1461" 
d="M476 1443v-892q0 -127 66.5 -197.5t188.5 -70.5t188 70.5t66 197.5v892h367v-931q0 -243 -170 -390t-451 -147q-282 0 -452 147t-170 390v931h367zM1085 1556h-270l229 314h312zM643 1556h-270l229 314h311z" />
    <glyph glyph-name="uhungarumlaut" unicode="&#x171;" horiz-adv-x="1233" 
d="M1147 1089v-1089h-344v206h-7q-78 -227 -317 -227q-178 0 -288.5 110t-110.5 300v700h355v-623q0 -96 47 -147t131 -51q82 0 131 56t49 149v616h354zM683 1241l185 315h280l-219 -315h-246zM283 1241l187 315h278l-218 -315h-247z" />
    <glyph glyph-name="Uogonek" unicode="&#x172;" horiz-adv-x="1461" 
d="M959 -479q-127 0 -207 61.5t-80 158.5q0 67 44.5 133.5t113.5 103.5v7q-43 -10 -99 -10q-282 0 -452 147t-170 390v931h367v-892q0 -127 67 -197.5t188 -70.5t187.5 70.5t66.5 197.5v892h367v-931q0 -270 -219 -433q-109 -78 -160 -141.5t-51 -123.5q0 -48 32.5 -75
t89.5 -27q52 0 75 9v-176q-56 -24 -160 -24z" />
    <glyph glyph-name="uogonek" unicode="&#x173;" horiz-adv-x="1233" 
d="M1096 -445q-50 -24 -158 -24q-125 0 -204 62.5t-79 161.5q0 70 42 133.5t106 100.5v217h-7q-78 -227 -317 -227q-178 0 -288.5 110t-110.5 300v700h355v-623q0 -96 47 -147t131 -51q82 0 131 56t49 149v616h354v-1089l-47 -7q-79 -14 -137.5 -65t-58.5 -115
q0 -44 30.5 -68.5t89.5 -24.5q52 0 72 9v-174z" />
    <glyph glyph-name="Wcircumflex" unicode="&#x174;" horiz-adv-x="2022" 
d="M1007 901l-243 -901h-346l-377 1443h379l195 -975h8l241 975h294l241 -975h8l195 975h379l-377 -1443h-346l-243 901h-8zM875 1864h272l261 -327h-250l-143 192h-8l-143 -192h-250z" />
    <glyph glyph-name="wcircumflex" unicode="&#x175;" horiz-adv-x="1699" 
d="M1685 1089l-281 -1089h-382l-173 733h-7l-170 -733h-376l-283 1089h358l139 -769h7l166 769h339l168 -769h7l138 769h350zM986 1553l259 -327h-256l-135 182h-8l-136 -182h-255l259 327h272z" />
    <glyph glyph-name="Ycircumflex" unicode="&#x176;" horiz-adv-x="1419" 
d="M893 0h-367v496l-497 947h394l287 -600h7l286 600h387l-497 -947v-496zM574 1864h272l261 -327h-250l-143 192h-8l-143 -192h-250z" />
    <glyph glyph-name="ycircumflex" unicode="&#x177;" horiz-adv-x="1174" 
d="M249 -401q-124 0 -129 1v268q10 -2 77 -2q84 0 125 22.5t48 71.5l2 18q1 18 0 22l-367 1089h391l197 -823h6l196 823h374l-348 -1086q-70 -219 -201 -311.5t-371 -92.5zM723 1553l259 -327h-256l-135 182h-8l-136 -182h-255l259 327h272z" />
    <glyph glyph-name="Ydieresis" unicode="&#x178;" horiz-adv-x="1419" 
d="M893 0h-367v496l-497 947h394l287 -600h7l286 600h387l-497 -947v-496zM496 1553q-62 0 -104.5 41t-42.5 99q0 59 42 100t105 41t105 -41t42 -100q0 -58 -42 -99t-105 -41zM923 1553q-62 0 -104.5 41t-42.5 99q0 59 42 100t105 41t105 -41t42 -100q0 -58 -42 -99
t-105 -41z" />
    <glyph glyph-name="Zacute" unicode="&#x179;" horiz-adv-x="1307" 
d="M84 0v233l686 907v7h-675v296h1106v-233l-683 -907v-7h705v-296h-1139zM782 1556h-270l229 314h312z" />
    <glyph glyph-name="zacute" unicode="&#x17a;" horiz-adv-x="1075" 
d="M66 0v188l512 628v7h-500v266h914v-216l-465 -600v-7h482v-266h-943zM669 1240h-276l227 316h310z" />
    <glyph glyph-name="Zdotaccent" unicode="&#x17b;" horiz-adv-x="1307" 
d="M84 0v233l686 907v7h-675v296h1106v-233l-683 -907v-7h705v-296h-1139zM654 1548q-69 0 -116.5 47.5t-47.5 115.5t47.5 116t116.5 48t116.5 -48t47.5 -116t-47.5 -115.5t-116.5 -47.5z" />
    <glyph glyph-name="zdotaccent" unicode="&#x17c;" horiz-adv-x="1075" 
d="M66 0v188l512 628v7h-500v266h914v-216l-465 -600v-7h482v-266h-943zM535 1234q-69 0 -116.5 47.5t-47.5 114.5q0 66 47.5 113.5t116.5 47.5t117 -47.5t48 -113.5q0 -67 -48 -114.5t-117 -47.5z" />
    <glyph glyph-name="Zcaron" unicode="&#x17d;" horiz-adv-x="1307" 
d="M84 0v233l686 907v7h-675v296h1106v-233l-683 -907v-7h705v-296h-1139zM518 1539l-261 327h250l143 -192h8l143 192h250l-261 -327h-272z" />
    <glyph glyph-name="zcaron" unicode="&#x17e;" horiz-adv-x="1075" 
d="M66 0v188l512 628v7h-500v266h914v-216l-465 -600v-7h482v-266h-943zM673 1226h-272l-259 327h255l136 -184h8l135 184h256z" />
    <glyph glyph-name="uni04D8" unicode="&#x4d8;" horiz-adv-x="1514" 
d="M759 -39q-319 0 -498.5 200t-181.5 530l4 121h969v11q1 157 -86.5 258.5t-222.5 101.5q-213 0 -281 -180h-370q50 222 225.5 350.5t425.5 128.5q313 0 502 -208.5t189 -553.5q0 -342 -186 -550.5t-489 -208.5zM760 260q116 0 196.5 82t93.5 217h-589q10 -136 91 -217.5
t208 -81.5z" />
    <glyph glyph-name="uni04D8" unicode="&#x18f;" horiz-adv-x="1514" 
d="M759 -39q-319 0 -498.5 200t-181.5 530l4 121h969v11q1 157 -86.5 258.5t-222.5 101.5q-213 0 -281 -180h-370q50 222 225.5 350.5t425.5 128.5q313 0 502 -208.5t189 -553.5q0 -342 -186 -550.5t-489 -208.5zM760 260q116 0 196.5 82t93.5 217h-589q10 -136 91 -217.5
t208 -81.5z" />
    <glyph glyph-name="florin" unicode="&#x192;" horiz-adv-x="1372" 
d="M1290 1422v-274q-69 32 -159 32q-94 0 -147 -46.5t-69 -143.5l-19 -119h339v-245h-378l-36 -221q-36 -222 -165 -325.5t-358 -103.5q-139 0 -216 36v277q76 -37 167 -37q94 0 143 45.5t66 148.5l29 180h-308v245h347l25 160q37 221 166.5 323t374.5 102q52 0 110.5 -10
t87.5 -24z" />
    <glyph glyph-name="Ohorn" unicode="&#x1a0;" horiz-adv-x="1652" 
d="M782 -25q-329 0 -521 200.5t-192 545.5t192 546t521 201q96 0 228 -28t212 -28q108 0 108 88v175h269v-252q0 -108 -57 -166t-163 -58h-62v-7q75 -61 126 -197.5t51 -273.5q0 -344 -191.5 -545t-520.5 -201zM782 273q155 0 247 121.5t92 326.5t-92 327t-247 122
t-247 -122t-92 -327t92 -326.5t247 -121.5z" />
    <glyph glyph-name="ohorn" unicode="&#x1a1;" horiz-adv-x="1322" 
d="M609 234q93 0 145.5 82t52.5 228q0 145 -53.5 228t-144.5 83t-144 -83t-53 -228q0 -147 52 -228.5t145 -81.5zM1166 516q0 -243 -151.5 -392.5t-397.5 -149.5q-266 0 -415.5 151t-149.5 420q0 264 150 417t407 153q82 0 170 -22.5t129 -22.5q58 0 83 18.5t25 60.5v147
h268v-234q0 -201 -198 -201h-34v-7q114 -122 114 -338z" />
    <glyph glyph-name="Uhorn" unicode="&#x1af;" horiz-adv-x="1726" 
d="M731 -26q-281 0 -451.5 147t-170.5 390v932h367v-893q0 -127 67 -197t188 -70t187.5 70t66.5 197v893h382q74 0 74 71v194h269v-266q0 -107 -64 -167t-176 -60h-118v-704q0 -243 -170 -390t-451 -147z" />
    <glyph glyph-name="uhorn" unicode="&#x1b0;" horiz-adv-x="1500" 
d="M796 206q-78 -227 -317 -227q-178 0 -288.5 110t-110.5 300v700h355v-623q0 -96 47 -147t131 -51q82 0 131 56t49 149v616h370q71 0 71 69v158h267v-230q0 -106 -62 -165t-174 -59h-118v-862h-344v206h-7z" />
    <glyph glyph-name="uni01C4" unicode="&#x1c4;" horiz-adv-x="2750" 
d="M109 1443h586q329 0 510.5 -185t181.5 -528q0 -345 -182.5 -537.5t-509.5 -192.5h-586v1443zM476 1147v-851h171q180 0 273.5 109t93.5 324q0 202 -96 310t-271 108h-171zM1527 0v233l686 907v7h-675v296h1106v-233l-683 -907v-7h705v-296h-1139zM1961 1539l-261 327h250
l143 -192h8l143 192h250l-261 -327h-272z" />
    <glyph glyph-name="uni01C5" unicode="&#x1c5;" horiz-adv-x="2529" 
d="M109 1443h586q329 0 510.5 -185t181.5 -528q0 -345 -182.5 -537.5t-509.5 -192.5h-586v1443zM476 1147v-851h171q180 0 273.5 109t93.5 324q0 202 -96 310t-271 108h-171zM1512 0v188l512 628v7h-500v266h914v-216l-465 -600v-7h482v-266h-943zM2119 1226h-272l-259 327
h255l136 -184h8l135 184h256z" />
    <glyph glyph-name="uni01C6" unicode="&#x1c6;" horiz-adv-x="2344" 
d="M486 -16q-203 0 -318.5 149.5t-115.5 413.5q0 261 117 409.5t321 148.5q116 0 202.5 -57t123.5 -151h7v546h354v-1443h-352v187h-7q-34 -89 -123.5 -146t-208.5 -57zM619 828q-95 0 -149.5 -76t-54.5 -208t54 -207.5t150 -75.5t150.5 75t54.5 208q0 131 -55 207.5
t-150 76.5zM1328 0v188l512 628v7h-500v266h914v-216l-465 -600v-7h482v-266h-943zM1935 1226h-272l-259 327h255l136 -184h8l135 184h256z" />
    <glyph glyph-name="uni01C7" unicode="&#x1c7;" horiz-adv-x="2342" 
d="M1073 296v-296h-964v1443h367v-1147h597zM1157 470h353q1 -86 47.5 -136.5t125.5 -50.5q81 0 124 50.5t43 146.5v963h366v-965q0 -242 -139.5 -373.5t-389.5 -131.5q-243 0 -386.5 134t-143.5 363z" />
    <glyph glyph-name="uni01C8" unicode="&#x1c8;" horiz-adv-x="1664" 
d="M1073 296v-296h-964v1443h367v-1147h597zM1574 1089v-1138q0 -165 -108 -254t-309 -89q-66 0 -104 4v252q20 -2 42 -2q66 0 95.5 24t29.5 79v1124h354zM1397 1177q-77 0 -129.5 50t-52.5 124q0 73 52.5 123t129.5 50t129 -49.5t52 -123.5t-52 -124t-129 -50z" />
    <glyph glyph-name="uni01C9" unicode="&#x1c9;" horiz-adv-x="1072" 
d="M91 0v1443h355v-1443h-355zM982 1089v-1138q0 -165 -108 -254t-309 -89q-66 0 -104 4v252q20 -2 42 -2q66 0 95.5 24t29.5 79v1124h354zM805 1177q-77 0 -129.5 50t-52.5 124q0 73 52.5 123t129.5 50t129 -49.5t52 -123.5t-52 -124t-129 -50z" />
    <glyph glyph-name="uni01CA" unicode="&#x1ca;" horiz-adv-x="2690" 
d="M457 0h-348v1443h293l612 -839h8v839h348v-1443h-290l-615 847h-8v-847zM1504 470h353q1 -86 47.5 -136.5t125.5 -50.5q81 0 124 50.5t43 146.5v963h366v-965q0 -242 -139.5 -373.5t-389.5 -131.5q-243 0 -386.5 134t-143.5 363z" />
    <glyph glyph-name="uni01CB" unicode="&#x1cb;" horiz-adv-x="2012" 
d="M457 0h-348v1443h293l612 -839h8v839h348v-1443h-290l-615 847h-8v-847zM1921 1089v-1138q0 -165 -108 -254t-309 -89q-66 0 -104 4v252q20 -2 42 -2q66 0 95.5 24t29.5 79v1124h354zM1744 1177q-77 0 -129.5 50t-52.5 124q0 73 52.5 123t129.5 50t129 -49.5t52 -123.5
t-52 -124t-129 -50z" />
    <glyph glyph-name="uni01CC" unicode="&#x1cc;" horiz-adv-x="1773" 
d="M85 0v1089h345v-205h7q42 110 127.5 168t209.5 58q181 0 279.5 -108t98.5 -303v-699h-354v623q0 94 -44.5 146t-130.5 52q-84 0 -133.5 -57t-49.5 -148v-616h-355zM1683 1089v-1138q0 -165 -108 -254t-309 -89q-66 0 -104 4v252q20 -2 42 -2q66 0 95.5 24t29.5 79v1124
h354zM1506 1177q-77 0 -129.5 50t-52.5 124q0 73 52.5 123t129.5 50t129 -49.5t52 -123.5t-52 -124t-129 -50z" />
    <glyph glyph-name="Acaron" unicode="&#x1cd;" horiz-adv-x="1477" 
d="M1058 0l-91 317h-472l-92 -317h-374l485 1443h449l485 -1443h-390zM727 1137l-161 -556h329l-160 556h-8zM602 1539l-261 327h250l143 -192h8l143 192h250l-261 -327h-272z" />
    <glyph glyph-name="acaron" unicode="&#x1ce;" horiz-adv-x="1169" 
d="M536 228q83 0 142.5 46t59.5 117v75l-198 -13q-69 -5 -107 -35.5t-38 -78.5q0 -51 38.5 -81t102.5 -30zM410 -16q-154 0 -260 93t-106 238q0 152 113 237t326 98l255 15v62q0 64 -42 99.5t-113 35.5q-70 0 -114.5 -32.5t-52.5 -84.5h-319q8 169 143 269.5t361 100.5
q218 0 351 -101.5t133 -266.5v-747h-345v155h-7q-43 -80 -132 -125.5t-191 -45.5zM731 1226h-272l-259 327h255l136 -184h8l135 184h256z" />
    <glyph glyph-name="Icaron" unicode="&#x1cf;" horiz-adv-x="585" 
d="M476 0h-367v1443h367v-1443zM157 1539l-261 327h250l143 -192h8l143 192h250l-261 -327h-272z" />
    <glyph glyph-name="icaron" unicode="&#x1d0;" horiz-adv-x="530" 
d="M88 0v1089h354v-1089h-354zM401 1226h-272l-259 327h255l136 -184h8l135 184h256z" />
    <glyph glyph-name="Ocaron" unicode="&#x1d1;" horiz-adv-x="1564" 
d="M782 1468q328 0 520 -201t192 -546t-192 -545.5t-520 -200.5q-329 0 -521 200.5t-192 545.5t192.5 546t520.5 201zM782 1170q-154 0 -246.5 -121.5t-92.5 -327.5q0 -205 92 -326.5t247 -121.5q154 0 246.5 121.5t92.5 326.5q0 206 -92.5 327.5t-246.5 121.5zM646 1539
l-261 327h250l143 -192h8l143 192h250l-261 -327h-272z" />
    <glyph glyph-name="ocaron" unicode="&#x1d2;" horiz-adv-x="1218" 
d="M609 -26q-259 0 -408 150.5t-149 420.5q0 265 151 417.5t406 152.5q257 0 407 -152t150 -418q0 -271 -149 -421t-408 -150zM609 234q92 0 145 81t53 229q0 146 -53.5 228.5t-144.5 82.5t-144 -82.5t-53 -228.5q0 -148 52.5 -229t144.5 -81zM745 1226h-272l-259 327h255
l136 -184h8l135 184h256z" />
    <glyph glyph-name="Ucaron" unicode="&#x1d3;" horiz-adv-x="1461" 
d="M476 1443v-892q0 -127 66.5 -197.5t188.5 -70.5t188 70.5t66 197.5v892h367v-931q0 -243 -170 -390t-451 -147q-282 0 -452 147t-170 390v931h367zM595 1539l-261 327h250l143 -192h8l143 192h250l-261 -327h-272z" />
    <glyph glyph-name="ucaron" unicode="&#x1d4;" horiz-adv-x="1233" 
d="M1147 1089v-1089h-344v206h-7q-78 -227 -317 -227q-178 0 -288.5 110t-110.5 300v700h355v-623q0 -96 47 -147t131 -51q82 0 131 56t49 149v616h354zM752 1226h-272l-259 327h255l136 -184h8l135 184h256z" />
    <glyph glyph-name="Udieresismacron" unicode="&#x1d5;" horiz-adv-x="1461" 
d="M476 1443v-892q0 -127 66.5 -197.5t188.5 -70.5t188 70.5t66 197.5v892h367v-931q0 -243 -170 -390t-451 -147q-282 0 -452 147t-170 390v931h367zM520 1819q62 0 103.5 -40.5t41.5 -98.5t-41.5 -99t-103.5 -41t-104 41t-42 99t42 98.5t104 40.5zM370 2098h722v-165h-722
v165zM942 1819q62 0 104 -40.5t42 -98.5t-42 -99t-104 -41t-103.5 41t-41.5 99t41.5 98.5t103.5 40.5z" />
    <glyph glyph-name="udieresismacron" unicode="&#x1d6;" horiz-adv-x="1233" 
d="M1147 1089v-1089h-344v206h-7q-78 -227 -317 -227q-178 0 -288.5 110t-110.5 300v700h355v-623q0 -96 47 -147t131 -51q82 0 131 56t49 149v616h354zM411 1216q-60 0 -100 39t-40 95t40 95t100 39t100.5 -39t40.5 -95t-40.5 -95t-100.5 -39zM821 1216q-60 0 -100.5 39
t-40.5 95t40.5 95t100.5 39t100 -39t40 -95t-40 -95t-100 -39zM953 1778v-165h-674v165h674z" />
    <glyph glyph-name="Udieresisacute" unicode="&#x1d7;" horiz-adv-x="1461" 
d="M476 1443v-892q0 -127 66.5 -197.5t188.5 -70.5t188 70.5t66 197.5v892h367v-931q0 -243 -170 -390t-451 -147q-282 0 -452 147t-170 390v931h367zM592 1903l194 265h287l-228 -265h-253zM520 1540q-62 0 -104 41t-42 99t42 98.5t104 40.5t103.5 -40.5t41.5 -98.5
t-41.5 -99t-103.5 -41zM942 1540q-62 0 -103.5 41t-41.5 99t41.5 98.5t103.5 40.5t104 -40.5t42 -98.5t-42 -99t-104 -41z" />
    <glyph glyph-name="udieresisacute" unicode="&#x1d8;" horiz-adv-x="1233" 
d="M1147 1089v-1089h-344v206h-7q-78 -227 -317 -227q-178 0 -288.5 110t-110.5 300v700h355v-623q0 -96 47 -147t131 -51q82 0 131 56t49 149v616h354zM486 1598l204 285h285l-237 -285h-252zM402 1217q-62 0 -104.5 41t-42.5 99q0 59 42 100t105 41t105 -41t42 -100
q0 -58 -42 -99t-105 -41zM829 1217q-62 0 -104.5 41t-42.5 99q0 59 42 100t105 41t105 -41t42 -100q0 -58 -42 -99t-105 -41z" />
    <glyph glyph-name="Udieresiscaron" unicode="&#x1d9;" horiz-adv-x="1461" 
d="M476 1443v-892q0 -127 66.5 -197.5t188.5 -70.5t188 70.5t66 197.5v892h367v-931q0 -243 -170 -390t-451 -147q-282 0 -452 147t-170 390v931h367zM605 1900l-251 288h245l123 -151h18l123 151h245l-251 -288h-252zM520 1819q62 0 103.5 -40.5t41.5 -98.5t-41.5 -99
t-103.5 -41t-104 41t-42 99t42 98.5t104 40.5zM942 1819q62 0 104 -40.5t42 -98.5t-42 -99t-104 -41t-103.5 41t-41.5 99t41.5 98.5t103.5 40.5z" />
    <glyph glyph-name="udieresiscaron" unicode="&#x1da;" horiz-adv-x="1233" 
d="M1147 1089v-1089h-344v206h-7q-78 -227 -317 -227q-178 0 -288.5 110t-110.5 300v700h355v-623q0 -96 47 -147t131 -51q82 0 131 56t49 149v616h354zM411 1216q-60 0 -100 39t-40 95t40 95t100 39t100.5 -39t40.5 -95t-40.5 -95t-100.5 -39zM821 1216q-60 0 -100.5 39
t-40.5 95t40.5 95t100.5 39t100 -39t40 -95t-40 -95t-100 -39zM752 1565h-272l-259 322h256l135 -179h8l135 179h256z" />
    <glyph glyph-name="Udieresisgrave" unicode="&#x1db;" horiz-adv-x="1461" 
d="M476 1443v-892q0 -127 66.5 -197.5t188.5 -70.5t188 70.5t66 197.5v892h367v-931q0 -243 -170 -390t-451 -147q-282 0 -452 147t-170 390v931h367zM867 1903h-253l-227 265h286zM520 1540q-62 0 -104 41t-42 99t42 98.5t104 40.5t103.5 -40.5t41.5 -98.5t-41.5 -99
t-103.5 -41zM942 1540q-62 0 -103.5 41t-41.5 99t41.5 98.5t103.5 40.5t104 -40.5t42 -98.5t-42 -99t-104 -41z" />
    <glyph glyph-name="udieresisgrave" unicode="&#x1dc;" horiz-adv-x="1233" 
d="M1147 1089v-1089h-344v206h-7q-78 -227 -317 -227q-178 0 -288.5 110t-110.5 300v700h355v-623q0 -96 47 -147t131 -51q82 0 131 56t49 149v616h354zM741 1594h-233l-232 289h284zM402 1217q-62 0 -104.5 41t-42.5 99q0 59 42 100t105 41t105 -41t42 -100q0 -58 -42 -99
t-105 -41zM829 1217q-62 0 -104.5 41t-42.5 99q0 59 42 100t105 41t105 -41t42 -100q0 -58 -42 -99t-105 -41z" />
    <glyph glyph-name="uni04D9" unicode="&#x4d9;" horiz-adv-x="1202" 
d="M593 225q82 0 138 54.5t61 141.5h-396q3 -89 57.5 -142.5t139.5 -53.5zM387 751h-319q36 171 173 267.5t352 96.5q255 0 401.5 -151t146.5 -415q0 -265 -147.5 -420t-402.5 -155q-240 0 -385 149t-145 399l1 100h735v22q0 96 -56.5 158t-152.5 62q-152 0 -201 -113z" />
    <glyph glyph-name="uni04D9" unicode="&#x259;" horiz-adv-x="1202" 
d="M593 225q82 0 138 54.5t61 141.5h-396q3 -89 57.5 -142.5t139.5 -53.5zM387 751h-319q36 171 173 267.5t352 96.5q255 0 401.5 -151t146.5 -415q0 -265 -147.5 -420t-402.5 -155q-240 0 -385 149t-145 399l1 100h735v22q0 96 -56.5 158t-152.5 62q-152 0 -201 -113z" />
    <glyph glyph-name="uni04D9" unicode="&#x1dd;" horiz-adv-x="1202" 
d="M593 225q82 0 138 54.5t61 141.5h-396q3 -89 57.5 -142.5t139.5 -53.5zM387 751h-319q36 171 173 267.5t352 96.5q255 0 401.5 -151t146.5 -415q0 -265 -147.5 -420t-402.5 -155q-240 0 -385 149t-145 399l1 100h735v22q0 96 -56.5 158t-152.5 62q-152 0 -201 -113z" />
    <glyph glyph-name="Adieresismacron" unicode="&#x1de;" horiz-adv-x="1477" 
d="M1058 0l-91 317h-472l-92 -317h-374l485 1443h449l485 -1443h-390zM727 1137l-161 -556h329l-160 556h-8zM527 1819q62 0 103.5 -40.5t41.5 -98.5t-41.5 -99t-103.5 -41t-104 41t-42 99t42 98.5t104 40.5zM377 2098h722v-165h-722v165zM949 1819q62 0 104 -40.5t42 -98.5
t-42 -99t-104 -41t-103.5 41t-41.5 99t41.5 98.5t103.5 40.5z" />
    <glyph glyph-name="adieresismacron" unicode="&#x1df;" horiz-adv-x="1169" 
d="M536 228q83 0 142.5 46t59.5 117v75l-198 -13q-69 -5 -107 -35.5t-38 -78.5q0 -51 38.5 -81t102.5 -30zM410 -16q-154 0 -260 93t-106 238q0 152 113 237t326 98l255 15v62q0 64 -42 99.5t-113 35.5q-70 0 -114.5 -32.5t-52.5 -84.5h-319q8 169 143 269.5t361 100.5
q218 0 351 -101.5t133 -266.5v-747h-345v155h-7q-43 -80 -132 -125.5t-191 -45.5zM390 1216q-60 0 -100 39t-40 95t40 95t100 39t100.5 -39t40.5 -95t-40.5 -95t-100.5 -39zM800 1216q-60 0 -100.5 39t-40.5 95t40.5 95t100.5 39t100 -39t40 -95t-40 -95t-100 -39zM932 1778
v-165h-674v165h674z" />
    <glyph glyph-name="Adotmacron" unicode="&#x1e0;" horiz-adv-x="1477" 
d="M1058 0l-91 317h-472l-92 -317h-374l485 1443h449l485 -1443h-390zM727 1137l-161 -556h329l-160 556h-8zM738 1545q-64 0 -106 41.5t-42 100.5t42 100.5t106 41.5t106 -41.5t42 -100.5t-42 -100.5t-106 -41.5zM1099 2098v-165h-722v165h722z" />
    <glyph glyph-name="adotmacron" unicode="&#x1e1;" horiz-adv-x="1169" 
d="M536 228q83 0 142.5 46t59.5 117v75l-198 -13q-69 -5 -107 -35.5t-38 -78.5q0 -51 38.5 -81t102.5 -30zM410 -16q-154 0 -260 93t-106 238q0 152 113 237t326 98l255 15v62q0 64 -42 99.5t-113 35.5q-70 0 -114.5 -32.5t-52.5 -84.5h-319q8 169 143 269.5t361 100.5
q218 0 351 -101.5t133 -266.5v-747h-345v155h-7q-43 -80 -132 -125.5t-191 -45.5zM595 1210q-69 0 -116.5 47.5t-47.5 113.5t47.5 113.5t116.5 47.5t116.5 -47.5t47.5 -113.5t-47.5 -113.5t-116.5 -47.5zM932 1785v-165h-674v165h674z" />
    <glyph glyph-name="AEmacron" unicode="&#x1e2;" horiz-adv-x="2073" 
d="M845 1167l-220 -575h343v575h-123zM968 0v327h-439l-127 -327h-363l575 1443h1336v-295h-655v-290h618v-270h-618v-293h655v-295h-982zM1652 1778v-165h-722v165h722z" />
    <glyph glyph-name="aemacron" unicode="&#x1e3;" horiz-adv-x="1844" 
d="M1271 -26q-136 0 -244 52.5t-160 141.5h-8q-54 -87 -154 -135.5t-236 -48.5q-196 0 -311 91.5t-115 239.5q0 151 113 236t329 98l253 15v52q0 63 -47.5 104.5t-118.5 41.5q-68 0 -116.5 -32.5t-54.5 -84.5h-312q7 167 138 268.5t337 101.5q124 0 216.5 -37.5
t140.5 -101.5h8q116 139 353 139q229 0 370 -148t141 -400v-100h-732v-22q0 -97 59.5 -158.5t155.5 -61.5q69 0 120 32t71 87h319q-25 -169 -164.5 -269.5t-350.5 -100.5zM1264 863q-81 0 -136.5 -54.5t-62.5 -139.5h393q-5 88 -57.5 141t-136.5 53zM530 221
q85 0 146.5 50.5t61.5 119.5v74l-208 -15q-72 -6 -113 -35.5t-41 -77.5q0 -50 44 -83t110 -33zM1252 1421v-165h-674v165h674z" />
    <glyph glyph-name="Gcaron" unicode="&#x1e6;" horiz-adv-x="1510" 
d="M1437 610q0 -296 -174 -465.5t-481 -169.5q-335 0 -524 197.5t-189 551.5q0 350 188 547t516 197q261 0 441 -140t208 -361h-363q-27 96 -103 151t-182 55q-156 0 -243.5 -117t-87.5 -327q0 -213 94 -336t253 -123q124 0 204 67t88 176l1 22h-264v252h618v-177zM617 1539
l-261 327h250l143 -192h8l143 192h250l-261 -327h-272z" />
    </font>
</defs>
</svg>
